<svg width="52" height="51" viewBox="0 0 52 51" fill="none" xmlns="http://www.w3.org/2000/svg">
<g id="Layer 3">
<path id="Vector" d="M30.3121 40.1526L27.8118 38.8067L26.7055 36.5865C26.6428 36.4607 26.5471 36.354 26.4285 36.2776C26.3098 36.2012 26.1726 36.1579 26.0313 36.1522C25.8898 36.1456 25.7492 36.1774 25.6246 36.2442C25.5 36.311 25.3961 36.4102 25.324 36.5312L23.9497 38.8058L21.657 40.1694C21.5357 40.2415 21.4362 40.3448 21.369 40.4682C21.3018 40.5917 21.2693 40.7309 21.2751 40.8711C21.2808 41.0113 21.3244 41.1474 21.4015 41.2651C21.4785 41.3828 21.5861 41.4777 21.7129 41.5399L23.9506 42.6375L25.3071 45.1182C25.3747 45.2418 25.4746 45.3451 25.5964 45.4171C25.7182 45.4892 25.8573 45.5272 25.9991 45.5273C26.009 45.5273 26.0188 45.5273 26.0293 45.5267C26.1762 45.5212 26.3185 45.475 26.4403 45.3934C26.5621 45.3118 26.6584 45.1981 26.7184 45.065L27.8126 42.6381L30.2583 41.5523C30.3924 41.4928 30.5071 41.3972 30.5893 41.2765C30.6715 41.1557 30.7181 41.0145 30.7237 40.8689C30.7293 40.7233 30.6937 40.579 30.621 40.4523C30.5483 40.3257 30.4413 40.2218 30.3122 40.1523L30.3121 40.1526Z" fill="white"/>
<path id="Vector_2" d="M22.8494 21.3064H21.2744V22.869H22.8494V21.3064Z" fill="white"/>
<path id="Vector_3" d="M32.3006 44.7458H30.7256V46.3085H32.3006V44.7458Z" fill="white"/>
<path id="Vector_4" d="M50.4123 0.210693H1.58731C1.37845 0.210693 1.17815 0.293011 1.03046 0.439537C0.882775 0.586062 0.799807 0.784794 0.799807 0.992013V25.9942C0.799807 26.2015 0.882775 26.4002 1.03046 26.5467C1.17815 26.6932 1.37845 26.7756 1.58731 26.7756H5.52481V32.0495C5.52481 32.1013 5.50406 32.151 5.46714 32.1876C5.43022 32.2242 5.38014 32.2448 5.32793 32.2448H4.93418C4.88197 32.2448 4.83189 32.2242 4.79497 32.1876C4.75805 32.151 4.73731 32.1013 4.73731 32.0495V29.3149C4.73676 28.8488 4.5499 28.4019 4.21773 28.0724C3.88556 27.7428 3.43519 27.5574 2.96543 27.5569H2.57168C2.10192 27.5574 1.65155 27.7428 1.31938 28.0724C0.987209 28.4019 0.800354 28.8488 0.799807 29.3149V35.8436C0.799223 36.2043 0.911106 36.5564 1.12012 36.8517L5.58731 43.1833H4.73731C4.52845 43.1833 4.32814 43.2656 4.18046 43.4121C4.03277 43.5586 3.94981 43.7574 3.94981 43.9646V49.4338C3.94981 49.6411 4.03277 49.8398 4.18046 49.9863C4.32814 50.1328 4.52845 50.2152 4.73731 50.2152H16.5498C16.7587 50.2152 16.959 50.1328 17.1066 49.9863C17.2543 49.8398 17.3373 49.6411 17.3373 49.4338V43.9646C17.3371 43.7795 17.2707 43.6005 17.1499 43.4595C17.0292 43.3184 16.8618 43.2245 16.6778 43.1944L24.4299 34.2212C24.7186 33.8842 24.8693 33.4519 24.8522 33.0098C24.8351 32.5678 24.6515 32.1483 24.3376 31.8341L23.3819 30.8859C23.2078 30.7132 22.9993 30.5783 22.7697 30.49C22.5402 30.4016 22.2946 30.3617 22.0486 30.3728C21.8027 30.3839 21.5618 30.4457 21.3412 30.5543C21.1207 30.6629 20.9254 30.8159 20.7677 31.0036L19.2609 32.7975C19.235 32.8285 19.2001 32.8508 19.161 32.8614C19.1219 32.872 19.0804 32.8704 19.0423 32.8567C19.0042 32.843 18.9712 32.818 18.9479 32.785C18.9247 32.7521 18.9122 32.7128 18.9123 32.6726V26.7756H33.0873V32.6726C33.0873 32.7127 33.0748 32.7519 33.0516 32.7848C33.0284 32.8176 32.9955 32.8426 32.9574 32.8563C32.9194 32.8699 32.878 32.8716 32.8389 32.8611C32.7999 32.8506 32.765 32.8284 32.7391 32.7976L31.2323 31.0036C31.0747 30.8159 30.8794 30.6629 30.6589 30.5543C30.4383 30.4456 30.1974 30.3838 29.9514 30.3728C29.7054 30.3617 29.4598 30.4016 29.2303 30.4899C29.0007 30.5783 28.7922 30.7131 28.6181 30.8859L27.6624 31.8341C27.3485 32.1483 27.1649 32.5678 27.1478 33.0098C27.1307 33.4519 27.2814 33.8842 27.5701 34.2212L35.3218 43.1944C35.1378 43.2245 34.9704 43.3184 34.8496 43.4595C34.7289 43.6005 34.6625 43.7795 34.6623 43.9646V49.4338C34.6623 49.6411 34.7453 49.8398 34.8929 49.9863C35.0406 50.1328 35.2409 50.2152 35.4498 50.2152H47.2623C47.4711 50.2152 47.6715 50.1328 47.8191 49.9863C47.9668 49.8398 48.0498 49.6411 48.0498 49.4338V43.9646C48.0498 43.7574 47.9668 43.5586 47.8191 43.4121C47.6715 43.2656 47.4711 43.1833 47.2623 43.1833H46.4123L50.8795 36.8518C51.0885 36.5565 51.2004 36.2044 51.1998 35.8436V29.3149C51.1992 28.8488 51.0124 28.4019 50.6802 28.0724C50.348 27.7428 49.8977 27.5574 49.4279 27.5569H49.0342C48.5644 27.5574 48.114 27.7428 47.7819 28.0724C47.4497 28.4019 47.2628 28.8488 47.2623 29.3149V32.0495C47.2623 32.1013 47.2415 32.151 47.2046 32.1876C47.1677 32.2242 47.1176 32.2448 47.0654 32.2448H46.6717C46.6194 32.2448 46.5694 32.2242 46.5325 32.1876C46.4955 32.151 46.4748 32.1013 46.4748 32.0495V26.7756H50.4123C50.6211 26.7756 50.8214 26.6932 50.9691 26.5467C51.1168 26.4002 51.1998 26.2015 51.1998 25.9942V0.992013C51.1998 0.784794 51.1168 0.586062 50.9691 0.439537C50.8214 0.293011 50.6211 0.210693 50.4123 0.210693ZM2.37481 25.2129V8.02389H5.52481V15.8371C5.52481 16.0443 5.60777 16.243 5.75546 16.3896C5.90314 16.5361 6.10345 16.6184 6.3123 16.6184H7.8873V23.6618C7.82194 23.6544 7.75622 23.6505 7.69043 23.6503H7.29668C6.86108 23.6509 6.44095 23.8105 6.11633 24.0987C5.79171 24.3869 5.58529 24.7835 5.53642 25.2129H2.37481ZM14.9748 16.6184H16.5498V23.6618C16.1507 23.7067 15.7788 23.8845 15.4949 24.1663C15.2109 24.448 15.0316 24.817 14.9864 25.2129H14.1873V23.8456C14.1868 23.3795 13.9999 22.9327 13.6677 22.6031C13.3356 22.2736 12.8852 22.0882 12.4154 22.0876H12.0217C11.5519 22.0882 11.1015 22.2736 10.7694 22.6031C10.4372 22.9327 10.2503 23.3795 10.2498 23.8456V25.2129H9.4623V16.6184H11.0373C11.2462 16.6184 11.4465 16.5361 11.5941 16.3896C11.7418 16.243 11.8248 16.0443 11.8248 15.8371V8.02389H14.1873V15.8371C14.1873 16.0443 14.2703 16.243 14.418 16.3896C14.5656 16.5361 14.7659 16.6184 14.9748 16.6184ZM14.9748 26.7756V30.4868C14.9748 30.5386 14.9541 30.5883 14.9171 30.625C14.8802 30.6616 14.8301 30.6822 14.7779 30.6822H14.3842C14.332 30.6822 14.2819 30.6616 14.245 30.625C14.208 30.5883 14.1873 30.5386 14.1873 30.4868V26.7756H14.9748ZM9.4623 26.7756H10.2498V30.4868C10.2498 30.5386 10.2291 30.5883 10.1921 30.625C10.1552 30.6616 10.1051 30.6822 10.0529 30.6822H9.65918C9.60696 30.6822 9.55689 30.6616 9.51997 30.625C9.48305 30.5883 9.4623 30.5386 9.4623 30.4868V26.7756ZM20.4704 33.7977L21.9773 32.0037C21.9946 31.9826 22.0163 31.9655 22.0408 31.9534C22.0653 31.9413 22.0921 31.9346 22.1195 31.9336C22.1468 31.932 22.1742 31.9362 22.1996 31.946C22.2251 31.9559 22.2482 31.9711 22.2671 31.9907L23.2229 32.9389C23.2577 32.9739 23.278 33.0205 23.2799 33.0696C23.2817 33.1188 23.2649 33.1668 23.2327 33.2042L14.6714 43.1149C14.653 43.1363 14.63 43.1535 14.6042 43.1653C14.5785 43.1771 14.5504 43.1833 14.522 43.1833H7.61237C7.5807 43.1833 7.54949 43.1757 7.52141 43.1612C7.49332 43.1467 7.46918 43.1256 7.45103 43.0999L2.41034 35.9554C2.38715 35.9226 2.37474 35.8836 2.37481 35.8436V29.3149C2.37481 29.263 2.39555 29.2134 2.43247 29.1767C2.46939 29.1401 2.51947 29.1195 2.57168 29.1195H2.96543C3.01765 29.1195 3.06772 29.1401 3.10464 29.1767C3.14156 29.2134 3.16231 29.263 3.16231 29.3149V32.0495C3.16285 32.5155 3.34971 32.9624 3.68188 33.2919C4.01405 33.6215 4.46442 33.8069 4.93418 33.8074H5.32793C5.79769 33.8069 6.24806 33.6215 6.58023 33.2919C6.9124 32.9624 7.09926 32.5155 7.0998 32.0495V25.4083C7.0998 25.3565 7.12055 25.3068 7.15747 25.2701C7.19439 25.2335 7.24446 25.2129 7.29668 25.2129H7.69043C7.74264 25.2129 7.79272 25.2335 7.82964 25.2701C7.86656 25.3068 7.8873 25.3565 7.8873 25.4083V30.4868C7.88785 30.9529 8.07471 31.3997 8.40688 31.7293C8.73905 32.0589 9.18942 32.2443 9.65918 32.2448H10.0529C10.5227 32.2443 10.9731 32.0589 11.3052 31.7293C11.6374 31.3997 11.8243 30.9529 11.8248 30.4868V23.8456C11.8248 23.7938 11.8455 23.7441 11.8825 23.7075C11.9194 23.6709 11.9695 23.6503 12.0217 23.6503H12.4154C12.4676 23.6503 12.5177 23.6709 12.5546 23.7075C12.5916 23.7441 12.6123 23.7938 12.6123 23.8456V30.4868C12.6128 30.9529 12.7997 31.3997 13.1319 31.7293C13.464 32.0589 13.9144 32.2443 14.3842 32.2448H14.7779C15.2477 32.2443 15.6981 32.0589 16.0302 31.7293C16.3624 31.3997 16.5493 30.9529 16.5498 30.4868V25.4083C16.5498 25.3565 16.5705 25.3068 16.6075 25.2701C16.6444 25.2335 16.6945 25.2129 16.7467 25.2129H17.1404C17.1926 25.2129 17.2427 25.2335 17.2796 25.2701C17.3166 25.3068 17.3373 25.3565 17.3373 25.4083V32.6726C17.3374 33.0338 17.4496 33.3863 17.6587 33.682C17.8679 33.9777 18.1638 34.2023 18.5061 34.3253C18.8485 34.4482 19.2207 34.4635 19.5722 34.3691C19.9237 34.2747 20.2373 34.0752 20.4704 33.7977ZM25.2123 25.2129H18.9007C18.8719 24.9587 18.7875 24.7138 18.6535 24.4953C18.5195 24.2768 18.3391 24.0898 18.1248 23.9476V16.6184H19.6998C19.9087 16.6184 20.109 16.5361 20.2566 16.3896C20.4043 16.243 20.4873 16.0443 20.4873 15.8371V8.02389H22.8498V15.8371C22.8498 16.0443 22.9328 16.243 23.0805 16.3896C23.2281 16.5361 23.4284 16.6184 23.6373 16.6184H25.2123V25.2129ZM26.7873 25.2129V16.6184H28.3623C28.5712 16.6184 28.7715 16.5361 28.9191 16.3896C29.0668 16.243 29.1498 16.0443 29.1498 15.8371V8.02389H31.5123V15.8371C31.5123 16.0443 31.5953 16.243 31.7429 16.3896C31.8906 16.5361 32.0909 16.6184 32.2998 16.6184H33.8748V23.9476C33.6605 24.0898 33.4801 24.2768 33.3461 24.4953C33.2121 24.7138 33.1277 24.9587 33.0989 25.2129H26.7873ZM40.9623 16.6184H42.5373V25.2129H41.7498V23.8456C41.7492 23.3795 41.5624 22.9327 41.2302 22.6031C40.898 22.2736 40.4477 22.0882 39.9779 22.0876H39.5842C39.1144 22.0882 38.664 22.2736 38.3319 22.6031C37.9997 22.9327 37.8128 23.3795 37.8123 23.8456V25.2129H37.0132C36.968 24.817 36.7887 24.448 36.5047 24.1663C36.2208 23.8845 35.8488 23.7067 35.4498 23.6618V16.6184H37.0248C37.2337 16.6184 37.434 16.5361 37.5816 16.3896C37.7293 16.243 37.8123 16.0443 37.8123 15.8371V8.02389H40.1748V15.8371C40.1748 16.0443 40.2578 16.243 40.4054 16.3896C40.5531 16.5361 40.7534 16.6184 40.9623 16.6184ZM42.5373 26.7756V30.4868C42.5373 30.5386 42.5165 30.5883 42.4796 30.625C42.4427 30.6616 42.3926 30.6822 42.3404 30.6822H41.9467C41.8945 30.6822 41.8444 30.6616 41.8075 30.625C41.7705 30.5883 41.7498 30.5386 41.7498 30.4868V26.7756H42.5373ZM37.8123 26.7756V30.4868C37.8123 30.5386 37.7915 30.5883 37.7546 30.625C37.7177 30.6616 37.6676 30.6822 37.6154 30.6822H37.2217C37.1695 30.6822 37.1194 30.6616 37.0825 30.625C37.0455 30.5883 37.0248 30.5386 37.0248 30.4868V26.7756H37.8123ZM46.6717 33.8074H47.0654C47.5352 33.8069 47.9855 33.6215 48.3177 33.2919C48.6499 32.9624 48.8367 32.5155 48.8373 32.0495V29.3149C48.8373 29.263 48.858 29.2134 48.895 29.1767C48.9319 29.1401 48.9819 29.1195 49.0342 29.1195H49.4279C49.4801 29.1195 49.5302 29.1401 49.5671 29.1767C49.604 29.2134 49.6248 29.263 49.6248 29.3149V35.8436C49.6248 35.8836 49.6124 35.9227 49.5893 35.9555L44.5485 43.1C44.5303 43.1257 44.5062 43.1467 44.4781 43.1612C44.45 43.1757 44.4189 43.1833 44.3872 43.1833H37.4776C37.4492 43.1833 37.4211 43.1772 37.3953 43.1653C37.3695 43.1535 37.3465 43.1363 37.3281 43.1149L28.7659 33.2044C28.7337 33.167 28.7169 33.1189 28.7187 33.0698C28.7206 33.0207 28.7409 32.9741 28.7757 32.9391L29.7315 31.9909C29.7495 31.9726 29.7711 31.958 29.7949 31.9482C29.8187 31.9383 29.8443 31.9334 29.8701 31.9335C29.8733 31.9335 29.8766 31.9335 29.8799 31.9335C29.9073 31.9345 29.9341 31.9412 29.9587 31.9533C29.9832 31.9654 30.0048 31.9825 30.0221 32.0036L31.529 33.7977C31.7621 34.0753 32.0757 34.2749 32.4272 34.3693C32.7787 34.4638 33.151 34.4485 33.4934 34.3255C33.8358 34.2026 34.1318 33.9779 34.3409 33.6822C34.5501 33.3864 34.6623 33.0339 34.6623 32.6726V25.4083C34.6623 25.3565 34.683 25.3068 34.72 25.2701C34.7569 25.2335 34.807 25.2129 34.8592 25.2129H35.2529C35.3051 25.2129 35.3552 25.2335 35.3921 25.2701C35.4291 25.3068 35.4498 25.3565 35.4498 25.4083V30.4868C35.4503 30.9529 35.6372 31.3997 35.9694 31.7293C36.3015 32.0589 36.7519 32.2443 37.2217 32.2448H37.6154C38.0852 32.2443 38.5355 32.0589 38.8677 31.7293C39.1999 31.3997 39.3867 30.9529 39.3873 30.4868V23.8456C39.3873 23.7938 39.408 23.7441 39.445 23.7075C39.4819 23.6709 39.532 23.6503 39.5842 23.6503H39.9779C40.0301 23.6503 40.0802 23.6709 40.1171 23.7075C40.154 23.7441 40.1748 23.7938 40.1748 23.8456V30.4868C40.1753 30.9529 40.3622 31.3997 40.6944 31.7293C41.0265 32.0589 41.4769 32.2443 41.9467 32.2448H42.3404C42.8102 32.2443 43.2605 32.0589 43.5927 31.7293C43.9249 31.3997 44.1117 30.9529 44.1123 30.4868V25.4083C44.1123 25.3565 44.133 25.3068 44.17 25.2701C44.2069 25.2335 44.257 25.2129 44.3092 25.2129H44.7029C44.7551 25.2129 44.8052 25.2335 44.8421 25.2701C44.879 25.3068 44.8998 25.3565 44.8998 25.4083V32.0495C44.9003 32.5155 45.0872 32.9624 45.4194 33.2919C45.7515 33.6215 46.2019 33.8069 46.6717 33.8074ZM49.6248 25.2129H46.4632C46.4143 24.7835 46.2079 24.3869 45.8833 24.0987C45.5586 23.8105 45.1385 23.6509 44.7029 23.6503H44.3092C44.2434 23.6505 44.1777 23.6544 44.1123 23.6618V16.6184H45.6873C45.8961 16.6184 46.0965 16.5361 46.2441 16.3896C46.3918 16.243 46.4748 16.0443 46.4748 15.8371V8.02389H49.6248V25.2129ZM49.6248 6.46125H2.37481V1.77333H49.6248V6.46125Z" fill="white"/>
<path id="Vector_5" d="M13.4 3.33594H6.3125V4.89858H13.4V3.33594Z" fill="white"/>
<path id="Vector_6" d="M20.4879 3.33594H17.3379V4.89858H20.4879V3.33594Z" fill="white"/>
<path id="Vector_7" d="M37.8131 3.33594H34.6631V4.89858H37.8131V3.33594Z" fill="white"/>
<path id="Vector_8" d="M44.9 3.33594H41.75V4.89858H44.9V3.33594Z" fill="white"/>
</g>
</svg>
