
  <svg width="32" height="32" viewBox="0 0 32 32" fill="none" xmlns="http://www.w3.org/2000/svg">
    <g clipPath="url(#clip0_3_20)">
      <path
        d="M21.3621 24.43C20.3576 25.8214 18.7273 26.7274 16.8916 26.7274C15.0558 26.7274 13.4389 25.8292 12.433 24.4485C12.2698 24.224 12.1224 23.9869 11.993 23.739C11.8398 23.4435 11.7119 23.1337 11.6124 22.8102C11.5387 22.5706 11.4806 22.3245 11.4397 22.073C11.419 21.9475 11.4025 21.8201 11.3906 21.6914H9.48621C9.50323 21.9495 9.5346 22.2036 9.57765 22.4534C9.76809 23.552 10.1971 24.5682 10.8098 25.4469C12.1533 27.3741 14.3792 28.6369 16.8916 28.6369C19.6744 28.6369 22.1056 27.0876 23.3754 24.8016C23.5033 24.572 23.7441 24.4302 24.0048 24.4302C24.4263 24.4302 24.7284 24.7783 24.7284 25.1587C24.7284 25.2778 24.6987 25.3994 24.6345 25.515C23.1159 28.2421 20.2139 30.0908 16.8916 30.0908C13.5693 30.0908 10.6194 28.2117 9.1107 25.4474C8.90275 25.0658 8.7213 24.6669 8.56929 24.2537C8.35818 23.6794 8.20447 23.077 8.11424 22.4539C8.10865 22.4133 8.10282 22.3734 8.09845 22.3335C8.09455 22.3082 8.09162 22.2827 8.08895 22.2581C8.08068 22.1954 8.07388 22.1326 8.06828 22.0699C8.0335 21.7016 8.02791 21.3884 8.0228 21.169C8.01647 20.9153 8.01891 20.7018 8.0228 20.5447V9.3272C8.0228 8.99813 8.26407 8.71042 8.58998 8.67929C8.96307 8.64378 9.27874 8.93976 9.27874 9.30872V19.5973H11.1768V6.0161C11.1768 5.64836 11.4913 5.35237 11.8648 5.38714C12.19 5.41755 12.4327 5.70528 12.4327 6.03434V17.8895C12.9306 17.2056 13.5802 16.6406 14.3315 16.2452V2.54155C14.3315 2.17333 14.646 1.87708 15.0191 1.91259C15.345 1.943 15.5875 2.23072 15.5875 2.55979V15.7677C16.0053 15.6651 16.4419 15.6111 16.8913 15.6111C17.0917 15.6111 17.2902 15.6218 17.4855 15.6427C19.0761 15.8151 20.4668 16.6691 21.3618 17.907C21.7709 18.4718 22.0771 19.1177 22.251 19.8165H27.5742C27.493 19.1603 27.3524 18.5221 27.1591 17.907C25.837 13.7053 22.0319 10.6041 17.4857 10.3543V2.58361C17.4857 1.19146 16.3905 0.0257435 15.0071 0.000449351C13.5924 -0.0260609 12.433 1.12387 12.433 2.54131V3.55428C12.2238 3.4998 12.0037 3.47258 11.777 3.47453C10.3864 3.49033 9.279 4.65799 9.279 6.05719V6.84642C9.06911 6.79194 8.84925 6.76398 8.62233 6.76714C7.23164 6.78246 6.125 7.95013 6.125 9.3491V21.1688C6.125 21.6036 6.1503 22.0329 6.20065 22.4537C6.83325 27.8223 11.3864 32 16.8916 32C21.6987 32 25.7803 28.8139 27.1591 24.4302C27.3524 23.8154 27.493 23.177 27.5742 22.5208H22.251C22.0771 23.2188 21.7714 23.8648 21.3618 24.4302L21.3621 24.43ZM17.4857 12.2667C20.5597 12.472 23.2097 14.261 24.6376 16.8272C24.9062 17.3102 24.5564 17.9068 24.0051 17.9068C23.7429 17.9068 23.5028 17.7635 23.3742 17.5327C22.1946 15.4129 20.0166 13.9268 17.4857 13.7252V12.2664V12.2667Z"
        fill="#FED102"
      />
    </g>
    <defs>
      <clipPath id="clip0_3_20">
        <rect width="32" height="32" fill="white" />
      </clipPath>
    </defs>
  </svg>
