
  <svg width="32" height="32" viewBox="0 0 32 32" fill="none" xmlns="http://www.w3.org/2000/svg">
    <g clipPath="url(#clip0_3_20)">
      <path
        d="M21.5491 24.4296C20.5445 25.821 18.9142 26.7271 17.0786 26.7271C15.2431 26.7271 13.626 25.8287 12.6203 24.4479C12.4571 24.2236 12.3096 23.9865 12.1805 23.7387C12.0275 23.4434 11.8994 23.1335 11.7999 22.81C11.7263 22.5703 11.6681 22.3244 11.6271 22.0726C11.6063 21.9471 11.5898 21.8197 11.5781 21.6909H9.67371C9.69055 21.9489 9.72239 22.2032 9.7652 22.4528C9.95549 23.5514 10.3847 24.5676 10.9973 25.4463C12.3407 27.3733 14.5668 28.6362 17.079 28.6362C19.8621 28.6362 22.2931 27.0868 23.5629 24.8011C23.691 24.5716 23.9314 24.4296 24.1923 24.4296C24.6139 24.4296 24.9158 24.7777 24.9158 25.1579C24.9158 25.2772 24.8862 25.3987 24.8218 25.5143C23.3031 28.2414 20.4011 30.0901 17.0786 30.0901C13.7562 30.0901 10.8063 28.211 9.2979 25.4466C9.09004 25.0649 8.90853 24.6664 8.75667 24.2529C8.54551 23.6787 8.39179 23.0764 8.30177 22.4532C8.29628 22.4125 8.29044 22.3727 8.28604 22.3328C8.28238 22.3075 8.2791 22.2819 8.27654 22.2574C8.26849 22.1944 8.26152 22.1319 8.25567 22.0693C8.2209 21.7011 8.2154 21.3879 8.21028 21.1683C8.20406 20.9147 8.20662 20.701 8.21028 20.544V9.32662C8.21028 8.99763 8.45181 8.70964 8.7775 8.6789C9.1504 8.6434 9.46622 8.93944 9.46622 9.30832V19.5969H11.3644V6.01552C11.3644 5.64775 11.6787 5.35171 12.0524 5.38684C12.3777 5.41721 12.6203 5.70521 12.6203 6.0342V17.8894C13.118 17.2055 13.7679 16.6405 14.5192 16.2449V2.54122C14.5192 2.17308 14.8336 1.87704 15.2068 1.91253C15.5325 1.94291 15.7752 2.2309 15.7752 2.55989V15.7677C16.1931 15.6648 16.6297 15.611 17.079 15.611C17.2796 15.611 17.4779 15.6216 17.6733 15.6429C19.2637 15.8152 20.6547 16.6694 21.5495 17.9074C21.9586 18.472 22.2649 19.1183 22.4387 19.8169H27.7618C27.6805 19.1607 27.54 18.5225 27.3464 17.9074C26.0242 13.7055 22.2191 10.6045 17.6733 10.3546V2.58367C17.6733 1.19161 16.5781 0.0257065 15.1948 0.000456132C13.78 -0.026258 12.6203 1.1239 12.6203 2.54122V3.55417C12.411 3.49964 12.1911 3.47256 11.9642 3.47439C10.5732 3.49012 9.46622 4.65787 9.46622 6.05689V6.84623C9.25654 6.79171 9.03659 6.7639 8.8097 6.76682C7.41873 6.78219 6.3125 7.94957 6.3125 9.34895V21.1687C6.3125 21.6034 6.33773 22.0327 6.38823 22.4535C7.02095 27.8223 11.5741 32 17.0794 32C21.8865 32 25.9679 28.8137 27.3468 24.4304C27.5404 23.8156 27.6809 23.177 27.7621 22.5209H22.4391C22.2652 23.2187 21.9597 23.8646 21.5498 24.4304L21.5491 24.4296ZM17.673 12.2663C20.7469 12.4716 23.3968 14.2607 24.8251 16.8267C25.0937 17.3098 24.7438 17.9063 24.1923 17.9063C23.9303 17.9063 23.6902 17.7628 23.5614 17.5323C22.3816 15.4123 20.2038 13.9266 17.673 13.7249V12.2663Z"
        fill="#457AFF"
      />
    </g>
    <defs>
      <clipPath id="clip0_3_20">
        <rect width="32" height="32" fill="white" />
      </clipPath>
    </defs>
  </svg>

