<svg width="68" height="67" viewBox="0 0 68 67" fill="none" xmlns="http://www.w3.org/2000/svg">
<g id="Group 68">
<path id="Vector" d="M7.62611 56.6885L5.84311 58.4796L5.02255 57.6553L6.80555 55.8643L7.62611 56.6885ZM7.885 56.9469L6.102 58.7381L6.92255 59.5623L8.70555 57.7713L7.885 56.9469ZM8.96533 58.0287L7.18222 59.8198L8.00289 60.6442L9.786 58.853L8.96533 58.0287ZM8.26289 60.9072L9.08344 61.7316L10.8669 59.9407L10.0463 59.1162L8.26289 60.9072ZM68 2.47714C67.9977 3.67017 67.232 4.66532 66.0946 4.95339L65.7712 5.03531C65.4781 5.10965 65.2249 5.30397 65.0764 5.56827L61.2893 12.312C60.9838 12.8173 60.4463 13.1189 59.8512 13.1189C59.5917 13.1189 59.34 13.0617 59.1029 12.9492C58.7845 12.7981 58.4289 12.7183 58.0746 12.7183C57.4319 12.7183 56.8275 12.9697 56.3731 13.4262L55.4841 14.3192L26.4937 44.0643C26.1254 44.8926 26.1813 45.5579 26.6632 46.0419C27.3538 46.7358 28.5531 46.6774 30.3299 45.8635C30.4 45.833 30.4963 45.7866 30.6353 45.7167C31.2015 45.4385 31.7868 45.4502 32.2881 45.7481C32.8839 46.102 33.2781 46.8343 33.317 47.6592C33.3638 48.6497 32.9923 49.506 32.1484 50.3537C31.1621 51.3446 28.8919 52.4633 27.2474 53.1205C25.6304 53.7674 24.4333 55.1634 24.0454 56.8547C23.4594 59.4162 22.6132 61.4423 21.5302 62.8769C21.1752 63.4804 20.7431 64.0396 20.2453 64.5395C18.6661 66.126 16.5667 66.9998 14.3333 67C14.3331 67 14.3323 67 14.332 67C12.099 67.0002 10 66.1267 8.42122 64.5407L2.44933 58.5416C0.869778 56.9551 -0.0001111 54.8456 1.06429e-08 52.6019C0.000222233 50.3585 0.87 48.2493 2.44933 46.6631C2.91156 46.1987 3.42444 45.7922 3.98078 45.4487L3.95622 45.4256L4.72178 45.0395C5.31433 44.7542 5.93544 44.5395 6.56889 44.4008L10.1858 43.1534C12.6214 42.3122 14.5064 40.4448 15.3572 38.0306C16.4808 34.8395 17.9506 32.6553 19.8502 31.3536C19.8801 31.3331 19.9378 31.2884 20.0193 31.2259C23.5914 28.4938 26.0624 27.8821 27.3643 29.4075C27.5648 29.6427 27.6528 29.9381 27.6188 30.2622C27.5019 31.3777 25.8363 32.7978 24.054 34.1663C23.8998 34.2845 23.7669 34.3867 23.7064 34.4373C23.2613 34.8107 22.7911 35.6316 22.7532 36.4788C22.728 37.041 22.8921 37.5038 23.2407 37.8539C23.5463 38.161 23.9654 38.3214 24.4918 38.3332L52.1195 11.3463C52.374 11.0987 52.5641 10.7893 52.6699 10.4509L52.844 9.89405C53.0317 9.29391 53.4271 8.78406 53.9591 8.45391L54.5227 8.00824L54.0469 7.3466C53.8592 7.08565 53.9175 6.72123 54.1774 6.53272C54.4371 6.34431 54.8001 6.4028 54.9875 6.66386L55.4353 7.28666L57.1849 5.90344L56.7081 5.24068C56.5204 4.97973 56.5789 4.61531 56.8388 4.4268C57.0984 4.2384 57.4614 4.29688 57.6489 4.55794L58.0975 5.18186L59.8413 3.80322L59.3372 3.10217C59.1495 2.84122 59.208 2.47681 59.4677 2.28829C59.7278 2.09989 60.0902 2.15837 60.2779 2.41944L60.754 3.08153L62.5019 1.69964L61.9889 0.986213C61.8012 0.725262 61.8597 0.360845 62.1194 0.172331C62.379 -0.0160723 62.7421 0.042413 62.9296 0.303476L63.4146 0.977842L63.848 0.635078C64.345 0.222445 64.9337 0 65.5401 0C65.7513 0 65.9635 0.027122 66.171 0.0804731C67.2843 0.366649 68.0021 1.30732 68 2.47714ZM25.8427 46.8662C25.4449 46.4668 25.2062 45.993 25.1249 45.4688L23.9544 46.6699L20.012 42.7094L23.4727 39.3291C23.0701 39.1919 22.7151 38.9743 22.4204 38.6784C21.84 38.0952 21.5543 37.3167 21.5941 36.4265C21.6423 35.3476 22.1924 34.1885 22.9629 33.5424C23.0426 33.4757 23.1712 33.3768 23.3494 33.2399C26.1808 31.0662 26.4606 30.34 26.466 30.1464C25.6597 29.2465 23.5694 29.9763 20.7229 32.1535C20.6174 32.2341 20.5427 32.2907 20.5044 32.3168C18.8394 33.4577 17.4758 35.511 16.4517 38.4195C15.482 41.1711 13.3358 43.2985 10.5631 44.2563L6.84622 45.5336C6.32455 45.6455 5.81167 45.8174 5.32022 46.0452L5.21478 46.097C4.49011 46.4513 3.83578 46.919 3.27011 47.4874C1.91 48.8536 1.16089 50.6701 1.16078 52.602C1.16078 54.5342 1.90978 56.3508 3.27 57.7169L9.24178 63.716C10.6014 65.0816 12.4092 65.8339 14.3322 65.8339C14.3324 65.8339 14.3328 65.8339 14.3331 65.8339C16.2566 65.8335 18.0646 65.0812 19.4248 63.7149C19.8616 63.276 20.2397 62.7847 20.5483 62.2542L20.5909 62.1812L20.6183 62.1553C21.8347 60.5346 22.5379 58.2392 22.9146 56.5932C23.3878 54.5289 24.8472 52.8258 26.8182 52.0372C28.7863 51.2507 30.6409 50.2197 31.3279 49.5292C31.9405 48.9138 32.1888 48.3711 32.1579 47.7143C32.1374 47.2837 31.9568 46.9057 31.6973 46.7515C31.537 46.6562 31.358 46.6594 31.1502 46.7618C30.9917 46.8413 30.8827 46.8937 30.801 46.9291C29.9773 47.3064 27.4384 48.4693 25.8427 46.8662ZM66.8394 2.4748C66.8403 1.98236 66.5895 1.39137 65.8834 1.20989C65.4341 1.09414 64.9798 1.20832 64.5767 1.5426L54.6201 9.41445L54.5879 9.43365C54.2837 9.61614 54.0575 9.90332 53.9514 10.2428L53.7772 10.7997C53.6135 11.3226 53.3199 11.8005 52.928 12.1821L21.6647 42.7209L23.9456 45.0121L54.6589 13.4989L55.5522 12.6015C56.226 11.9249 57.1217 11.5522 58.0742 11.5522C58.5989 11.5522 59.1261 11.6707 59.5984 11.8949C59.8505 12.0147 60.155 11.9343 60.2932 11.7129L64.0653 4.99513C64.3692 4.45381 64.8877 4.05635 65.4875 3.90445L65.811 3.82253C66.5686 3.631 66.8383 2.97672 66.8394 2.4748ZM16.7884 55.5366L12.9366 51.6673L15.1481 49.4457L19 53.3149L16.7884 55.5366ZM16.7883 53.8877L17.3584 53.3149L15.148 51.0944L14.5779 51.6672L16.7883 53.8877ZM17.5373 51.2735L13.6854 47.4042L15.897 45.1827L19.7489 49.0521L17.5373 51.2735ZM17.5372 49.6247L18.1073 49.0521L15.8969 46.8314L15.3268 47.4042L17.5372 49.6247ZM20.4926 60.1842C20.5941 61.0869 19.9457 61.9044 19.047 62.0068C18.9853 62.0138 18.923 62.0173 18.8613 62.0173C18.0268 62.0171 17.3264 61.3882 17.2327 60.5546C17.1836 60.1174 17.3067 59.6869 17.5798 59.3427C17.8528 58.9985 18.2429 58.7817 18.6783 58.7323C18.7398 58.7252 18.8022 58.7217 18.8639 58.7217C19.6983 58.7217 20.3984 59.3505 20.4926 60.1842ZM19.3393 60.3153C19.3119 60.0714 19.1076 59.8876 18.8639 59.8876C18.8456 59.8876 18.8273 59.8885 18.8087 59.8906C18.6813 59.905 18.5672 59.9684 18.4874 60.0692C18.4076 60.1697 18.3716 60.2957 18.386 60.4235C18.4134 60.6675 18.6177 60.8515 18.8612 60.8515C18.8793 60.8515 18.8979 60.8506 18.9163 60.8484C19.1793 60.8185 19.3691 60.5792 19.3393 60.3153ZM17.7824 63.1217C17.884 64.0245 17.2356 64.8421 16.3368 64.9442C16.2752 64.9512 16.2129 64.9547 16.1512 64.9547C15.3167 64.9547 14.6163 64.3259 14.5227 63.4921C14.4736 63.0549 14.5967 62.6244 14.8697 62.2802C15.1428 61.936 15.5329 61.7191 15.9682 61.6697C16.0298 61.6627 16.0921 61.6592 16.1538 61.6592C16.9881 61.6592 17.6882 62.2879 17.7824 63.1217ZM16.629 63.2526C16.6016 63.0087 16.3972 62.8249 16.1537 62.8249C16.1353 62.8249 16.1171 62.8258 16.0983 62.8279C15.9711 62.8423 15.8569 62.9057 15.7771 63.0065C15.6972 63.1072 15.6612 63.2331 15.6757 63.3609C15.7031 63.605 15.9073 63.7888 16.1509 63.7888C16.1692 63.7888 16.1877 63.7879 16.2062 63.7858C16.4692 63.7559 16.6588 63.5169 16.629 63.2526Z" fill="white"/>
</g>
</svg>
