<svg width="51" height="63" viewBox="0 0 51 63" fill="none" xmlns="http://www.w3.org/2000/svg">
<g id="Group">
<path id="Vector" d="M11.5571 0.261222C8.04767 0.493435 5.73386 1.02667 5.93169 1.5427C6.18974 2.20493 11.9356 2.75536 16.2363 2.54035C19.2039 2.39414 21.6553 1.99852 22.1628 1.5771C22.7305 1.11267 21.3112 0.631043 18.6534 0.381629C17.69 0.295624 12.4173 0.201019 11.5571 0.261222ZM19.0834 0.545038C20.8382 0.734249 21.8359 1.01807 21.8359 1.33628C21.8359 1.6545 20.6833 1.93832 18.5071 2.16193C16.7524 2.33394 11.8668 2.35974 9.96581 2.19633C8.52075 2.07593 6.87786 1.81791 6.5338 1.6631C6.41338 1.6029 6.31016 1.49109 6.31016 1.41369C6.31016 1.01807 7.82403 0.699847 10.955 0.433232C11.7377 0.364428 18.2491 0.459033 19.0834 0.545038Z" fill="white"/>
<path id="Vector_2" d="M11.1502 0.562135C9.72235 0.639539 8.58695 0.768547 7.69239 0.949157C6.98706 1.09537 6.39355 1.31038 6.39355 1.41358C6.39355 1.58559 7.66658 1.84361 9.49011 2.03282C10.9438 2.18763 17.2659 2.18763 18.5905 2.03282C20.5603 1.80921 21.6613 1.55979 21.6613 1.32758C21.6613 0.734145 15.795 0.30412 11.1502 0.562135Z" fill="white"/>
<path id="Vector_3" d="M32.8284 0.639559C29.8695 0.811569 27.6589 1.25879 27.2288 1.78342C26.902 2.17045 28.3556 2.54887 31.2974 2.84128C33.3617 3.0477 37.9205 3.0477 39.8129 2.84128C42.6256 2.53167 44.0878 2.12744 43.9244 1.70602C43.8126 1.4136 42.7632 1.06958 41.4472 0.906174C39.4688 0.64816 35.0906 0.519152 32.8284 0.639559ZM40.1225 0.897574C42.2557 1.07818 43.4685 1.3878 43.4685 1.74042C43.4685 2.19625 41.4472 2.54027 37.7313 2.71228C34.5315 2.86709 30.1275 2.64347 28.347 2.23065C26.3085 1.75762 28.2954 1.06958 32.4672 0.811569C33.8778 0.725564 38.6775 0.777167 40.1225 0.897574Z" fill="white"/>
<path id="Vector_4" d="M31.64 0.992207C29.6358 1.14702 27.7349 1.54264 27.6919 1.80065C27.6575 2.05867 29.5412 2.36829 32.1991 2.5403C34.0054 2.6521 38.7879 2.6005 40.1555 2.44569C41.9274 2.25648 43.3811 1.93826 43.3811 1.74905C43.3811 1.52544 42.2629 1.24162 40.6716 1.06101C39.5706 0.940604 32.8872 0.889001 31.64 0.992207Z" fill="white"/>
<path id="Vector_5" d="M22.9528 2.24793C23.2452 2.62635 23.2538 2.66075 23.1076 2.77256C22.1786 3.452 15.5726 4.04543 11.3235 3.83042C8.61398 3.69281 6.88507 3.4434 5.50882 2.99617L5.09595 2.85856L5.31959 2.47154C5.44861 2.26513 5.52603 2.06732 5.50882 2.04152C5.41421 1.95551 4.86371 2.20492 4.60566 2.45434C4.45944 2.59195 4.31321 2.83276 4.2874 2.97037C4.21859 3.26279 4.29601 3.94222 4.42503 4.15724C4.45944 4.23464 4.56265 4.44965 4.63147 4.63886L4.76909 4.98288L4.95833 4.75067L5.14756 4.52706L5.83568 4.63886C6.21415 4.70767 6.64423 4.78507 6.79045 4.81087C7.0399 4.85388 7.09151 4.92268 7.38396 5.62792C7.55599 6.05795 7.72802 6.40196 7.77103 6.40196C7.84844 6.40196 7.96026 5.90314 7.97747 5.50751C7.98607 5.1979 8.21831 5.03449 8.40754 5.1893C8.51936 5.2839 8.53657 5.42151 8.51076 5.79133C8.49356 6.04934 8.43335 6.28156 8.38174 6.29876C8.26132 6.34176 8.26132 6.57397 8.38174 6.57397C8.43335 6.57397 8.80321 6.26436 9.19028 5.88594L9.89561 5.1893L11.9084 5.2753C13.7835 5.3527 16.5102 5.2925 18.0069 5.14629L18.5746 5.09469L18.781 5.40431C19.0046 5.73113 19.4433 6.07515 19.8132 6.21275L20.0282 6.29876L19.9938 5.61072L19.968 4.92268L20.2089 4.95708C20.4411 4.98288 20.4583 5.00869 20.5099 5.48171C20.5787 6.10955 20.6819 6.22995 20.8884 5.91174C20.9744 5.78273 21.198 5.45591 21.3873 5.1979C21.5851 4.93988 21.7485 4.71627 21.7571 4.69907C21.7657 4.68187 22.0926 4.61306 22.4883 4.54426C23.1162 4.44105 23.2108 4.44105 23.3398 4.55286C23.4946 4.69907 23.7269 4.73347 23.6409 4.59586C23.6151 4.55286 23.6925 4.27764 23.8215 3.97663C24.0882 3.33159 24.0796 2.78976 23.7699 2.35973C23.5721 2.07592 23.142 1.8437 22.8237 1.8437C22.6603 1.8437 22.6689 1.87811 22.9528 2.24793Z" fill="white"/>
<path id="Vector_6" d="M44.327 2.23924C44.327 2.25644 44.4475 2.43705 44.5851 2.63486C44.7313 2.82408 44.8431 3.03909 44.8431 3.09929C44.8431 3.50352 41.8068 4.01094 37.9619 4.25176C33.5579 4.51838 28.526 4.14855 26.6767 3.41751L26.3584 3.2885L26.5735 2.85848C26.6939 2.62627 26.7799 2.41125 26.7627 2.39405C26.6853 2.32525 25.8423 2.78968 25.6789 3.00469C25.3692 3.40031 25.3606 3.74433 25.6273 4.59578C25.7649 5.0172 25.9197 5.36982 25.98 5.36982C26.0316 5.36982 26.1348 5.29242 26.2122 5.18921C26.3326 5.0086 26.3326 5.0086 27.2702 5.15481C27.7777 5.24081 28.2422 5.35262 28.2938 5.40422C28.3454 5.45583 28.5002 5.76545 28.6292 6.10086C28.7669 6.42768 28.9131 6.7545 28.9561 6.8147C29.0077 6.87491 29.0163 6.94371 28.9905 6.97812C28.9561 7.00392 28.8185 6.7631 28.6722 6.43628C28.1992 5.36122 28.2766 5.43003 27.511 5.31822C27.1326 5.25801 26.7197 5.18921 26.5907 5.16341C26.2982 5.10321 26.238 5.26662 26.0488 6.7115C25.9714 7.32213 25.8509 8.07038 25.7907 8.37999C25.5671 9.48086 25.5585 9.58406 25.6961 9.58406C25.8079 9.58406 25.8251 9.68727 25.7821 10.2463C25.7477 10.6333 25.6789 10.9515 25.6187 11.0117C25.4209 11.158 25.2918 14.5551 25.3434 17.8233C25.4037 21.5903 25.6617 24.4285 26.2638 27.9891C26.6251 30.1478 26.6079 30.0704 26.7713 29.993C26.8487 29.9586 27.0896 29.9242 27.3132 29.9242C28.0529 29.9242 28.0529 29.907 28.8099 33.545L29.4722 36.7358L29.2743 36.9938C29.1023 37.2346 29.0937 37.2862 29.1969 37.5013C29.3346 37.7851 29.2829 37.7679 31.4247 38.0603C32.6375 38.2323 33.2311 38.2581 35.5535 38.2581C38.3576 38.2667 39.2779 38.1979 40.9294 37.8711C42.3573 37.5873 42.6841 37.4669 42.7444 37.226C42.7874 37.0712 42.7444 36.9508 42.6239 36.8218L42.4433 36.6326L42.968 33.416C43.4325 30.5951 43.5185 30.1736 43.6991 29.9672C43.9572 29.6576 44.3098 29.5802 44.6969 29.735L44.998 29.864L45.0496 29.5028C45.0754 29.3136 45.213 28.3761 45.3506 27.4301C45.8237 24.2307 46.0473 21.2463 46.0473 18.0125C46.0473 15.183 45.8065 11.3214 45.6173 11.0891C45.5313 10.9859 45.3764 9.72167 45.385 9.19704C45.4022 8.4488 44.8431 5.06881 44.7141 5.06881C44.6625 5.06881 44.37 5.10321 44.0604 5.13761L43.4841 5.20641L43.011 5.86865C42.7444 6.22987 42.4691 6.59109 42.4003 6.6771C42.3057 6.7889 42.2971 6.89211 42.3659 7.19313C42.4175 7.39954 42.4347 7.98437 42.4003 8.5434L42.3573 9.51526L42.7702 9.46366C43.0626 9.42925 43.2088 9.44646 43.2777 9.51526C43.3293 9.58406 43.3809 10.2119 43.3981 10.9773C43.4239 12.2674 43.4153 12.3276 43.226 12.5942C43.0712 12.8006 43.0282 12.9641 43.0368 13.3081C43.0626 13.9961 43.0626 13.9875 42.6411 14.6412C42.125 15.4496 42.0046 15.4582 41.3509 14.6842L40.8606 14.1079L40.9122 13.4887L40.9552 12.8695L40.6198 12.7232C40.4391 12.6372 40.2413 12.5168 40.1897 12.4566C40.1467 12.3964 40.0435 11.8374 39.9833 11.201C39.8628 10.1173 39.8628 10.0485 40.0177 9.84208C40.1553 9.65287 40.2499 9.61847 40.9638 9.56686C41.4025 9.54106 41.781 9.49806 41.7982 9.47226C41.867 9.40345 41.8756 8.01017 41.8068 7.50274C41.738 7.01252 41.738 7.01252 41.2735 6.7975C40.8348 6.59969 40.1123 5.96326 40.1123 5.78265C40.1123 5.72244 39.9317 5.71384 39.622 5.74825C38.1769 5.90305 35.2266 5.97186 33.2827 5.88585L31.2269 5.79125L30.5732 6.47069C30.2119 6.84911 29.8334 7.17593 29.7388 7.21033C29.498 7.27913 29.412 7.81236 29.4894 8.62081C29.584 9.54966 29.5238 9.49806 30.3753 9.49806C30.9344 9.49806 31.1839 9.53246 31.3301 9.64427C31.5365 9.78187 31.5365 9.79047 31.4849 10.9859C31.4247 12.319 31.3645 12.4824 30.857 12.7834L30.5646 12.9555L30.6248 13.5747L30.6764 14.2025L30.2033 14.753C29.584 15.484 29.4636 15.4926 29.0249 14.839C28.5518 14.1509 28.4744 13.9359 28.4916 13.3511C28.5088 12.9555 28.4658 12.8006 28.311 12.5856C28.1217 12.3276 28.1131 12.2674 28.1389 10.9773C28.1561 10.1775 28.2078 9.58406 28.268 9.51526C28.3196 9.44646 28.4916 9.41205 28.7066 9.42925L29.0507 9.45506L29.0163 9.02503C28.9475 8.29399 29.0077 7.18453 29.1453 6.6771C29.2141 6.40188 29.2829 6.06646 29.2915 5.92886C29.3174 5.71384 29.3518 5.67084 29.5324 5.67084C29.7302 5.67084 29.7474 5.70524 29.7732 6.16107C29.7904 6.51369 29.756 6.7201 29.6528 6.87491C29.5238 7.07272 29.5238 7.08992 29.6614 7.08992C29.7474 7.08992 30.1431 6.7717 30.556 6.37608L31.2957 5.66224L32.2419 5.73964C33.1622 5.80845 38.349 5.75684 39.5532 5.67084L40.1553 5.61924L40.3875 5.96326C40.6284 6.31588 41.1101 6.6771 41.4799 6.7889C41.652 6.84051 41.6778 6.82331 41.6262 6.7029C41.6004 6.61689 41.5487 6.33308 41.5229 6.06646C41.4885 5.67084 41.5057 5.55043 41.6176 5.45583C41.867 5.24942 42.039 5.45583 42.0992 6.00626C42.1681 6.63409 42.2799 6.7545 42.4863 6.43628C42.5723 6.29868 42.8132 5.94606 43.0282 5.66224L43.4067 5.13761L44.1378 5.0344C44.7657 4.9398 44.8775 4.9484 45.0066 5.0602C45.2044 5.23222 45.3936 5.24081 45.3248 5.06881C45.299 4.9914 45.3764 4.72478 45.4882 4.46677C45.6087 4.21736 45.7033 3.84753 45.7033 3.64972C45.7033 3.2283 45.4366 2.66927 45.1442 2.48006C44.9464 2.35105 44.327 2.17044 44.327 2.23924Z" fill="white"/>
<path id="Vector_7" d="M23.7958 5.08607C23.7958 5.5505 23.77 6.26434 23.727 6.66856C23.6754 7.23619 23.7012 7.58021 23.8044 8.12204C23.899 8.58647 23.9248 8.85308 23.8646 8.88749C23.7958 8.93909 23.9076 10.2378 23.9936 10.3496C24.0108 10.3668 24.0882 10.3324 24.1657 10.2636C24.2947 10.1604 24.3033 10.1604 24.2517 10.3324C24.1743 10.5732 24.2775 10.9602 24.4151 10.9602C24.6129 10.9602 24.6301 10.8226 24.5011 10.3926C24.4323 10.1604 24.3721 9.96255 24.3721 9.94535C24.3721 9.93675 24.4237 9.92815 24.4925 9.92815C24.6559 9.92815 24.7076 9.72173 24.6731 9.24011C24.6473 8.87889 24.6301 8.85308 24.3893 8.82728C24.071 8.79288 24.0538 8.74128 23.9248 7.73502C23.8388 7.04698 23.8474 6.82337 23.9678 6.17833C24.0538 5.75691 24.114 5.30108 24.114 5.16347C24.114 4.86246 23.942 4.25182 23.856 4.25182C23.8216 4.25182 23.7872 4.63024 23.7958 5.08607Z" fill="white"/>
<path id="Vector_8" d="M4.2522 4.80223C4.12318 5.31826 4.13178 5.61068 4.30381 6.49653C4.44144 7.23617 4.44144 7.26197 4.2608 7.93281C4.15758 8.31123 4.07157 8.71546 4.07157 8.83586C4.07157 9.01647 4.02856 9.05948 3.83933 9.08528C3.60709 9.11108 3.59848 9.13688 3.57268 9.64431L3.54688 10.1861H3.81352C4.12318 10.1861 4.14038 10.2635 3.86513 10.5474C3.60709 10.8398 3.52967 11.0462 3.65009 11.1838C3.79632 11.3644 3.98555 11.2268 3.98555 10.9344C3.98555 10.771 4.06297 10.5818 4.20059 10.4442C4.37262 10.2635 4.43283 10.0915 4.47584 9.64431C4.51885 9.12828 4.51025 9.06808 4.37262 9.06808C4.19199 9.06808 4.2178 8.73266 4.46724 7.85541C4.60486 7.33938 4.61347 7.21037 4.51025 6.45353C4.44144 5.9461 4.41563 5.38707 4.45004 5.02585C4.51885 4.33781 4.40703 4.2088 4.2522 4.80223Z" fill="white"/>
<path id="Vector_9" d="M22.2299 4.69045C22.0149 4.73345 21.8171 4.79366 21.7913 4.82806C21.7569 4.87106 21.4988 5.21508 21.2064 5.6021C20.6903 6.29874 20.6903 6.30734 20.7763 6.67716C20.8279 6.88358 20.8365 7.45121 20.8107 7.97584L20.7591 8.90469L21.1892 8.88749C21.4214 8.87029 21.645 8.89609 21.6795 8.93049C21.7225 8.96489 21.7655 9.60133 21.7741 10.3324C21.8085 11.5536 21.7913 11.6912 21.6364 11.8977C21.516 12.0697 21.4558 12.3019 21.4386 12.7835C21.4042 13.3855 21.3698 13.4716 21.0515 13.936C20.5268 14.6756 20.4924 14.6842 19.9763 14.1854C19.357 13.5748 19.271 13.3769 19.3398 12.7319L19.4 12.2073L19.0474 12.0525C18.8495 11.9665 18.6603 11.8289 18.6173 11.7515C18.5743 11.674 18.4969 11.1064 18.4367 10.5044C18.3249 9.41212 18.3249 9.40352 18.5141 9.20571C18.6861 9.0251 18.8065 8.9993 19.4258 8.96489C19.8215 8.95629 20.1656 8.91329 20.2 8.88749C20.2774 8.80149 20.2946 7.52861 20.2172 6.97818C20.1398 6.47935 20.1398 6.47935 19.7011 6.28154C19.4258 6.16113 19.099 5.92032 18.8581 5.64511L18.4625 5.21508L17.6109 5.28388C15.9164 5.43009 13.3016 5.47309 11.6242 5.37849L9.93835 5.28388L9.34484 5.89452C9.02658 6.23854 8.63091 6.56536 8.48469 6.62556L8.20084 6.74597V7.50281C8.20084 7.91563 8.22664 8.38866 8.25245 8.56067L8.30405 8.87029L9.1298 8.92189C10.2308 8.9907 10.2136 8.95629 10.1362 10.4442C10.076 11.6912 10.0502 11.7773 9.53408 12.0869C9.28463 12.2417 9.28463 12.2589 9.31044 12.8781L9.33624 13.506L8.93197 13.9962C8.38147 14.6756 8.25245 14.7358 7.95139 14.4176C7.82237 14.2714 7.59013 13.9188 7.4353 13.6264C7.17725 13.1447 7.16005 13.0587 7.21166 12.5857C7.25467 12.2245 7.24607 12.0783 7.16865 12.0783C7.11704 12.0783 7.01382 11.9407 6.94501 11.7687C6.84179 11.5278 6.82459 11.2268 6.8762 10.2464C6.91061 9.57553 6.97082 8.9821 7.01382 8.93049C7.05683 8.87029 7.22026 8.84449 7.40949 8.87029L7.72775 8.91329V7.70062C7.72775 7.02978 7.70195 6.48795 7.67614 6.48795C7.64174 6.48795 7.47831 6.14393 7.29767 5.72251C6.94501 4.86246 7.06543 4.93987 5.85262 4.75925C5.30212 4.67325 5.16449 4.67325 5.10428 4.76786C5.04407 4.86246 4.92365 5.5849 4.6398 7.56301C4.6226 7.70062 4.55378 8.07044 4.50217 8.38006C4.41616 8.79288 4.41616 8.93909 4.49357 8.96489C4.6312 9.0079 4.61399 10.1088 4.46777 10.3152C4.30434 10.556 4.26133 11.0462 4.15811 13.5404C3.97748 17.832 4.27853 22.2096 5.07848 27.1033C5.36233 28.8492 5.40534 29.004 5.54296 28.9266C5.84401 28.7718 6.43752 28.832 6.68696 29.0642C6.80739 29.176 6.91061 29.3051 6.91061 29.3395C6.91061 29.3825 7.19446 30.7843 7.54712 32.4528L8.18363 35.4974L8.0116 35.7382C7.87398 35.9274 7.85677 36.022 7.91699 36.2198C7.9944 36.4349 8.05461 36.4693 8.59651 36.5725C10.0674 36.8391 11.392 36.9509 13.551 36.9939C16.5013 37.0541 18.084 36.9165 20.2688 36.4091C20.8967 36.2628 21.0429 36.194 21.1204 36.022C21.2064 35.85 21.1892 35.7812 21.0257 35.6092L20.8279 35.4028L21.3526 32.2378C21.8773 29.0642 21.8773 29.0642 22.1439 28.8234C22.359 28.6256 22.4708 28.5826 22.7288 28.6084C22.9009 28.6342 23.0987 28.6772 23.1761 28.7116C23.3396 28.7804 23.3826 28.574 23.7266 26.1487C24.3029 22.0806 24.5008 17.7804 24.2857 13.9704C24.1739 12.0181 24.0277 10.513 23.9417 10.4012C23.8556 10.298 23.7008 9.0853 23.7094 8.59507C23.718 8.19085 23.5718 7.10719 23.3223 5.64511L23.1417 4.59584L22.8751 4.60445C22.7288 4.61304 22.4364 4.64745 22.2299 4.69045Z" fill="white"/>
<path id="Vector_10" d="M45.4293 4.81093C45.4121 4.90553 45.4293 5.09474 45.4723 5.22375C45.5153 5.35276 45.5239 5.72258 45.4981 6.0408C45.3433 7.57169 45.3433 8.01891 45.4895 8.72415C45.5841 9.20578 45.6013 9.45519 45.5411 9.4896C45.4809 9.5326 45.4809 9.74761 45.5411 10.1862C45.6529 11.0549 45.6787 11.1151 45.8421 10.9087C45.9626 10.7453 45.9712 10.7453 45.954 10.9173C45.9196 11.3989 45.9626 11.5709 46.1174 11.5451C46.298 11.5107 46.3152 11.1839 46.1604 10.8743C46.0142 10.5905 46.0228 10.5561 46.2292 10.5045C46.384 10.4615 46.4012 10.4012 46.3754 9.95402C46.3496 9.46379 46.3496 9.45519 46.0744 9.42939C45.8163 9.40359 45.7905 9.36919 45.6959 8.91336C45.5497 8.25973 45.5497 7.09866 45.6959 6.35042C45.8249 5.68818 45.7733 5.06894 45.5841 4.80233C45.4723 4.65612 45.4637 4.65612 45.4293 4.81093Z" fill="white"/>
<path id="Vector_11" d="M25.4896 5.12049C25.3434 5.46451 25.3434 6.46217 25.481 6.961C25.61 7.44263 25.6014 8.12207 25.4466 8.55209C25.3778 8.7499 25.3175 9.08532 25.3175 9.29173C25.3175 9.65295 25.3089 9.67015 25.0595 9.67015C24.7756 9.67015 24.724 9.79056 24.7412 10.4442C24.7584 10.814 24.767 10.8312 24.9993 10.8054C25.3003 10.771 25.3089 10.9688 25.0165 11.201C24.7498 11.4075 24.6982 11.9407 24.9477 11.8891C25.0423 11.8719 25.1197 11.7343 25.1713 11.4935C25.2143 11.2526 25.3175 11.0806 25.4552 10.9946C25.6358 10.8656 25.6616 10.7968 25.6616 10.2722C25.6616 9.83356 25.6272 9.67875 25.5326 9.63575C25.3606 9.57555 25.3692 9.36054 25.5756 8.7671C25.7734 8.19087 25.7906 7.54583 25.6444 6.51377C25.567 5.95474 25.567 5.73973 25.6444 5.50752C25.7132 5.33551 25.7218 5.14629 25.6788 5.02589C25.61 4.83668 25.6014 4.84528 25.4896 5.12049Z" fill="white"/>
<path id="Vector_12" d="M20.0703 5.27567C20.0703 5.49045 20.1047 5.54199 20.2508 5.54199C20.3884 5.54199 20.4228 5.49904 20.397 5.31004C20.3798 5.16399 20.311 5.0609 20.225 5.04372C20.1047 5.01795 20.0703 5.06949 20.0703 5.27567Z" fill="white"/>
<path id="Vector_13" d="M8.11426 5.45614C8.11426 5.62796 8.15724 5.71387 8.24321 5.71387C8.32917 5.71387 8.37215 5.62796 8.37215 5.45614C8.37215 5.28432 8.32917 5.19841 8.24321 5.19841C8.15724 5.19841 8.11426 5.28432 8.11426 5.45614Z" fill="white"/>
<path id="Vector_14" d="M41.7223 5.50804C41.6879 5.54241 41.6621 5.67986 41.6621 5.81732C41.6621 5.99772 41.7051 6.05786 41.834 6.05786C41.9458 6.05786 42.006 5.99772 42.006 5.90322C42.006 5.70563 41.8082 5.43073 41.7223 5.50804Z" fill="white"/>
<path id="Vector_15" d="M20.0703 5.7741C20.0703 5.86011 20.1306 6.14392 20.2081 6.40194C20.3028 6.72015 20.3545 7.32219 20.3717 8.20804C20.3803 8.93908 20.4578 9.94534 20.5439 10.4442C20.6214 10.943 20.7075 11.5106 20.7333 11.717C20.7591 11.9149 20.8194 12.1041 20.8539 12.1299C20.9572 12.1901 20.9486 11.76 20.8366 11.2096C20.785 10.9516 20.7333 9.81633 20.7161 8.68107C20.6989 6.94377 20.6644 6.53954 20.5353 6.14392C20.4319 5.8429 20.32 5.66229 20.2253 5.64509C20.122 5.62789 20.0703 5.6709 20.0703 5.7741Z" fill="white"/>
<path id="Vector_16" d="M29.3623 5.96366C29.3623 6.17844 29.3967 6.22998 29.5428 6.22998C29.6804 6.22998 29.7148 6.18703 29.689 5.99803C29.6718 5.85198 29.603 5.74889 29.517 5.73171C29.3967 5.70594 29.3623 5.75748 29.3623 5.96366Z" fill="white"/>
<path id="Vector_17" d="M8.02905 6.01496C7.83962 6.50518 7.77935 7.36523 7.8224 8.80151C7.84823 9.63576 7.83962 10.728 7.79657 11.2355C7.75352 11.7515 7.75352 12.1643 7.77935 12.1643C7.81379 12.1643 7.85684 11.9579 7.88267 11.7085C7.9085 11.4677 7.97739 11.0462 8.02905 10.7882C8.08932 10.5044 8.13237 9.61856 8.12376 8.5435C8.12376 7.33083 8.1582 6.62559 8.2357 6.32457C8.29597 6.08376 8.33041 5.86875 8.30458 5.84295C8.20987 5.74834 8.10654 5.80854 8.02905 6.01496Z" fill="white"/>
<path id="Vector_18" d="M41.6889 6.37607C41.7061 6.51368 41.7922 6.9867 41.8783 7.43393C41.9817 7.98436 42.0075 8.44879 41.9731 8.85301C41.9128 9.57545 42.2916 12.6458 42.4638 12.8178C42.5758 12.9296 42.5758 12.663 42.4638 11.9922C42.3864 11.5536 42.3347 10.4527 42.3175 9.24003C42.3002 7.60594 42.2658 7.11571 42.1366 6.67709C42.0161 6.25566 41.9472 6.14385 41.8181 6.14385C41.6717 6.14385 41.6545 6.18686 41.6889 6.37607Z" fill="white"/>
<path id="Vector_19" d="M29.2652 6.59114C29.1877 6.79755 29.1446 7.44259 29.1446 8.85307C29.136 9.93673 29.1016 11.287 29.0671 11.8374C29.0155 12.5255 29.0241 12.8523 29.0843 12.8523C29.136 12.8523 29.1963 12.6115 29.2135 12.3105C29.2393 12.018 29.3168 11.2698 29.3857 10.642C29.4546 9.94533 29.4804 9.34329 29.4374 9.09388C29.334 8.44884 29.3513 7.6146 29.489 6.96096C29.5579 6.63414 29.6182 6.35032 29.6182 6.34172C29.6182 6.32452 29.5665 6.31592 29.4976 6.31592C29.4288 6.31592 29.3254 6.44493 29.2652 6.59114Z" fill="white"/>
<path id="Vector_20" d="M7.04773 9.05104C7.03052 9.08544 6.99612 9.68747 6.98752 10.3841C6.97031 11.5796 6.97891 11.6656 7.15955 11.9064C7.31437 12.1128 7.34878 12.2676 7.33158 12.6632C7.31437 13.1879 7.41759 13.4889 7.83907 14.0995C8.18313 14.5984 8.34656 14.5812 8.82824 13.9705L9.24972 13.4545L9.18951 12.8353L9.1293 12.2074L9.44756 12.0354C9.62819 11.9408 9.81742 11.786 9.87763 11.6914C9.99805 11.5022 10.1271 9.63587 10.0497 9.30045C9.99805 9.10264 9.94645 9.08544 9.17231 9.03384C8.71642 8.99944 8.33796 8.99084 8.32936 8.99944C8.30355 9.03384 8.10572 10.9775 8.05411 11.7086C8.0197 12.2246 8.0025 12.2504 7.79606 12.2504H7.57242L7.63263 11.5366C7.66704 11.1496 7.71004 10.4185 7.74445 9.90249L7.79606 8.98223H7.4434C7.25416 8.98223 7.07353 9.01664 7.04773 9.05104ZM7.9939 12.8955C8.06271 13.2825 7.9939 13.4545 7.77026 13.4545C7.54662 13.4545 7.4778 13.2825 7.54662 12.8955C7.58962 12.6804 7.64983 12.5944 7.77026 12.5944C7.89068 12.5944 7.95089 12.6804 7.9939 12.8955Z" fill="white"/>
<path id="Vector_21" d="M7.6849 12.8693C7.57296 13.1103 7.61602 13.3684 7.771 13.3684C7.91738 13.3684 7.96904 13.1361 7.87433 12.8779L7.79683 12.637L7.6849 12.8693Z" fill="white"/>
<path id="Vector_22" d="M20.802 9.64442C20.845 10.2465 20.931 10.9259 21.06 11.9322C21.103 12.2332 21.0944 12.259 20.9138 12.2332C20.7074 12.2074 20.6213 11.8805 20.4149 10.3153C20.3719 9.93684 20.3117 9.49821 20.2859 9.3434L20.2343 9.06819H19.6924C18.9612 9.06819 18.6172 9.14559 18.5226 9.3262C18.428 9.49821 18.5656 11.3129 18.6946 11.6225C18.7376 11.7257 18.9354 11.8977 19.1333 11.9924L19.4945 12.1816L19.4429 12.775L19.3913 13.3684L19.8214 13.8673C20.4149 14.5381 20.4407 14.5467 20.7504 14.1683C21.2321 13.592 21.3869 13.162 21.3353 12.6116C21.2923 12.1902 21.3095 12.1042 21.4987 11.8891C21.6793 11.6655 21.7051 11.5537 21.7051 10.9689C21.7051 10.5991 21.6793 10.0056 21.6535 9.64442L21.5933 8.98218H21.1718H20.7418L20.802 9.64442ZM21.189 12.7664C21.3095 13.0502 21.1977 13.2824 20.9654 13.2824C20.7848 13.2824 20.6558 12.8782 20.759 12.6718C20.888 12.431 21.0686 12.474 21.189 12.7664Z" fill="white"/>
<path id="Vector_23" d="M20.8886 12.6982C20.8112 12.8957 20.8628 13.1277 21.0004 13.1792C21.1207 13.2136 21.1379 12.87 21.0176 12.681C20.9488 12.5779 20.9316 12.5779 20.8886 12.6982Z" fill="white"/>
<path id="Vector_24" d="M28.3034 9.64438C28.269 9.67018 28.2432 10.3066 28.2432 11.0463C28.2432 12.2847 28.2604 12.4051 28.4152 12.5513C28.5528 12.6804 28.5872 12.818 28.5872 13.2996C28.5872 13.7124 28.6388 13.9876 28.7507 14.2112C28.9829 14.6585 29.4302 15.2605 29.542 15.2605C29.6452 15.2605 29.9807 14.9165 30.3161 14.4607C30.5398 14.1596 30.5484 14.0994 30.5054 13.506C30.4538 12.8696 30.4538 12.8696 30.7032 12.7406C31.2623 12.4481 31.3139 12.3105 31.3741 11.0463C31.4085 10.4098 31.3999 9.84219 31.3655 9.78198C31.3225 9.73038 30.9354 9.66158 30.471 9.62718L29.6452 9.55837L29.5936 9.85079C29.5592 10.0142 29.5162 10.5216 29.4818 10.9861C29.4474 11.4505 29.3872 11.8461 29.3528 11.8719C29.3098 11.8977 29.2753 12.1471 29.2753 12.4309C29.2753 12.8868 29.2581 12.9384 29.0947 12.9384C28.9141 12.9384 28.9141 12.9212 28.9657 11.6225C29.0001 10.9086 29.0431 10.1518 29.0689 9.94539L29.1119 9.58417H28.7335C28.527 9.58417 28.3292 9.60997 28.3034 9.64438ZM29.2581 13.6866C29.2323 14.0306 29.2065 14.0994 29.0431 14.1252C28.9227 14.1424 28.8453 14.0994 28.8023 13.9704C28.7249 13.7296 28.9399 13.2824 29.1291 13.2824C29.2581 13.2824 29.284 13.3426 29.2581 13.6866Z" fill="white"/>
<path id="Vector_25" d="M28.9899 13.5487C28.8952 13.8843 28.9211 14.0564 29.0588 14.0564C29.1966 14.0564 29.2224 13.7896 29.1105 13.5057C29.0502 13.3508 29.0416 13.3508 28.9899 13.5487Z" fill="white"/>
<path id="Vector_26" d="M41.05 9.65305C39.9748 9.68745 39.9662 9.70465 40.0866 11.1409C40.1469 11.7774 40.2329 12.3192 40.2931 12.388C40.3533 12.4654 40.5425 12.5858 40.706 12.6718L41.0156 12.818L40.9898 13.4717L40.964 14.1253L41.4457 14.6499C41.7209 14.9337 41.9876 15.1746 42.0564 15.1746C42.1166 15.1746 42.3316 14.9337 42.5381 14.6327C42.8821 14.1339 42.908 14.0565 42.9338 13.4201C42.9596 12.9126 43.0112 12.6718 43.1316 12.5084C43.2864 12.3106 43.295 12.1558 43.2778 10.9603L43.252 9.62724L42.7961 9.60144L42.3489 9.57564L42.4005 10.2035C42.4263 10.5475 42.5037 11.2785 42.5725 11.8204C42.7187 13.0416 42.7273 12.9556 42.5037 12.9212C42.2886 12.8954 42.2456 12.6804 41.9704 10.6249C41.893 10.0917 41.8242 9.64444 41.8156 9.63584C41.7984 9.63584 41.4543 9.63584 41.05 9.65305ZM42.7617 13.2997C42.994 13.5319 42.7789 14.0565 42.4865 13.9447C42.3403 13.8845 42.2628 13.5147 42.3661 13.3341C42.4607 13.1706 42.6155 13.1534 42.7617 13.2997Z" fill="white"/>
<path id="Vector_27" d="M42.4682 13.3948C42.3908 13.601 42.4682 13.8416 42.6057 13.8416C42.7863 13.8416 42.8121 13.5065 42.6573 13.3691C42.5456 13.2831 42.5112 13.2917 42.4682 13.3948Z" fill="white"/>
<path id="Vector_28" d="M22.2904 28.8147C22.1613 28.8835 22.0323 29.0297 22.0065 29.1329C21.9807 29.2361 21.7313 30.6724 21.456 32.3323C20.9571 35.2995 20.9485 35.3425 21.1119 35.5231C21.2926 35.7209 21.3184 35.9187 21.1894 36.1595C21.0087 36.4949 18.4197 36.9594 15.908 37.1056C13.7146 37.2432 10.3944 37.0368 8.42467 36.6497C7.95159 36.5551 7.90858 36.5207 7.81397 36.2455C7.71935 35.9789 7.72795 35.9273 7.89138 35.7467L8.07201 35.5489L7.78816 34.1556C6.92801 29.9242 6.77318 29.2533 6.57534 29.0899C6.15387 28.7545 5.36253 28.9781 5.36253 29.4339C5.36253 29.5629 5.56036 30.6638 5.80981 31.8851L6.24849 34.104L6.05065 34.4652C5.63778 35.1877 5.88722 36.8046 6.48073 37.312C6.61835 37.4238 6.76458 37.5356 6.81619 37.5528C6.85919 37.5614 6.73017 38.344 6.52374 39.2815C6.24849 40.5458 6.11086 41.036 5.97324 41.1822C5.83561 41.3284 5.43994 42.8077 4.24433 47.6412C2.94549 52.8617 2.64444 53.9797 2.438 54.3066C1.99932 54.9946 1.90471 55.373 1.93911 56.3707L1.96492 57.2737L1.67247 57.3167C1.37141 57.3597 1.37141 57.3597 1.08756 58.3058C0.932734 58.8218 0.803711 59.3206 0.803711 59.398C0.803711 59.6303 1.44022 60.0087 1.8531 60.0173L2.19716 60.0259L2.48101 59.0368C2.78207 57.9876 2.77346 57.8758 2.4122 57.6349C2.11975 57.4457 2.19716 57.1103 2.65304 56.6287C3.22074 56.0267 3.33256 55.7514 3.32396 54.9516C3.31536 54.3496 3.39277 53.9453 3.96048 51.7694C4.41636 50.0235 4.6572 49.2323 4.76902 49.1463C4.88944 49.0517 5.28511 47.581 6.3087 43.3839C7.07423 40.2878 7.70215 37.7506 7.71075 37.742C7.71935 37.7334 8.13222 37.8022 8.63111 37.8882C10.2396 38.1548 11.1256 38.2322 13.2845 38.2838C15.6586 38.3354 17.4477 38.2322 19.5981 37.9226C20.355 37.8108 21.0689 37.699 21.1894 37.6646L21.413 37.613L22.8064 43.3151C23.8816 47.6842 24.2515 49.0517 24.3719 49.1463C24.4751 49.2237 24.6128 49.5677 24.7246 50.0493L24.9224 50.8234L25.1289 49.9633L25.3439 49.1033L24.3375 45.233C23.6322 42.5497 23.2795 41.3112 23.1591 41.1822C23.0473 41.0618 22.8839 40.4856 22.6086 39.2557C22.4022 38.2924 22.2473 37.4754 22.2646 37.441C22.2904 37.4066 22.4452 37.355 22.6086 37.3292C22.7806 37.2948 22.9613 37.1916 23.0301 37.0798C23.3139 36.6325 23.4344 35.2479 23.2451 34.577C23.1935 34.3878 23.0387 34.1298 22.9011 34.0008L22.6602 33.7772L22.9957 31.6357C23.1849 30.4574 23.3397 29.3737 23.3397 29.2189C23.3397 28.7373 22.8064 28.5309 22.2904 28.8147ZM22.8237 35.3769C22.8237 35.6177 22.6 35.7725 22.4452 35.6521C22.3506 35.5661 22.342 35.4887 22.4108 35.2995C22.4796 35.0845 22.5226 35.0587 22.6602 35.1275C22.7462 35.1791 22.8237 35.2909 22.8237 35.3769ZM6.63555 35.5575C6.73017 35.7037 6.72157 35.7295 6.57534 35.7295C6.38611 35.7295 6.27429 35.6005 6.3517 35.4715C6.42912 35.3425 6.51513 35.3683 6.63555 35.5575Z" fill="white"/>
<path id="Vector_29" d="M43.82 29.9415C43.6566 30.0791 43.5705 30.4919 43.0889 33.3301L42.5556 36.5639L42.7448 36.7961C42.9168 36.9853 42.9254 37.0541 42.8566 37.2777C42.7792 37.4841 42.6846 37.5615 42.3233 37.6648C41.6438 37.8712 39.7515 38.198 38.6505 38.3098C37.3946 38.4302 34.1089 38.4302 32.7584 38.3098C31.2961 38.1722 29.3436 37.8884 29.2232 37.7852C29.163 37.7336 29.0856 37.5787 29.0597 37.4325C29.0167 37.2347 29.0425 37.1315 29.1888 36.9767L29.3694 36.7875L28.7071 33.6139C28.0018 30.1995 27.9674 30.1049 27.4255 30.0017C27.1158 29.9501 26.6599 30.1307 26.5825 30.3457C26.5481 30.4231 26.7459 31.567 27.0126 32.8915L27.4943 35.3082L27.2878 35.6694C26.8664 36.4005 27.1244 38.0862 27.7265 38.6022C27.8641 38.714 28.019 38.8258 28.062 38.843C28.2082 38.886 27.4255 42.3434 27.219 42.5584C27.0986 42.6874 26.6255 44.4505 25.4557 49.1464C24.5783 52.6726 23.7956 55.6484 23.7182 55.7688C23.6494 55.8892 23.4687 56.2332 23.3139 56.5428C23.0645 57.0589 23.0473 57.1621 23.0645 57.8759C23.0731 58.2973 23.0903 58.7446 23.1075 58.865C23.1247 59.0542 23.0903 59.08 22.8494 59.08C22.7032 59.08 22.557 59.0972 22.5398 59.123C22.4452 59.2176 21.8861 61.1871 21.9205 61.2903C22.0323 61.5741 22.9527 62.0041 23.2107 61.9009C23.2795 61.8751 23.4085 61.5999 23.5032 61.2817C23.5978 60.9721 23.7354 60.5077 23.8042 60.2496L23.9418 59.7852L23.6408 59.5014C23.3827 59.2606 23.3483 59.1746 23.3913 58.9768C23.4257 58.8478 23.615 58.5811 23.8042 58.3919C24.3633 57.8501 24.5009 57.4889 24.5009 56.5858C24.5095 55.8978 24.5869 55.5194 25.1719 53.3004C25.5331 51.9158 25.8342 50.7719 25.8342 50.7461C25.8342 50.7289 25.8944 50.6945 25.9804 50.6773C26.0922 50.6601 26.4191 49.456 27.5545 44.8462C28.3372 41.6554 29.0253 39.0494 29.0683 39.058C31.2875 39.4537 33.2315 39.6171 35.6399 39.6085C37.8591 39.6085 39.8719 39.4537 41.79 39.1268C42.4523 39.015 43.0028 38.9376 43.0114 38.9462C43.0286 38.9548 43.6738 41.578 44.4651 44.7688C45.5317 49.1206 45.9274 50.5999 46.0478 50.6945C46.1596 50.7891 46.4263 51.6319 46.9337 53.5585C47.5531 55.872 47.6993 56.3364 47.8971 56.5428C48.0261 56.6804 48.1036 56.8266 48.0692 56.8868C48.0433 56.9385 48.0089 57.2739 48.0175 57.6437C48.0175 58.2285 48.1552 58.8736 48.4046 59.4756C48.4476 59.5788 48.4132 59.6304 48.2756 59.6648C48.0519 59.725 48.0692 59.8368 48.4562 61.1183C48.6885 61.8493 48.7487 61.9697 48.9379 62.0127C49.1788 62.0729 50.3314 61.6687 50.4002 61.4967C50.4518 61.3591 50.0217 59.467 49.9099 59.3294C49.8583 59.2606 49.7379 59.209 49.6518 59.209C49.5142 59.209 49.4884 59.1402 49.4884 58.8392C49.4884 58.3575 49.0927 57.5405 48.6455 57.1105C48.31 56.7922 48.3014 56.775 48.3444 56.2934C48.3788 55.872 48.1896 55.0463 46.6929 49.2754C45.3855 44.2355 44.9554 42.6874 44.8092 42.524C44.6629 42.3606 44.5253 41.8962 44.2501 40.5717C44.0436 39.6257 43.8974 38.8 43.9318 38.757C43.9576 38.714 44.121 38.6452 44.2845 38.6194C44.6285 38.5506 44.7748 38.3356 44.921 37.6389C45.136 36.6069 44.9554 35.4544 44.5253 35.1448L44.3017 34.9814L44.6629 32.7109C44.8608 31.4638 45.0156 30.3629 45.0156 30.2597C45.0156 29.8297 44.2157 29.6233 43.82 29.9415ZM44.4135 36.4607C44.5339 36.6069 44.4737 36.8305 44.2845 36.9079C44.0608 36.9939 43.9404 36.8047 44.0522 36.5467C44.1641 36.2973 44.2587 36.2801 44.4135 36.4607ZM27.8813 36.7703C27.9674 36.8821 27.9674 36.9251 27.8727 36.9595C27.8039 36.9853 27.7007 36.9681 27.6405 36.9337C27.5459 36.8735 27.5459 36.8391 27.6405 36.7273C27.7007 36.6499 27.7523 36.5983 27.7609 36.6069C27.7695 36.6241 27.8211 36.6929 27.8813 36.7703Z" fill="white"/>
<path id="Vector_30" d="M20.5451 37.8797C20.3559 37.9227 19.5646 38.0431 18.7818 38.1549C17.5174 38.3269 17.0099 38.3441 14.223 38.3527C11.0921 38.3527 10.5588 38.3183 8.64922 38.0001C8.20194 37.9227 7.82347 37.8883 7.78907 37.9227C7.76326 37.9485 7.9955 38.757 8.30516 39.7116C8.62342 40.6663 8.90727 41.6037 8.94167 41.7929C9.0707 42.567 9.60399 42.9884 10.8426 43.298C11.892 43.556 12.9328 43.6506 14.5413 43.6506C16.1154 43.642 17.5518 43.4356 18.756 43.0314C19.5818 42.7562 20.0721 42.2488 20.0721 41.6639C20.0721 41.4919 20.0549 41.4919 19.6248 41.7155C19.1001 41.9821 18.1367 42.352 17.9819 42.352C17.9303 42.3434 18.1711 42.2316 18.5238 42.1025C18.8765 41.9735 19.3667 41.7585 19.6162 41.6381L20.0635 41.4059L20.3645 40.4427C20.5365 39.9094 20.7774 39.0924 20.915 38.6279C21.1903 37.7077 21.2161 37.7507 20.5451 37.8797ZM9.647 41.8359C9.6728 41.8359 9.6728 41.8531 9.647 41.8789C9.60399 41.9305 8.97608 41.6897 8.97608 41.6209C8.97608 41.5951 9.1137 41.6381 9.28574 41.7069C9.45777 41.7757 9.6212 41.8359 9.647 41.8359ZM10.4383 42.1541C10.6964 42.2488 10.705 42.2574 10.49 42.223C10.3523 42.1886 10.1201 42.1111 9.97386 42.0509C9.77602 41.9563 9.75882 41.9391 9.92225 41.9821C10.0427 42.0079 10.2749 42.0853 10.4383 42.1541ZM11.0146 42.3176C10.9888 42.3434 10.9114 42.352 10.8512 42.3262C10.7824 42.3004 10.8082 42.2746 10.9028 42.2746C10.9974 42.266 11.0491 42.2918 11.0146 42.3176ZM11.3587 42.4036C11.3329 42.4294 11.2555 42.438 11.1953 42.4122C11.1265 42.3864 11.1523 42.3606 11.2469 42.3606C11.3415 42.352 11.3931 42.3778 11.3587 42.4036ZM17.8099 42.4036C17.7841 42.4294 17.7066 42.438 17.6464 42.4122C17.5776 42.3864 17.6034 42.3606 17.698 42.3606C17.7927 42.352 17.8443 42.3778 17.8099 42.4036ZM11.7544 42.4982C11.6942 42.5154 11.5909 42.5154 11.5393 42.4982C11.4791 42.4724 11.5221 42.4552 11.6426 42.4552C11.763 42.4552 11.806 42.4724 11.7544 42.4982ZM17.3196 42.524C17.1992 42.5584 17.0271 42.5928 16.9325 42.5928C16.7949 42.5928 16.8035 42.5756 16.9755 42.524C17.0959 42.4896 17.268 42.4552 17.3626 42.4552C17.5002 42.4552 17.4916 42.4724 17.3196 42.524ZM12.1845 42.5842C12.1242 42.6014 12.021 42.6014 11.9694 42.5842C11.9092 42.5584 11.9522 42.5412 12.0726 42.5412C12.1931 42.5412 12.2361 42.5584 12.1845 42.5842ZM12.8296 42.6702C12.7436 42.6874 12.5887 42.6874 12.4855 42.6702C12.3737 42.653 12.4425 42.6358 12.6317 42.6358C12.821 42.6272 12.907 42.6444 12.8296 42.6702ZM16.6142 42.6702C16.5282 42.6874 16.3906 42.6874 16.3132 42.6702C16.2272 42.6444 16.296 42.6272 16.4594 42.6272C16.6228 42.6272 16.6917 42.6444 16.6142 42.6702ZM13.6897 42.7562C13.5521 42.7734 13.3457 42.7734 13.2166 42.7562C13.079 42.739 13.1908 42.7218 13.4489 42.7218C13.7069 42.7218 13.8187 42.739 13.6897 42.7562ZM15.9261 42.7562C15.7971 42.7734 15.5649 42.7734 15.41 42.7562C15.2552 42.739 15.3584 42.7218 15.6423 42.7218C15.9261 42.7218 16.0551 42.739 15.9261 42.7562ZM14.6789 42.8422C14.6187 42.8594 14.4983 42.8594 14.4209 42.8422C14.3348 42.8164 14.3864 42.7992 14.5241 42.7992C14.6703 42.7992 14.7305 42.8164 14.6789 42.8422Z" fill="white"/>
<path id="Vector_31" d="M41.6451 39.2645C37.8862 39.9009 33.6371 39.9095 29.8954 39.2903C29.4481 39.2129 29.0696 39.1699 29.0438 39.1957C29.0266 39.2215 29.2675 40.0299 29.5857 40.9932C29.904 41.9478 30.1792 42.8509 30.1964 42.9971C30.3083 43.9517 30.8674 44.4248 32.3038 44.7516C33.9123 45.1214 36.4928 45.2246 38.0496 44.9752C39.2109 44.786 40.4065 44.4506 40.914 44.1753C41.3612 43.9345 41.6537 43.4873 41.6623 43.0573C41.6623 42.8681 41.6537 42.8681 41.086 43.1519C40.4839 43.4529 39.3571 43.8571 39.2969 43.7969C39.2711 43.7797 39.5377 43.6679 39.8818 43.5647C40.2172 43.4529 40.7591 43.2293 41.0774 43.0745C41.7139 42.7563 41.6365 42.8939 42.2558 40.847C42.7719 39.1269 42.7805 39.0839 42.6687 39.0925C42.6085 39.1011 42.1526 39.1785 41.6451 39.2645ZM30.7555 43.1605C31.3663 43.4271 32.3124 43.7109 33.2758 43.9001C33.6973 43.9861 33.9553 44.0635 33.8349 44.0635C33.2844 44.0807 31.1684 43.4873 30.4975 43.1261C30.0588 42.8939 30.1964 42.9111 30.7555 43.1605ZM39.142 43.8657C39.1162 43.8915 39.0388 43.9001 38.9786 43.8743C38.9098 43.8485 38.9356 43.8227 39.0302 43.8227C39.1248 43.8141 39.1765 43.8399 39.142 43.8657ZM38.7636 43.9603C38.7034 43.9775 38.6001 43.9775 38.5485 43.9603C38.4883 43.9345 38.5313 43.9173 38.6518 43.9173C38.7722 43.9173 38.8152 43.9345 38.7636 43.9603ZM38.3335 44.0463C38.2733 44.0635 38.1529 44.0635 38.0755 44.0463C37.9894 44.0205 38.041 44.0033 38.1787 44.0033C38.3249 44.0033 38.3851 44.0205 38.3335 44.0463ZM34.6348 44.1323C34.523 44.1495 34.351 44.1495 34.2478 44.1323C34.1359 44.1151 34.222 44.0979 34.437 44.0979C34.652 44.0979 34.7381 44.1151 34.6348 44.1323ZM37.7744 44.1323C37.6884 44.1495 37.5336 44.1495 37.4303 44.1323C37.3185 44.1151 37.3873 44.0979 37.5766 44.0979C37.7658 44.0893 37.8518 44.1065 37.7744 44.1323ZM36.6046 44.2183C36.2605 44.2355 35.7186 44.2355 35.4004 44.2183C35.0821 44.2011 35.366 44.1925 36.0283 44.1925C36.6906 44.1925 36.9487 44.2097 36.6046 44.2183Z" fill="white"/>
<path id="Vector_32" d="M14.7979 43.7883L14.3076 43.8227L14.3506 44.958C14.3678 45.5858 14.4108 46.6695 14.4366 47.3833C14.4796 48.381 14.5227 48.7508 14.6517 49.0346C14.7979 49.37 14.8065 49.4302 14.6861 49.7054C14.6259 49.8688 14.5657 50.0753 14.5657 50.1613C14.5657 50.2559 14.5055 50.3763 14.4366 50.4365C14.3248 50.5311 14.3076 50.7375 14.3248 51.5459L14.3506 52.5436L15.099 52.5694C16.0451 52.6038 16.0795 52.5608 15.9935 51.4083C15.9419 50.6171 15.9333 50.5999 15.6064 50.2731C15.4258 50.0925 15.228 49.8 15.1678 49.6194C15.0732 49.327 15.0818 49.2668 15.3484 48.7336C15.6323 48.1659 15.6409 48.1315 15.6237 47.1683C15.5806 45.0354 15.4946 43.7281 15.3914 43.7453C15.3398 43.7539 15.0732 43.7711 14.7979 43.7883ZM15.1678 44.2441C15.1678 44.3817 15.1076 44.4161 14.9097 44.4161C14.7549 44.4161 14.6517 44.3731 14.6517 44.3043C14.6517 44.1323 14.7377 44.0721 14.9699 44.0721C15.1076 44.0721 15.1678 44.1237 15.1678 44.2441Z" fill="white"/>
<path id="Vector_33" d="M35.8113 45.2762C35.7769 45.56 35.8371 48.1918 35.8887 49.155C35.9489 50.1269 36.0005 50.4795 36.1209 50.6773C36.25 50.9009 36.2586 50.9783 36.1725 51.1675C36.1123 51.2879 36.0693 51.4858 36.0693 51.6062C36.0693 51.7266 35.9919 51.933 35.8887 52.062C35.7253 52.2856 35.7167 52.3716 35.7683 53.2489L35.8285 54.1949L36.2328 54.2465C36.4478 54.2637 36.8005 54.2637 37.0155 54.2293L37.4026 54.1777L37.4284 53.1371C37.4456 52.1566 37.437 52.0878 37.2821 52.0448C37.0499 51.9846 36.5854 51.2363 36.5854 50.9181C36.5854 50.7805 36.7058 50.4623 36.8435 50.2043C37.1359 49.6883 37.1445 49.6022 37.0413 46.7985L36.9897 45.1816L36.3962 45.2074C36.0779 45.2246 35.8113 45.2504 35.8113 45.2762ZM36.6284 45.7062C36.6284 45.861 36.2586 45.9298 36.1381 45.8094C36.0005 45.6718 36.1553 45.5256 36.3962 45.5514C36.5338 45.5686 36.6284 45.6288 36.6284 45.7062Z" fill="white"/>
<path id="Vector_34" d="M25.6443 51.9072C25.4293 52.7156 25.4293 52.7156 25.5841 53.2746C25.6701 53.5843 25.782 53.9971 25.825 54.1863C25.8766 54.3841 26.0056 54.6507 26.1088 54.7797C26.2723 54.9861 26.2981 55.1323 26.3067 55.9322C26.3153 56.646 26.3583 56.947 26.5045 57.3083C26.6851 57.7641 26.6851 57.7727 26.5131 57.9103C26.3497 58.0479 26.3497 58.0565 26.6163 58.951C26.969 60.1292 26.9862 60.155 27.3302 60.155C27.6141 60.155 28.5259 59.8024 28.6119 59.6648C28.6377 59.6304 28.5517 59.1316 28.4226 58.5639C28.199 57.5749 28.1818 57.5319 27.9582 57.5061C27.7517 57.4803 27.7259 57.4459 27.7259 57.1535C27.7259 56.5944 27.4765 56.044 26.9776 55.5108L26.5131 55.0119L26.6077 54.6335C26.6851 54.3067 26.6507 54.0917 26.2809 52.6812L25.868 51.0987L25.6443 51.9072Z" fill="white"/>
</g>
</svg>
