<svg width="64" height="63" viewBox="0 0 64 63" fill="none" xmlns="http://www.w3.org/2000/svg">
<g id="Group">
<path id="Vector" d="M26.0295 0.356079C25.4792 0.690662 23.3812 2.04264 21.4551 3.30585C19.1369 4.82853 18.0432 5.52501 17.6167 5.74351C17.3759 5.87325 17.2108 5.89373 16.6674 5.90056C16.0483 5.90056 15.9933 5.91422 15.7525 6.09858C15.498 6.28976 15.1609 6.86333 15.1609 7.10914C15.1609 7.32082 14.8032 7.64857 13.8952 8.25628C12.8221 8.97324 12.7189 9.06883 12.7808 9.32147C12.8221 9.48535 12.8496 9.499 13.0835 9.46486C13.2349 9.45121 13.6682 9.23953 14.1153 8.97324C14.5418 8.72059 14.9064 8.52258 14.927 8.54306C14.9408 8.56355 14.989 9.17808 15.0234 9.90187C15.099 11.3699 15.1678 12.3941 15.3742 14.6748C15.6081 17.3992 15.67 17.6382 16.2065 18.1708C16.7087 18.6692 17.5273 19.0107 20.3545 19.8983C21.2625 20.1851 22.5488 20.5948 23.2092 20.8133L24.413 21.2093L24.3992 22.1038L24.3855 22.9983L24.64 23.0393C27.082 23.4285 28.8774 24.0567 30.487 25.0946C30.7966 25.2994 31.0717 25.4633 31.0855 25.4633C31.1061 25.4633 31.3056 25.3404 31.5257 25.1901C32.2824 24.678 33.8783 24.0772 35.543 23.688C36.6505 23.4216 36.6229 23.449 36.6229 22.5886C36.6229 22.0628 36.6298 22.0492 36.788 22.0492C37.2558 22.0492 40.9429 21.9058 42.0366 21.8375C43.7357 21.7419 44.2722 21.5917 44.8844 21.0454C45.2078 20.7518 45.4279 20.349 45.8819 19.195C46.2465 18.2459 46.4666 17.9523 46.7968 17.9523H47.01V22.2677V26.5899L46.2671 26.8426C45.8612 26.9791 45.4072 27.143 45.2559 27.2045C45.0083 27.3137 45.0014 27.3274 45.1183 27.3956C45.194 27.4366 45.6274 27.5868 46.0814 27.7234L46.9068 27.976L46.955 28.3379C46.9756 28.5428 46.9963 29.0822 47.0031 29.5397L47.01 30.3727L46.7899 30.3454C46.6661 30.3249 46.2396 30.284 45.8475 30.243C44.8638 30.1474 44.8294 30.1337 44.7813 29.8811C44.7606 29.7582 44.6643 28.8774 44.568 27.9214C44.3685 25.9071 44.2654 25.1355 44.1828 24.9716C44.1003 24.8146 43.4468 24.6234 42.3324 24.4322C41.5344 24.2957 41.163 24.2752 39.7184 24.2752C37.9987 24.2683 37.4415 24.323 36.4097 24.5824C35.4398 24.8214 33.2317 25.8183 32.757 26.2349L32.5025 26.4534L32.6057 27.102C32.8465 28.6725 33.2523 31.834 33.2179 31.8749C33.1904 31.8954 32.2824 31.9227 31.1887 31.9364C29.5515 31.9569 29.1938 31.9432 29.1112 31.8613C29.0287 31.7793 29.0425 31.4584 29.2075 29.5192C29.3107 28.2833 29.3933 26.9791 29.3864 26.6241L29.3658 25.9754L29.0493 25.7637C28.6091 25.4701 27.1508 24.8897 26.3391 24.678C23.5325 23.9542 20.9323 23.9133 17.8093 24.5415C16.9426 24.7122 16.5436 24.8487 16.4198 24.999C16.3166 25.1219 16.2822 25.4838 16.0896 28.3652C15.8351 32.1139 15.7663 33.0016 15.7181 33.0562C15.6975 33.0767 15.1334 33.0425 14.473 32.9674C13.8127 32.8923 12.5332 32.8172 11.6321 32.7899L9.99491 32.7489L10.0155 26.7879C10.0293 22.4316 10.0568 20.8065 10.1119 20.7518C10.1738 20.6904 10.3939 20.745 11.0061 20.9772C12.6226 21.5849 14.9821 22.3018 16.1033 22.5272C16.9632 22.6979 17.4585 22.7047 17.7749 22.5408C18.2427 22.3087 18.1188 21.899 17.3346 21.141C16.2822 20.1236 14.2667 18.8673 11.4807 17.5085C6.02581 14.8455 1.14183 13.4525 0.818524 14.4699C0.632795 15.0571 1.91226 16.2316 4.32674 17.6792C4.78074 17.9523 5.88824 18.56 6.78249 19.0311L8.41965 19.8778V26.2827V32.6943L8.06195 32.7285C7.86247 32.7489 7.0714 32.8309 6.31473 32.906C4.82202 33.0494 4.00343 33.1928 3.76267 33.3498C3.57694 33.4727 3.57006 33.5137 3.39809 36.4908C3.32243 37.7676 3.1367 40.7447 2.98536 43.1141C2.84091 45.4766 2.69645 47.7846 2.66893 48.2352L2.62078 49.0614L3.33618 49.2799C4.16852 49.5394 5.68187 49.8808 7.14707 50.1403C7.71801 50.2427 8.2408 50.3383 8.31647 50.352C8.45405 50.3793 8.45405 50.4271 8.43341 55.4799L8.41965 60.5806L9.14881 60.5396C9.55467 60.5191 9.88485 60.4918 9.89861 60.4781C9.90549 60.4645 9.933 58.218 9.96052 55.4731C9.98803 52.735 10.0155 50.4885 10.0224 50.4817C10.0293 50.4749 10.2082 50.4954 10.4145 50.5295C10.6209 50.5568 11.9279 50.5841 13.3243 50.5841L15.8488 50.591L15.9107 50.7412C15.9451 50.8299 16.0965 51.2806 16.2478 51.7517C17.7199 56.3676 21.4207 60.007 26.3047 61.6458C28.8774 62.5129 32.0691 62.6632 34.8688 62.0555C36.6161 61.6799 38.5834 60.8332 40.2343 59.7475C42.0091 58.5867 43.8182 56.709 44.9464 54.8654C45.7649 53.5134 46.501 51.6561 46.7761 50.2495C46.8931 49.635 46.9 49.6145 46.9481 49.874C46.9963 50.1881 47.0788 55.2819 47.0788 58.3887V60.4918H48.0418H48.998L49.0186 58.2931C49.0324 57.0777 49.0462 52.7282 49.0599 48.6176C49.0668 44.5139 49.0943 41.1203 49.1149 41.093C49.1356 41.0588 49.2319 41.0315 49.3351 41.0315C49.5208 41.0315 51.5776 40.7242 51.8871 40.656L52.0522 40.615L51.9972 36.9483C51.9697 34.9339 51.9284 32.8787 51.9009 32.3939L51.8596 31.5062L51.3093 31.3287C51.0066 31.2263 50.3806 31.0419 49.9198 30.919L49.0737 30.6937V29.6148C49.0737 28.3926 49.0255 28.4813 49.6652 28.5974C49.851 28.6315 50.4494 28.7135 50.9997 28.7749C51.5501 28.8296 52.2379 28.9183 52.5337 28.9525L53.0634 29.0276V44.7938V60.5601H54.0952H55.1271V44.8211V29.089L55.3541 29.0549C55.471 29.0344 56.1795 28.9593 56.9156 28.8842C58.594 28.7067 59.6396 28.536 60.9878 28.2014C62.171 27.9078 64.0008 27.3615 64.0008 27.3001C64.0008 27.2454 62.4806 26.8016 61.2011 26.4875C59.2956 26.0232 57.4865 25.7296 55.8562 25.6272L55.1339 25.5794L55.1133 24.8897L55.0927 24.2001H54.0952H53.0978L53.0772 24.8965L53.0565 25.5862L52.63 25.634C51.9559 25.7091 49.3282 26.0778 49.1975 26.1188C49.0805 26.1529 49.0737 25.9276 49.0737 22.0697V17.9796L50.2981 17.8908C55.0308 17.5562 57.8098 16.9349 57.8098 16.1974C57.8098 15.3985 54.8794 14.743 50.3463 14.5382C48.2895 14.4494 47.9043 14.4085 47.8561 14.2856C47.8217 14.2036 48.1106 13.193 48.3239 12.64L48.3858 12.4761L48.6953 12.756C49.053 13.0838 49.3144 13.1726 49.4658 13.0155C49.6309 12.8516 49.5277 12.6195 49.0805 12.121C48.6403 11.6431 48.6197 11.5884 48.5715 10.7281C48.544 10.3116 48.5096 10.175 48.3376 9.94284C48.2276 9.78579 48.0556 9.61508 47.9593 9.56729C47.8561 9.51949 47.4296 9.46486 46.9963 9.43755L46.2189 9.39658L43.6394 6.89747C38.7623 2.1792 38.2945 1.75586 37.8955 1.68757C37.7855 1.67392 37.758 1.70806 37.758 1.8651C37.758 2.13823 38.267 2.67766 41.1286 5.46355C42.4562 6.75408 44.059 8.31773 44.6918 8.93909L45.8475 10.0726L45.4623 10.7486C45.249 11.1241 44.6987 12.1347 44.2447 13.0019C43.7907 13.8622 43.3917 14.5928 43.3711 14.627C43.3436 14.6543 42.8002 14.7704 42.1535 14.8796C39.6703 15.3166 38.6866 15.6717 38.6866 16.1428C38.6866 16.3818 38.9893 16.6959 39.347 16.8325C39.629 16.9417 39.6496 16.9622 39.5465 17.0578C39.4502 17.1534 38.8379 17.167 33.7063 17.1875L27.9694 17.2148L26.6761 16.8051C25.9607 16.5798 24.523 16.1292 23.4843 15.8014C22.4456 15.4805 21.1593 15.0708 20.6296 14.8933L19.6666 14.5723L19.2401 12.4556C18.449 8.52258 18.0982 7.05452 17.8643 6.60386C17.8506 6.56972 18.3734 6.201 19.0268 5.77765C26.0295 1.22326 26.6486 0.799911 26.6486 0.615551C26.6486 0.506298 26.5179 0.349251 26.3391 0.24683C26.2978 0.226345 26.1602 0.274143 26.0295 0.356079ZM33.3899 35.1251C35.4467 35.4665 37.5722 36.3747 39.1888 37.5969C39.9042 38.1364 41.0804 39.3245 41.6239 40.0414C43.1166 42.0284 43.942 44.2749 44.0315 46.6306C44.1209 48.918 43.7013 50.8504 42.7039 52.776C42.0641 54.0119 41.4794 54.7903 40.4063 55.8486C39.2644 56.9821 38.494 57.5352 37.0701 58.2385C35.3091 59.1057 33.6994 59.5154 31.739 59.5837C26.5042 59.768 21.7302 56.8797 19.5703 52.2092C18.8067 50.5636 18.4697 48.7337 18.5522 46.733C18.6141 45.422 18.7517 44.6846 19.1507 43.4692C20.4714 39.502 23.9108 36.3815 28.1276 35.33C29.3589 35.0227 29.9986 34.9544 31.395 34.9886C32.1586 35.0022 33.0184 35.0637 33.3899 35.1251ZM47.01 42.9912C47.01 44.0564 46.9825 44.8621 46.9412 44.9236C46.8862 45.0055 46.8724 44.9987 46.8724 44.8689C46.8724 44.5753 46.5216 43.2438 46.2052 42.3152C46.0263 41.7963 45.9025 41.3593 45.9232 41.3388C45.9713 41.2842 46.5147 41.1817 46.7899 41.1749L47.01 41.1681V42.9912Z" fill="white"/>
<path id="Vector_2" d="M30.2123 4.80815C28.8228 5.06762 27.6533 5.78458 26.8898 6.8566C26.7247 7.08193 26.4358 7.58039 26.2569 7.95594L25.9268 8.63192L25.9336 9.79271C25.9336 10.8579 25.9543 11.0013 26.1194 11.4998C26.3601 12.2235 26.6972 12.763 27.2544 13.3365C28.4031 14.5042 29.8546 15.0845 31.4298 14.9958C32.3172 14.948 32.785 14.8183 33.638 14.4017C34.8624 13.8077 35.8117 12.7561 36.2313 11.5407C36.6096 10.4414 36.5615 9.02113 36.1075 7.90814C35.5365 6.50153 34.2089 5.3544 32.6199 4.91057C31.9595 4.71938 30.907 4.67841 30.2123 4.80815Z" fill="white"/>
</g>
</svg>
