<svg width="70" height="66" viewBox="0 0 70 66" fill="none" xmlns="http://www.w3.org/2000/svg">
<g id="Group 62">
<path id="Vector" d="M17.2828 63.541C15.1012 63.3866 13.1197 62.4832 11.5524 60.9281L4.90223 54.33C2.70388 52.1489 1.79118 49.0486 2.46069 46.0365C3.13021 43.0243 5.27259 40.5924 8.19151 39.5309L13.1615 37.7237C13.2 37.7096 13.2377 37.6933 13.2743 37.6749C14.5239 37.042 15.7221 36.2807 16.8358 35.4116C17.279 35.0657 17.3558 34.4287 17.0071 33.9888C16.6584 33.5491 16.0164 33.473 15.573 33.8188C14.5796 34.5941 13.5122 35.2747 12.3999 35.8423L7.48851 37.6283C3.91164 38.929 1.28643 41.9091 0.466045 45.6002C-0.354336 49.2911 0.764105 53.0902 3.45795 55.7631L10.1081 62.3612C12.0279 64.2659 14.4587 65.3727 17.1374 65.5624C17.1622 65.5641 17.1867 65.565 17.2112 65.565C17.7421 65.565 18.1904 65.1574 18.2288 64.6238C18.2691 64.0655 17.8455 63.5808 17.2828 63.541Z" fill="white"/>
<path id="Vector_2" d="M69.5219 0.692042C69.2723 0.500208 68.9473 0.433471 68.6413 0.511961L61.4847 2.34424C60.9386 2.48393 60.6102 3.0366 60.7511 3.57847C60.8921 4.12046 61.4496 4.44645 61.9951 4.30635L67.8753 2.80086V6.02678L56.0604 13.9977L52.9445 11.1851V6.62376L57.6379 5.42196C58.184 5.28214 58.5124 4.7296 58.3715 4.18774C58.2306 3.64588 57.6735 3.3203 57.1275 3.45985L51.6681 4.85781C51.2171 4.97318 50.902 5.37684 50.902 5.83886V11.105L33.195 28.673L32.2982 27.7833C31.0589 26.5537 31.0589 24.5528 32.2982 23.323L34.2831 21.3539C35.0538 20.5893 35.4783 19.5725 35.4783 18.4912C35.4783 17.41 35.0538 16.3932 34.2831 15.6285C32.692 14.05 30.1033 14.05 28.5122 15.6285C26.8218 17.3057 25.3877 19.2136 24.2495 21.2996L20.7308 27.7494C20.1599 28.7958 19.4844 29.8004 18.7231 30.7351C18.3685 31.1704 18.4369 31.8083 18.8756 32.16C19.0646 32.3115 19.2914 32.3852 19.5168 32.3852C19.8146 32.3852 20.1099 32.2565 20.3117 32.0088C21.1514 30.9779 21.8968 29.8693 22.5271 28.7141L26.0458 22.2643C27.0899 20.3506 28.4057 18.6 29.9565 17.0614C30.7511 16.2727 32.0443 16.2727 32.8389 17.0614C33.2239 17.4433 33.4359 17.9511 33.4359 18.4912C33.4359 19.0314 33.2239 19.5392 32.8389 19.921L30.8541 21.8902C28.8185 23.91 28.8185 27.1965 30.8541 29.2162L31.7509 30.106L27.0768 34.7434L26.3028 33.9755C25.904 33.5799 25.2574 33.5799 24.8587 33.9755L19.1256 39.6636C18.7267 40.0595 18.7267 40.7009 19.1256 41.0966L26.0053 47.9223C26.2047 48.1201 26.4661 48.219 26.7274 48.219C26.9887 48.219 27.2501 48.1201 27.4495 47.9223L33.1826 42.2342C33.5814 41.8384 33.5814 41.1969 33.1826 40.8013L32.4087 40.0334L33.0952 39.3522C33.2885 39.6224 33.5046 39.8775 33.7436 40.1147C35.3826 41.7407 37.8462 42.2754 40.0202 41.4767L43.4166 40.2287C43.758 40.1035 44.1448 40.1874 44.402 40.4424C44.7303 40.7683 44.6869 41.1517 44.653 41.3014C44.6191 41.4511 44.4931 41.8161 44.056 41.9713L36.5703 44.6286C33.2166 45.8192 30.4779 48.2081 28.8585 51.3555C28.8409 51.3897 28.8253 51.4248 28.8118 51.4606L26.4462 57.7249C25.5575 60.0784 23.7908 61.9027 21.4714 62.8615C20.9507 63.0767 20.7046 63.6699 20.9216 64.1865C21.085 64.5757 21.4646 64.8102 21.8646 64.8102C21.9955 64.8102 22.1286 64.7849 22.257 64.732C25.103 63.5554 27.27 61.3194 28.3589 58.4359L30.7036 52.2267C32.0887 49.5656 34.4145 47.5461 37.2585 46.5365L44.7442 43.8792C45.7103 43.5362 46.4212 42.7385 46.646 41.7453C46.8708 40.7521 46.5719 39.7294 45.8463 39.0095C45.0265 38.1961 43.7943 37.9287 42.7072 38.3284L39.3108 39.5764C37.8829 40.1013 36.2645 39.75 35.1879 38.6816C34.9465 38.4421 34.7407 38.1757 34.5715 37.8874L56.4618 16.1688C56.4891 16.1538 69.4707 7.40082 69.4707 7.40082C69.7504 7.21223 69.9177 6.89841 69.9177 6.56297V1.49288C69.9177 1.1796 69.7715 0.883875 69.5219 0.692042ZM26.7273 45.7731L21.2916 40.3802L25.5806 36.1248L31.0163 41.5178L26.7273 45.7731ZM30.9644 38.6006L28.5209 36.1763L29.7174 34.9892L32.1608 37.4135L30.9644 38.6006ZM33.6051 35.9805L31.1617 33.5563L32.2914 32.4354L34.7349 34.8597L33.6051 35.9805ZM36.1791 33.4267L33.7357 31.0025L34.773 29.9733L37.2164 32.3976L36.1791 33.4267ZM38.6606 30.9648L36.2171 28.5405L37.2544 27.5114L39.6979 29.9356L38.6606 30.9648ZM41.1421 28.5027L38.6987 26.0784L39.736 25.0493L42.1794 27.4735L41.1421 28.5027ZM43.6237 26.0406L41.1803 23.6163L42.2176 22.5872L44.661 25.0114L43.6237 26.0406ZM46.1051 23.5785L43.6617 21.1544L44.699 20.1252L47.1424 22.5495L46.1051 23.5785ZM48.5867 21.1165L46.1433 18.6923L47.1806 17.6631L49.624 20.0874L48.5867 21.1165ZM51.0681 18.6544L48.6247 16.2302L49.662 15.201L52.1054 17.6253L51.0681 18.6544ZM53.5497 16.1925L51.1063 13.7682L51.8993 12.9814L54.4582 15.2911L53.5497 16.1925Z" fill="white"/>
<path id="Vector_3" d="M56.0587 7.67856L56.0501 7.66924C55.6694 7.25666 55.0277 7.23288 54.6115 7.61074C54.1956 7.9886 54.1713 8.63408 54.5522 9.04693C54.7536 9.26524 55.0292 9.37602 55.3057 9.37602C55.552 9.37602 55.799 9.28821 55.9951 9.11015C56.4111 8.73229 56.4397 8.09141 56.0587 7.67856Z" fill="white"/>
<path id="Vector_4" d="M59.4143 6.76885L59.4058 6.75966C59.0221 6.34979 58.3803 6.3306 57.9668 6.7113C57.5533 7.09213 57.5337 7.73788 57.9175 8.14789C58.1188 8.36283 58.392 8.47158 58.6661 8.47158C58.9148 8.47158 59.1642 8.38201 59.3608 8.20085C59.7741 7.82015 59.7981 7.179 59.4143 6.76885Z" fill="white"/>
<path id="Vector_5" d="M62.7773 5.8704L62.7687 5.86108C62.388 5.4485 61.7464 5.42486 61.3303 5.80258C60.9143 6.18044 60.8901 6.82592 61.2709 7.23877C61.4723 7.45708 61.7479 7.56786 62.0245 7.56786C62.2706 7.56786 62.5178 7.47991 62.7137 7.30199C63.1297 6.92414 63.1583 6.28325 62.7773 5.8704Z" fill="white"/>
<path id="Vector_6" d="M66.1329 4.96094L66.1243 4.95175C65.7406 4.54187 65.0987 4.52283 64.6853 4.90339C64.2721 5.28408 64.2525 5.92997 64.6362 6.33998C64.8374 6.55491 65.1107 6.66366 65.3848 6.66366C65.6333 6.66366 65.8827 6.5741 66.0794 6.39294C66.4926 6.01224 66.5166 5.37108 66.1329 4.96094Z" fill="white"/>
<path id="Vector_7" d="M13.3032 39.3586C11.8432 39.3586 10.6553 40.5372 10.6553 41.9858C10.6553 43.4344 11.8432 44.6129 13.3032 44.6129C14.7633 44.6129 15.9512 43.4344 15.9512 41.9858C15.9512 40.5371 14.7633 39.3586 13.3032 39.3586ZM13.3032 42.5864C12.9694 42.5864 12.6977 42.3171 12.6977 41.9858C12.6977 41.6546 12.9694 41.3851 13.3032 41.3851C13.6371 41.3851 13.9087 41.6546 13.9087 41.9858C13.9087 42.3171 13.6372 42.5864 13.3032 42.5864Z" fill="white"/>
<path id="Vector_8" d="M7.94581 42.6963C6.48574 42.6963 5.29785 43.8748 5.29785 45.3233C5.29785 46.7721 6.48574 47.9505 7.94581 47.9505C9.40588 47.9505 10.5938 46.7721 10.5938 45.3233C10.5938 43.8747 9.40588 42.6963 7.94581 42.6963ZM7.94581 45.9241C7.61194 45.9241 7.34029 45.6546 7.34029 45.3233C7.34029 44.9921 7.61194 44.7227 7.94581 44.7227C8.27968 44.7227 8.55133 44.9921 8.55133 45.3233C8.55133 45.6546 8.27968 45.9241 7.94581 45.9241Z" fill="white"/>
<path id="Vector_9" d="M12.4685 45.9202C11.9045 45.9202 11.4473 46.3804 11.4473 46.9401C11.4473 47.4998 11.9045 47.9533 12.4685 47.9533C13.0325 47.9533 13.4897 47.4998 13.4897 46.9401V46.9266C13.4897 46.3671 13.0325 45.9202 12.4685 45.9202Z" fill="white"/>
<path id="Vector_10" d="M6.73623 48.9004C6.7346 48.9004 6.73283 48.9004 6.73119 48.9004C6.16952 48.9004 5.71283 49.3575 5.70997 49.9154C5.70725 50.475 6.16217 50.9309 6.72616 50.9336C6.72793 50.9336 6.72956 50.9336 6.73133 50.9336C7.293 50.9336 7.74969 50.4832 7.75242 49.9253V49.9118C7.75514 49.3521 7.30022 48.9031 6.73623 48.9004Z" fill="white"/>
<path id="Vector_11" d="M19.8725 50.3494L16.4845 46.9878C16.0858 46.5923 15.4391 46.5923 15.0403 46.9878C14.6415 47.3837 14.6415 48.0251 15.0403 48.4208L18.4283 51.7823C18.6277 51.9801 18.8891 52.079 19.1504 52.079C19.4117 52.079 19.6731 51.9801 19.8725 51.7823C20.2713 51.3865 20.2713 50.7451 19.8725 50.3494Z" fill="white"/>
<path id="Vector_12" d="M22.2749 47.9651L18.8869 44.6036C18.4882 44.208 17.8416 44.208 17.4428 44.6036C17.0438 44.9994 17.0438 45.6408 17.4428 46.0365L20.8308 49.398C21.0301 49.5958 21.2916 49.6947 21.5528 49.6947C21.8141 49.6947 22.0756 49.5958 22.2749 49.398C22.6737 49.0022 22.6737 48.3608 22.2749 47.9651Z" fill="white"/>
<path id="Vector_13" d="M26.0717 51.7337C25.6981 51.3143 25.0527 51.2752 24.6303 51.6457L18.0184 57.446L17.3271 56.7601L17.7301 56.3602C17.9308 56.161 18.039 55.888 18.0286 55.6065C18.0181 55.3251 17.8901 55.0606 17.6753 54.8766L11.5933 49.6698C11.1882 49.3232 10.5824 49.3455 10.204 49.7204L8.37044 51.5395C8.17886 51.7296 8.07129 51.9872 8.07129 52.2561C8.07129 52.5249 8.17886 52.7824 8.37044 52.9726L14.0355 58.5931C14.2348 58.7909 14.4963 58.8897 14.7576 58.8897C15.0189 58.8897 15.2803 58.7909 15.4796 58.5931L15.8828 58.1932L17.2532 59.5528C17.452 59.75 17.7134 59.8495 17.9755 59.8495C18.2165 59.8495 18.4581 59.7652 18.6517 59.5953L25.9831 53.1642C26.4056 52.7932 26.4454 52.153 26.0717 51.7337ZM14.7576 56.4437L10.5368 52.2559L10.9773 51.8189L15.5086 55.6984L14.7576 56.4437Z" fill="white"/>
</g>
</svg>
