<svg width="62" height="62" viewBox="0 0 62 62" fill="none" xmlns="http://www.w3.org/2000/svg">
<g id="Group 65">
<path id="Vector" d="M19.4497 36.7403C16.834 36.7397 14.5821 38.553 14.0709 41.0714C13.5603 43.5898 14.933 46.1113 17.3495 47.0945C19.7665 48.0771 22.554 47.2476 24.0072 45.1125C25.461 42.978 25.1752 40.1325 23.3254 38.3167C22.2999 37.3042 20.9047 36.7367 19.4497 36.7403Z" fill="white"/>
<path id="Vector_2" d="M58.2718 9.21159L60.0375 7.4784L54.7428 2.28125L52.977 4.01443L54.7428 5.74642L52.9783 7.4784L51.2125 5.74642L49.448 7.4784L51.2138 9.21039L49.4492 10.9418L47.6835 9.21039L46.27 10.5979C46.1451 12.959 45.1306 15.1898 43.4221 16.8566L28.2715 31.7286L30.0372 33.4618L36.5993 27.0201L37.0922 26.5368L45.1854 18.5934C46.8835 16.917 49.1568 15.9206 51.5623 15.7986L52.9758 14.4105L51.2138 12.6738L52.9783 10.9418L54.7428 12.675L56.5073 10.943L54.7428 9.21039L56.5073 7.4784L58.2718 9.21159Z" fill="white"/>
<path id="Vector_3" d="M38.4134 32.8899C37.3679 32.6794 36.4771 32.0138 35.9927 31.0808L30.9198 36.0596C30.4329 36.5375 29.6427 36.5375 29.1559 36.0596L25.6256 32.5945C25.1382 32.116 25.1382 31.3409 25.6256 30.8625L32.2602 24.3538L32.1444 23.3359C31.8209 20.4921 29.4111 18.3176 26.4975 18.2392C23.5833 18.1615 21.0565 20.2038 20.5758 23.0261C20.0256 26.2915 17.6768 28.9888 14.4762 30.0306L6.9752 32.4802C3.40597 33.6357 0.816479 36.6828 0.298582 40.3364C-0.136453 43.368 0.901171 46.4246 3.10071 48.5944L12.8555 58.1688C15.066 60.3284 18.1795 61.3463 21.268 60.9199C24.9913 60.4109 28.0957 57.8674 29.2716 54.3621L31.6576 47.3331C32.8006 43.9893 35.4736 41.3656 38.8801 40.2437C40.5508 39.6959 41.6372 38.114 41.5275 36.3886C41.4185 34.6632 40.1402 33.226 38.4134 32.8857V32.8899ZM13.2722 55.1127L6.21419 48.1853L7.97748 46.4534L15.0361 53.3825L13.2722 55.1127ZM25.09 47.6584C22.3988 50.2989 18.1825 50.7062 15.0191 48.6309C11.8556 46.5556 10.6261 42.5755 12.0823 39.1253C13.5385 35.6745 17.2753 33.714 21.0072 34.4431C24.7391 35.1715 27.4273 38.3861 27.4273 42.121C27.4334 44.1993 26.5913 46.1932 25.09 47.6584Z" fill="white"/>
<path id="Vector_4" d="M58.2715 12.6749L60.0366 10.9429L61.8011 12.6755L60.036 14.4068L58.2715 12.6749Z" fill="white"/>
<path id="Vector_5" d="M54.7441 16.139L56.5093 14.407L58.2738 16.139L56.5086 17.871L54.7441 16.139Z" fill="white"/>
<path id="Vector_6" d="M44.1562 5.74626L45.9208 4.01367L47.6859 5.74566L45.9214 7.47824L44.1562 5.74626Z" fill="white"/>
<path id="Vector_7" d="M47.6846 2.28301L49.4491 0.551025L51.2136 2.28241L49.4491 4.015L47.6846 2.28301Z" fill="white"/>
</g>
</svg>
