<svg width="43" height="63" viewBox="0 0 43 63" fill="none" xmlns="http://www.w3.org/2000/svg">
<g id="Group">
<path id="Vector" fill-rule="evenodd" clip-rule="evenodd" d="M12.0274 31.0447L11.9498 32.9154C11.9271 33.4612 12.1481 33.9917 12.5624 34.3855C12.976 34.7787 13.5469 35.0011 14.1442 35.0011H22.3847C22.982 35.0011 23.5529 34.7787 23.9672 34.3855C24.3808 33.9917 24.6018 33.4612 24.5791 32.9154L24.5015 31.0447C26.9039 32.4934 28.4512 34.8088 28.4512 37.5965C28.4512 38.5067 28.2858 39.3848 27.9806 40.2099C27.3379 41.9661 27.6578 43.9084 28.8355 45.398C30.4158 47.4141 31.5387 49.846 31.5387 51.7696C31.5387 58.385 25.5907 62.4198 18.2645 62.4198C10.9382 62.4198 4.99023 58.385 4.99023 51.7696C4.99023 49.846 6.11307 47.4141 7.70583 45.4067C8.88649 43.9138 9.2071 41.9661 8.56296 40.2052C8.24309 39.3848 8.07767 38.5067 8.07767 37.5965C8.07767 34.8088 9.62505 32.4934 12.0274 31.0447ZM23.4826 51.0664C23.4826 50.5118 22.9915 50.0617 22.3847 50.0617H14.1442C13.5381 50.0617 13.0463 50.5118 13.0463 51.0664V53.4863C13.0463 54.781 14.1933 55.8305 15.6081 55.8305H20.9208C22.3356 55.8305 23.4826 54.781 23.4826 53.4863V51.0664ZM21.2867 52.071V53.4863C21.2867 53.6718 21.1228 53.8212 20.9208 53.8212H15.6081C15.4061 53.8212 15.2422 53.6718 15.2422 53.4869C15.2422 53.4863 15.2422 52.071 15.2422 52.071H21.2867ZM18.2645 37.3714C15.3842 37.3714 13.0463 39.5107 13.0463 42.1463C13.0463 44.7818 15.3842 46.9211 18.2645 46.9211C21.1447 46.9211 23.4826 44.7818 23.4826 42.1463C23.4826 39.5107 21.1447 37.3714 18.2645 37.3714ZM18.2645 39.3807C19.9326 39.3807 21.2867 40.6198 21.2867 42.1463C21.2867 43.6727 19.9326 44.9118 18.2645 44.9118C16.5963 44.9118 15.2422 43.6727 15.2422 42.1463C15.2422 40.6198 16.5963 39.3807 18.2645 39.3807Z" fill="white"/>
<path id="Vector_2" fill-rule="evenodd" clip-rule="evenodd" d="M13.9008 9.98485C13.8752 9.89041 13.8554 9.79262 13.8422 9.69349C13.6307 8.08737 13.3379 5.86169 13.1374 4.34062C13.0012 3.30515 13.5312 2.29311 14.4783 1.78073C14.5003 1.76867 14.5222 1.75662 14.5442 1.74456C16.9187 0.459257 19.8275 0.487387 22.1742 1.81891L22.1764 1.82025C23.0409 2.31052 23.5196 3.24821 23.3937 4.20466C23.1931 5.72707 22.8886 8.03847 22.6705 9.69349C22.658 9.78994 22.639 9.88505 22.6141 9.97681C22.2869 9.79999 21.9056 9.69885 21.4993 9.69885H15.0302C14.6181 9.69885 14.2309 9.80334 13.9008 9.98485Z" fill="white"/>
<path id="Vector_3" fill-rule="evenodd" clip-rule="evenodd" d="M5.73606 19.8304H4.09499C3.06292 19.8304 2.07257 20.2055 1.3428 20.8733C0.613027 21.541 0.203125 22.4472 0.203125 23.3916V24.5584C0.203125 25.1799 0.47249 25.7767 0.953392 26.2161C1.43356 26.6555 2.08501 26.9026 2.76501 26.9026C3.15881 26.9026 3.59872 26.9026 4.03936 26.9026C5.07217 26.9026 6.06179 26.5275 6.79156 25.8598C7.50742 25.2047 7.91586 24.3206 7.93123 23.3957C7.93196 23.3863 7.93196 23.3762 7.93196 23.3662V17.1727L9.39443 18.511C9.82263 18.9028 10.5187 18.9028 10.9469 18.511C11.3751 18.1191 11.3751 17.4822 10.9469 17.0904L7.61063 14.0368C7.29662 13.7495 6.82376 13.6638 6.41386 13.8192C6.00323 13.9745 5.73606 14.3409 5.73606 14.7475V19.8304Z" fill="white"/>
<path id="Vector_4" fill-rule="evenodd" clip-rule="evenodd" d="M37.071 36.8792H35.43C34.3979 36.8792 33.4083 37.2543 32.6778 37.9221C31.948 38.5899 31.5381 39.4961 31.5381 40.4405V41.6072C31.5381 42.2288 31.8082 42.8249 32.2884 43.2649C32.7685 43.7043 33.4207 43.9514 34.1 43.9514C34.4945 43.9514 34.9344 43.9514 35.3751 43.9514C36.4071 43.9514 37.3975 43.5764 38.1272 42.9079C38.8431 42.2529 39.2508 41.3694 39.2669 40.4445C39.2669 40.4344 39.2669 40.4251 39.2669 40.415V34.2216L40.7294 35.5598C41.1576 35.9516 41.8537 35.9516 42.2819 35.5598C42.7108 35.1673 42.7108 34.531 42.2819 34.1385L38.9456 31.0857C38.6316 30.7983 38.1595 30.7126 37.7488 30.868C37.3389 31.0234 37.071 31.3897 37.071 31.7963V36.8792Z" fill="white"/>
<path id="Vector_5" fill-rule="evenodd" clip-rule="evenodd" d="M21.6655 15.6887L21.4993 11.7083H15.0302L14.1445 32.9918H22.385L22.2203 29.0341C22.2064 29.0341 22.1925 29.0348 22.1786 29.0348H18.7442C18.1381 29.0348 17.6463 28.5847 17.6463 28.0301C17.6463 27.4755 18.1381 27.0254 18.7442 27.0254H22.1369L21.9788 23.2217C21.8177 23.3068 21.6318 23.355 21.4327 23.355H18.7442C18.1381 23.355 17.6463 22.9049 17.6463 22.3504C17.6463 21.7958 18.1381 21.3457 18.7442 21.3457H21.4327C21.6018 21.3457 21.7614 21.3805 21.9048 21.4428L21.746 17.6338C21.6472 17.6606 21.5418 17.6753 21.4327 17.6753H18.7442C18.1381 17.6753 17.6463 17.2252 17.6463 16.6706C17.6463 16.1161 18.1381 15.666 18.7442 15.666H21.4327C21.5125 15.666 21.5901 15.6733 21.6655 15.6887Z" fill="white"/>
</g>
</svg>
