<svg width="104" height="60" viewBox="0 0 104 60" fill="none" xmlns="http://www.w3.org/2000/svg">
<path d="M22.9104 31.7096C21.9275 33.0601 20.3321 33.9389 18.5361 33.9389C16.74 33.9389 15.1574 33.067 14.1733 31.7274C14.0138 31.5094 13.8694 31.2794 13.743 31.0389C13.5934 30.7525 13.4681 30.4511 13.3707 30.1377C13.2988 29.9053 13.2419 29.6666 13.2019 29.4222C13.1816 29.3002 13.1654 29.1766 13.1538 29.0518H11.2905C11.3073 29.302 11.338 29.5487 11.3798 29.7914C11.566 30.8578 11.9858 31.8436 12.5855 32.6966C13.9001 34.567 16.0783 35.7921 18.5366 35.7921C21.26 35.7921 23.6388 34.2886 24.881 32.0702C25.0063 31.8476 25.2417 31.7096 25.4969 31.7096C25.9092 31.7096 26.205 32.0472 26.205 32.4165C26.205 32.5321 26.176 32.65 26.1134 32.7621C24.627 35.409 21.7877 37.2029 18.5366 37.2029C15.2856 37.2029 12.3993 35.3797 10.9228 32.6966C10.7193 32.3262 10.5418 31.9391 10.3933 31.5382C10.1869 30.9809 10.0361 30.3965 9.94797 29.7914C9.94217 29.7523 9.93695 29.7132 9.93231 29.6747C9.92883 29.6499 9.92535 29.6252 9.92303 29.6016C9.91491 29.5407 9.90795 29.4797 9.90273 29.4187C9.8691 29.0616 9.8633 28.7573 9.85808 28.5445C9.8517 28.2983 9.8546 28.0913 9.85808 27.9383V17.0523C9.85808 16.7331 10.0941 16.4535 10.4131 16.4236C10.7778 16.3891 11.0869 16.6767 11.0869 17.0344V27.0192H12.9444V13.8389C12.9444 13.4823 13.2524 13.1947 13.6177 13.2286C13.9361 13.258 14.1733 13.5375 14.1733 13.8567V25.3621C14.6604 24.6984 15.296 24.1503 16.0314 23.7661V10.4667C16.0314 10.1095 16.3393 9.82197 16.7041 9.85648C17.023 9.88581 17.2602 10.1653 17.2602 10.4845V23.3025C17.6691 23.203 18.0965 23.1507 18.5361 23.1507C18.7321 23.1507 18.9264 23.161 19.1177 23.1811C20.6742 23.3485 22.0353 24.1773 22.9104 25.3788C23.3106 25.927 23.6104 26.5539 23.7803 27.232H28.9892C28.9097 26.5953 28.7723 25.9758 28.5827 25.3788C27.2889 21.301 23.5657 18.2917 19.1171 18.049V10.5076C19.1171 9.15651 18.0454 8.02517 16.6919 8.00044C15.3076 7.97456 14.1727 9.09036 14.1727 10.4661V11.4491C13.968 11.3962 13.7528 11.3697 13.5307 11.3714C12.1697 11.387 11.0864 12.52 11.0864 13.878V14.6441C10.8811 14.5912 10.6659 14.5641 10.4438 14.567C9.08272 14.582 8 15.715 8 17.073V28.5439C8 28.9661 8.02494 29.3825 8.07423 29.7909C8.69359 35.0012 13.1486 39.0555 18.5355 39.0555C23.2392 39.0555 27.2332 35.9634 28.5827 31.709C28.7717 31.112 28.9097 30.4926 28.9892 29.8559H23.7803C23.6104 30.5334 23.3112 31.1603 22.9104 31.709V31.7096ZM19.1177 19.9056C22.1258 20.1052 24.7186 21.841 26.1163 24.3315C26.379 24.8002 26.0368 25.3794 25.4969 25.3794C25.2406 25.3794 25.0057 25.2402 24.8799 25.0165C23.7252 22.9591 21.5946 21.5172 19.1177 21.3217V19.9062V19.9056Z" fill="#0049FF"/>
<path d="M41.0059 19.9707C36.2644 19.9707 32.4067 23.8197 32.4067 28.5503C32.4067 33.281 36.2644 37.13 41.0059 37.13C45.7473 37.13 49.605 33.281 49.605 28.5503C49.605 23.8197 45.7473 19.9707 41.0059 19.9707ZM41.0059 36.128C36.8176 36.128 33.4106 32.7289 33.4106 28.5503C33.4106 24.3718 36.8176 20.9726 41.0059 20.9726C45.1941 20.9726 48.6011 24.3718 48.6011 28.5503C48.6011 32.7289 45.1941 36.128 41.0059 36.128Z" fill="#0049FF"/>
<path d="M41.0058 18.0439C35.1991 18.0439 30.4756 22.7568 30.4756 28.5498C30.4756 34.3428 35.1996 39.0556 41.0058 39.0556C46.812 39.0556 51.5361 34.3428 51.5361 28.5498C51.5361 22.7568 46.812 18.0439 41.0058 18.0439ZM41.0058 38.0548C35.7529 38.0548 31.4794 33.7912 31.4794 28.5504C31.4794 23.3095 35.7529 19.0459 41.0058 19.0459C46.2588 19.0459 50.5323 23.3095 50.5323 28.5504C50.5323 33.7912 46.2588 38.0548 41.0058 38.0548Z" fill="#0049FF"/>
<path d="M41.006 21.9922C37.382 21.9922 34.4331 24.9335 34.4331 28.5496C34.4331 32.1656 37.3814 35.1069 41.006 35.1069C44.6305 35.1069 47.5788 32.1656 47.5788 28.5496C47.5788 24.9335 44.6305 21.9922 41.006 21.9922ZM41.006 34.1056C37.9353 34.1056 35.437 31.6134 35.437 28.5496C35.437 25.4857 37.9353 22.9935 41.006 22.9935C44.0767 22.9935 46.575 25.4857 46.575 28.5496C46.575 31.6134 44.0767 34.1056 41.006 34.1056Z" fill="#0049FF"/>
<path d="M41.0059 23.938C38.4571 23.938 36.3833 26.0068 36.3833 28.5496C36.3833 31.0924 38.4571 33.1612 41.0059 33.1612C43.5546 33.1612 45.6285 31.0924 45.6285 28.5496C45.6285 26.0068 43.5546 23.938 41.0059 23.938ZM41.0059 32.1599C39.0104 32.1599 37.3871 30.5402 37.3871 28.5496C37.3871 26.559 39.0104 24.9393 41.0059 24.9393C43.0014 24.9393 44.6246 26.559 44.6246 28.5496C44.6246 30.5402 43.0014 32.1599 41.0059 32.1599Z" fill="#0049FF"/>
<path d="M41.0058 25.7695C39.469 25.7695 38.2192 27.0171 38.2192 28.5498C38.2192 30.0826 39.4696 31.3302 41.0058 31.3302C42.542 31.3302 43.7923 30.0826 43.7923 28.5498C43.7923 27.0171 42.542 25.7695 41.0058 25.7695ZM41.0058 30.3288C40.0228 30.3288 39.2231 29.5311 39.2231 28.5498C39.2231 27.5686 40.0228 26.7709 41.0058 26.7709C41.9887 26.7709 42.7885 27.5686 42.7885 28.5498C42.7885 29.5311 41.9887 30.3288 41.0058 30.3288Z" fill="#0049FF"/>
<path d="M63.5527 19.9707C58.8113 19.9707 54.9536 23.8197 54.9536 28.5503C54.9536 33.281 58.8113 37.13 63.5527 37.13C68.2942 37.13 72.1518 33.281 72.1518 28.5503C72.1518 23.8197 68.2942 19.9707 63.5527 19.9707ZM63.5527 36.128C59.3645 36.128 55.9575 32.7289 55.9575 28.5503C55.9575 24.3718 59.3645 20.9726 63.5527 20.9726C67.7409 20.9726 71.148 24.3718 71.148 28.5503C71.148 32.7289 67.7409 36.128 63.5527 36.128Z" fill="#0049FF"/>
<path d="M63.5527 18.0439C57.7459 18.0439 53.0225 22.7568 53.0225 28.5498C53.0225 34.3428 57.7465 39.0556 63.5527 39.0556C69.3589 39.0556 74.083 34.3428 74.083 28.5498C74.083 22.7568 69.3589 18.0439 63.5527 18.0439ZM63.5527 38.0548C58.2998 38.0548 54.0263 33.7912 54.0263 28.5504C54.0263 23.3095 58.2998 19.0459 63.5527 19.0459C68.8057 19.0459 73.0791 23.3095 73.0791 28.5504C73.0791 33.7912 68.8057 38.0548 63.5527 38.0548Z" fill="#0049FF"/>
<path d="M63.5528 21.9922C59.9289 21.9922 56.98 24.9335 56.98 28.5496C56.98 32.1656 59.9283 35.1069 63.5528 35.1069C67.1774 35.1069 70.1257 32.1656 70.1257 28.5496C70.1257 24.9335 67.1774 21.9922 63.5528 21.9922ZM63.5528 34.1056C60.4821 34.1056 57.9838 31.6134 57.9838 28.5496C57.9838 25.4857 60.4821 22.9935 63.5528 22.9935C66.6235 22.9935 69.1219 25.4857 69.1219 28.5496C69.1219 31.6134 66.6235 34.1056 63.5528 34.1056Z" fill="#0049FF"/>
<path d="M63.5527 23.938C61.004 23.938 58.9302 26.0068 58.9302 28.5496C58.9302 31.0924 61.004 33.1612 63.5527 33.1612C66.1015 33.1612 68.1753 31.0924 68.1753 28.5496C68.1753 26.0068 66.1015 23.938 63.5527 23.938ZM63.5527 32.1599C61.5572 32.1599 59.934 30.5402 59.934 28.5496C59.934 26.559 61.5572 24.9393 63.5527 24.9393C65.5483 24.9393 67.1715 26.559 67.1715 28.5496C67.1715 30.5402 65.5483 32.1599 63.5527 32.1599Z" fill="#0049FF"/>
<path d="M63.5526 25.7695C62.0158 25.7695 60.7661 27.0171 60.7661 28.5498C60.7661 30.0826 62.0164 31.3302 63.5526 31.3302C65.0889 31.3302 66.3392 30.0826 66.3392 28.5498C66.3392 27.0171 65.0889 25.7695 63.5526 25.7695ZM63.5526 30.3288C62.5697 30.3288 61.77 29.5311 61.77 28.5498C61.77 27.5686 62.5697 26.7709 63.5526 26.7709C64.5356 26.7709 65.3353 27.5686 65.3353 28.5498C65.3353 29.5311 64.5356 30.3288 63.5526 30.3288Z" fill="#0049FF"/>
<path d="M95.2762 34.8448C94.8285 34.399 94.2109 34.1224 93.5277 34.1224H80.897V20.5095C80.897 19.1637 79.8166 18.0703 78.4741 18.0444C77.088 18.0174 75.9531 19.1757 75.9531 20.559V34.1229L76.0795 35.2376C76.0981 35.317 76.1184 35.3958 76.1404 35.4734C76.1631 35.5522 76.1874 35.6293 76.2123 35.7052C76.2123 35.7052 76.2123 35.7054 76.2123 35.7058C76.239 35.7823 76.2669 35.857 76.2959 35.9318L76.3417 36.044C76.4977 36.4126 76.6977 36.7583 76.9355 37.0752C76.9355 37.0752 76.9355 37.0754 76.9355 37.0758C76.9825 37.1385 77.0312 37.2006 77.0822 37.2616C77.0822 37.2616 77.0822 37.2618 77.0822 37.2621C77.1826 37.3835 77.2893 37.5003 77.4018 37.6118C77.5131 37.7234 77.6303 37.8298 77.752 37.9305H77.7526C77.8135 37.9805 77.8762 38.0288 77.9388 38.0771H77.9394C78.0032 38.1243 78.0675 38.1703 78.1331 38.2146C78.1992 38.2589 78.2659 38.302 78.3337 38.3434H78.3343C78.4021 38.3849 78.4706 38.4245 78.5407 38.4619H78.5413C78.6944 38.5448 78.8522 38.6201 79.0151 38.6868C79.0801 38.7133 79.1456 38.7392 79.2117 38.7633C79.2448 38.7748 79.2784 38.7869 79.3115 38.7984C79.809 38.9663 80.3426 39.0572 80.897 39.0572H93.5277C94.8929 39.0572 95.9999 37.9529 95.9999 36.5904C95.9999 35.9094 95.7233 35.2928 95.2762 34.8465V34.8448ZM94.1471 36.6496C94.1163 36.9711 93.8328 37.2098 93.5086 37.2098H80.897C80.204 37.2098 79.5632 36.9809 79.047 36.5944C78.9426 36.5162 78.8429 36.4322 78.7489 36.3419C78.7304 36.3235 78.7118 36.3057 78.6933 36.2873C78.6567 36.2504 78.6214 36.2125 78.5866 36.1734C78.5668 36.1509 78.5471 36.1285 78.528 36.1055C78.5088 36.0825 78.4903 36.0601 78.4717 36.0371C78.053 35.5102 77.8025 34.8448 77.8025 34.1224V20.5268C77.8025 20.2036 78.0426 19.9211 78.365 19.8912C78.7344 19.8562 79.0464 20.1466 79.0464 20.5084V34.1212C79.0464 35.1404 79.8746 35.9669 80.8964 35.9669H93.5271C93.8908 35.9669 94.1819 36.2792 94.1465 36.6485L94.1471 36.6496Z" fill="#0049FF"/>
<path d="M26.9191 46.6595C26.9191 46.4415 26.8461 46.2644 26.6924 46.1108C26.5347 45.9532 26.3444 45.8767 26.1264 45.8767C25.9083 45.8767 25.7181 45.9532 25.5644 46.1108C25.4067 46.2684 25.3302 46.4496 25.3342 46.6555C25.3383 46.9137 25.4073 47.1116 25.5204 47.2686C25.5969 47.3773 25.7025 47.4826 25.8358 47.5832C25.9489 47.6718 26.1351 47.7972 26.3856 47.9502C26.6124 48.0917 26.8467 48.2286 27.0572 48.3982C27.7044 48.9228 27.9508 49.6043 27.7728 50.4072C27.6881 50.7943 27.4938 51.1135 27.1865 51.3597C26.8791 51.6019 26.5231 51.7186 26.127 51.7186C25.6781 51.7186 25.278 51.565 24.9544 51.2545C24.6267 50.9439 24.4568 50.5643 24.4568 50.1168V49.5359H25.3342V50.1168C25.3342 50.3348 25.4073 50.5119 25.5644 50.6655C25.7181 50.8191 25.9002 50.8956 26.1264 50.8956C26.3166 50.8956 26.4825 50.8392 26.628 50.7178C26.7776 50.593 26.8664 50.4395 26.907 50.2456C27.016 49.7452 26.8786 49.3461 26.4743 49.0148C26.3694 48.9302 26.1792 48.8049 25.9002 48.6358L25.7506 48.5391L25.5929 48.4465C25.4635 48.37 25.3586 48.2889 25.2693 48.2165C25.079 48.0669 24.9213 47.9059 24.796 47.7362C24.5618 47.4216 24.4521 47.042 24.4521 46.4289H24.4724C24.5252 46.07 24.6951 45.7634 24.97 45.5052C25.2936 45.2067 25.6856 45.0571 26.1264 45.0571C26.5671 45.0571 26.9754 45.2107 27.299 45.5173C27.6226 45.8278 27.7966 46.2074 27.7966 46.6509V47.2318H26.9191V46.6589V46.6595Z" fill="#0049FF"/>
<path d="M37.3191 51.6389H36.4295V45.9742H35.1392V45.1431H38.6088V45.9742H37.3185V51.6389H37.3191Z" fill="#0049FF"/>
<path d="M47.7833 51.719C47.306 51.719 46.8896 51.5534 46.5457 51.2227C46.2018 50.8919 46.0278 50.4842 46.0278 50.0119V45.1421H46.9053V50.0119C46.9053 50.2541 46.9899 50.456 47.1639 50.6331C47.3379 50.8068 47.5362 50.8914 47.7827 50.8914C48.0292 50.8914 48.2315 50.8068 48.4055 50.6331C48.5795 50.4554 48.6642 50.2541 48.6642 50.0119V45.1421H49.5416V50.0119C49.5416 50.4842 49.3676 50.8914 49.0237 51.2227C48.6798 51.5534 48.2594 51.719 47.7821 51.719H47.7833Z" fill="#0049FF"/>
<path d="M58.611 51.6385H56.9814V45.1387H58.611C59.1127 45.1387 59.5453 45.2802 59.8851 45.5706C60.2331 45.8691 60.4111 46.2522 60.4111 46.7123V50.0609C60.4111 50.521 60.2331 50.9041 59.8851 51.2066C59.5412 51.5011 59.1127 51.6385 58.611 51.6385ZM59.2582 46.1556C59.0924 46.0307 58.8819 45.9657 58.611 45.9657H57.8589V50.8115H58.611C58.8819 50.8115 59.0924 50.747 59.2582 50.6176C59.4403 50.4807 59.5291 50.303 59.5291 50.0609V46.7123C59.5291 46.4661 59.4403 46.2884 59.2582 46.1556Z" fill="#0049FF"/>
<path d="M67.7822 45.1382H68.6637V51.638H67.7822V45.1382Z" fill="#0049FF"/>
<path d="M77.7881 51.7192C77.3109 51.7192 76.8945 51.5535 76.5506 51.2228C76.2067 50.8921 76.0327 50.4843 76.0327 50.0081V46.7642C76.0327 46.292 76.2067 45.8848 76.5506 45.5535C76.8945 45.2228 77.3109 45.0571 77.7881 45.0571C78.2654 45.0571 78.6859 45.2228 79.0298 45.5535C79.3737 45.8842 79.5476 46.292 79.5476 46.7642V50.0081C79.5476 50.4843 79.3737 50.8915 79.0298 51.2228C78.6859 51.5535 78.2654 51.7192 77.7881 51.7192ZM78.411 46.143C78.237 45.9693 78.0346 45.8848 77.7881 45.8848C77.5417 45.8848 77.3433 45.9693 77.1694 46.143C76.9954 46.3208 76.9107 46.5221 76.9107 46.7642V50.0081C76.9107 50.2543 76.9954 50.4561 77.1694 50.6333C77.3433 50.807 77.5417 50.8915 77.7881 50.8915C78.0346 50.8915 78.237 50.807 78.411 50.6333C78.585 50.4556 78.6696 50.2543 78.6696 50.0081V46.7642C78.6696 46.5221 78.585 46.3202 78.411 46.143Z" fill="#0049FF"/>
</svg>
