<svg width="51" height="53" viewBox="0 0 51 53" fill="none" xmlns="http://www.w3.org/2000/svg">
<g id="Group">
<path id="Vector" d="M5.28149 0.860355L4.93704 1.20149V4.89939V8.5973L5.28149 8.92479L5.61216 9.26592H9.31838C13.5895 9.26592 13.6033 9.26592 13.6859 8.17429L13.7273 7.56025L17.3646 7.49202C20.9606 7.42379 21.0157 7.42379 21.5117 7.08266C21.7873 6.90527 22.1455 6.50955 22.3246 6.23664L22.6415 5.71812L30.3295 5.75905L38.0313 5.78634L38.3344 6.14112C38.5273 6.3731 38.6788 6.76881 38.7339 7.19182C38.8855 8.50178 39.7397 9.59341 40.8833 9.93454C41.2139 10.0301 42.633 10.0846 44.6722 10.0846H47.9513L48.3646 10.494L48.7779 10.9034L48.7228 12.4862C48.6815 14.0282 48.6677 14.0691 48.2957 14.3966C48.0477 14.6013 47.7308 14.7241 47.4277 14.7241C46.4082 14.7241 45.3473 15.4336 44.8788 16.4298C44.6584 16.9073 44.617 17.344 44.617 19.7183C44.617 22.3928 44.6308 22.461 44.9753 23.1706C45.4024 24.003 46.0362 24.4669 47.0282 24.6852C47.4139 24.7535 47.8548 24.849 48.0202 24.8899C48.6264 25.0264 48.7779 25.6268 48.7228 27.6463C48.6815 29.4748 48.6815 29.4884 48.2957 29.8159C47.9788 30.0888 47.7584 30.1434 47.0557 30.1434C46.2428 30.1297 46.1877 30.1161 45.9259 29.6931C45.7744 29.4475 45.3748 29.12 45.0304 28.9426C44.4655 28.656 44.245 28.6424 41.765 28.6424H39.1059V28.3013C39.1059 27.9874 39.1473 27.9601 39.8362 27.9601C41.3379 27.9465 42.1095 27.5917 42.6468 26.6502C43.3082 25.5176 42.881 23.962 41.7237 23.3616C41.2553 23.116 40.9108 23.0478 40.1117 23.0478H39.1059V22.4474V21.847L40.3184 21.7924C41.3104 21.7651 41.5997 21.6969 41.9855 21.424C42.9499 20.7417 43.2393 19.2407 42.6193 18.1764C42.1233 17.344 41.4619 17.0438 40.1393 17.0438H39.1059V16.3888C39.0922 15.2017 38.2793 13.9463 37.1082 13.3186C36.5984 13.0457 36.3228 13.0184 33.4295 12.9775L30.2882 12.9365V11.9677C30.2882 11.2581 30.2193 10.8761 29.9988 10.5077C29.2548 9.18405 27.4637 8.8702 26.3339 9.85267C25.6864 10.4258 25.4659 10.9716 25.4659 12.0632V12.9502H24.9286H24.405L24.3362 11.9268C24.2535 10.6714 23.8264 9.9209 22.9446 9.52518C21.0708 8.69281 19.4175 9.89361 19.4037 12.0905V12.9502H18.8526H18.3015V12.1315C18.3015 10.8215 17.8606 10.0164 16.8962 9.52518C15.8215 8.97937 14.485 9.34779 13.7962 10.3576C13.5206 10.7942 13.4242 11.1217 13.369 11.9268L13.3002 12.9365L10.2553 12.9775L7.21038 13.0184L6.48016 13.4141C5.35038 14.0418 4.79927 14.8878 4.67527 16.1568L4.5926 16.9756L3.40771 17.0438C2.40193 17.112 2.15393 17.1666 1.7406 17.4805C1.10682 17.958 0.803711 18.6267 0.803711 19.5409C0.803711 20.0867 0.886378 20.4006 1.1206 20.7281C1.68549 21.5604 2.07127 21.7378 3.39393 21.8197L4.5926 21.8879V22.4337V22.9795L3.49038 23.0478C1.67171 23.1569 0.817489 23.9484 0.803711 25.4767C0.803711 27.0732 1.89216 27.9601 3.87616 27.9601H4.66149V31.0986V34.237H3.65571C1.82327 34.237 0.817489 35.1103 0.803711 36.6659C0.803711 38.2351 1.89216 39.1493 3.76593 39.1493H4.66149V39.6952V40.241H3.79349C2.69127 40.241 2.09882 40.4184 1.58904 40.8823C1.01038 41.4418 0.803711 41.9057 0.803711 42.7108C0.803711 43.5705 1.17571 44.28 1.8646 44.744C2.27793 45.0305 2.56727 45.0987 3.51793 45.1397L4.66149 45.1806V45.8219C4.66149 46.5724 5.14371 47.6504 5.7086 48.1826C5.92904 48.3873 6.38371 48.6738 6.72816 48.8239C7.29304 49.0832 7.62371 49.1105 10.3517 49.1105H13.3415V49.82C13.3415 50.8844 13.5895 51.5667 14.1544 52.1261C14.8019 52.7675 15.5873 52.9994 16.4002 52.7811C17.6953 52.44 18.3015 51.5667 18.3015 50.0247V49.1105H18.8526H19.4037V50.0247C19.4037 51.5667 20.0099 52.44 21.305 52.7811C22.1179 52.9994 22.9033 52.7675 23.5508 52.1261C24.1157 51.5667 24.3637 50.8844 24.3637 49.82V49.1105H24.9148H25.4659V50.0793C25.4659 51.2255 25.7139 51.8396 26.3753 52.3444C27.3122 53.054 28.5797 53.0267 29.4615 52.3035C30.0815 51.785 30.1917 51.4848 30.2882 50.2703L30.357 49.1787L33.5259 49.1105C36.681 49.0423 36.6948 49.0423 37.3424 48.6602C38.4308 48.0325 39.0922 46.9409 39.1059 45.7264V45.1533H40.0428C41.641 45.1397 42.757 44.3619 42.9224 43.1202C43.1566 41.3735 42.0406 40.2546 40.0428 40.241H39.1059V39.6952V39.1493H40.0015C41.393 39.1493 42.1922 38.74 42.7019 37.7575C43.1704 36.8569 43.005 35.7516 42.3024 35.0011C41.765 34.4417 41.1726 34.237 40.0704 34.237H39.0922L39.1335 33.7867L39.1748 33.35L42.0682 33.2818C44.7548 33.2136 44.989 33.1863 45.3748 32.9134C45.609 32.7497 45.8846 32.4631 45.9948 32.2721C46.1602 31.9582 46.2566 31.9173 46.9593 31.9173C48.0615 31.9173 49.0259 31.6034 49.5357 31.0713C50.3486 30.2253 50.4037 29.966 50.4037 27.4416C50.4037 25.2993 50.3762 25.0946 50.0868 24.5351C49.701 23.8119 48.8744 23.1979 48.1304 23.1024C47.1384 22.9659 46.973 22.9113 46.6837 22.6111C46.4219 22.3382 46.4082 22.1335 46.4082 19.7592C46.4082 16.7027 46.3944 16.73 47.8548 16.4298C48.9433 16.1978 49.6046 15.7475 50.0868 14.9151C50.3762 14.4375 50.4037 14.2056 50.4037 12.4317C50.4037 10.2075 50.3073 9.85267 49.4393 9.07489C49.1499 8.81562 48.6677 8.54271 48.3784 8.46084C48.0753 8.37897 46.4633 8.31074 44.5757 8.31074H41.2828L40.8833 7.91503C40.6077 7.62847 40.4837 7.38285 40.4837 7.05537C40.4837 5.9228 39.8224 4.8721 38.789 4.31264C38.2104 4.01244 38.169 4.01244 30.3846 3.9715L22.5726 3.93057L22.3659 3.53485C22.0904 3.01633 21.4015 2.51145 20.7126 2.32041C20.3819 2.23854 18.8388 2.17031 16.9237 2.17031H13.6859L13.6584 1.61085C13.6308 0.601093 13.6722 0.601093 9.41482 0.560154L5.62593 0.519218L5.28149 0.860355ZM7.83038 3.01633C7.83038 3.82141 8.09216 4.21712 8.62949 4.21712C9.22193 4.21712 9.48371 3.8487 9.48371 3.02997V2.30677H10.7237H11.9637V4.89939V7.49202H10.7237H9.48371V6.68694C9.48371 5.73176 9.27704 5.44521 8.58816 5.44521C7.99571 5.44521 7.83038 5.71812 7.83038 6.72787V7.49202H7.27927H6.72816V4.89939V2.30677H7.27927H7.83038V3.01633ZM20.6162 4.16254C20.9744 4.40816 21.0295 5.1723 20.6988 5.49979C20.3682 5.84093 20.065 5.86822 16.7997 5.82728L13.7273 5.78634V4.92669C13.741 4.46274 13.741 4.05338 13.741 4.01244C13.7548 3.9715 15.229 3.94421 17.0339 3.94421C19.7757 3.94421 20.3544 3.98515 20.6162 4.16254ZM16.345 11.2036C16.4415 11.2991 16.5104 11.7221 16.5104 12.1587V12.9502H15.8215H15.1326V12.2543C15.1326 11.8722 15.2015 11.4492 15.2704 11.2991C15.4357 10.9989 16.0833 10.9443 16.345 11.2036ZM22.4348 11.2991C22.5037 11.4492 22.5726 11.8722 22.5726 12.2543V12.9502H21.8837H21.1948V12.1587C21.1948 11.7221 21.2637 11.2991 21.3602 11.2036C21.6219 10.9443 22.2695 10.9989 22.4348 11.2991ZM28.4144 11.34C28.5384 11.5174 28.6348 11.9268 28.6348 12.2952V12.9502H27.8633H27.0917L27.1468 12.2133C27.1882 11.804 27.2846 11.3673 27.381 11.2581C27.6428 10.9443 28.1664 10.9852 28.4144 11.34ZM36.8464 15.2972L37.3148 15.8157V30.9894C37.3148 45.6036 37.301 46.1904 37.053 46.5997C36.4744 47.5276 37.3562 47.4867 21.6908 47.4457C7.66504 47.4048 7.5686 47.4048 7.18282 47.1183C6.97616 46.9682 6.68682 46.627 6.56282 46.3678C6.3286 45.9311 6.31482 44.9214 6.31482 31.1395C6.31482 14.7923 6.27349 15.5837 7.18282 14.997C7.62371 14.7241 7.76149 14.7241 21.9939 14.765L36.3779 14.7923L36.8464 15.2972ZM4.5926 19.4317V20.114L3.80727 20.1549C3.15971 20.1822 2.96682 20.1413 2.7326 19.9093C2.58104 19.7592 2.45704 19.5409 2.45704 19.4317C2.45704 19.3226 2.58104 19.1043 2.7326 18.9542C2.96682 18.7222 3.15971 18.6812 3.80727 18.7085L4.5926 18.7495V19.4317ZM40.9522 18.8996C41.269 19.1998 41.2277 19.8684 40.9108 20.0458C40.7593 20.114 40.2908 20.1822 39.8775 20.1822H39.1059V19.4317V18.6812H39.9188C40.4837 18.6812 40.8144 18.7495 40.9522 18.8996ZM4.66149 25.5039V26.1862H3.76593C2.96682 26.1862 2.8566 26.1453 2.64993 25.8451C2.45704 25.5585 2.44327 25.4221 2.56727 25.1628C2.71882 24.849 2.80149 24.8217 3.69704 24.8217H4.66149V25.5039ZM41.0073 24.9854C41.269 25.2447 41.2139 25.886 40.9108 26.0498C40.7593 26.118 40.2908 26.1862 39.8775 26.1862H39.1059V25.5039V24.8217H39.9739C40.4699 24.8217 40.9108 24.8899 41.0073 24.9854ZM44.4517 30.58C44.6859 30.812 44.6584 31.1804 44.3966 31.4261C44.2175 31.6034 43.7628 31.6444 41.641 31.6444H39.1059V31.0303V30.4163H41.6962C43.5286 30.4163 44.3415 30.4709 44.4517 30.58ZM4.66149 36.6932V37.3754H3.76593C2.96682 37.3754 2.8566 37.3345 2.64993 37.0343C2.45704 36.7478 2.44327 36.6113 2.56727 36.352C2.71882 36.0382 2.80149 36.0109 3.69704 36.0109H4.66149V36.6932ZM41.0073 36.1746C41.1037 36.2702 41.1726 36.5021 41.1726 36.6932C41.1726 37.239 40.9246 37.3754 39.9739 37.3754H39.1059V36.6932V36.0109H39.9739C40.4699 36.0109 40.9108 36.0791 41.0073 36.1746ZM4.66149 42.6972V43.3931L3.73838 43.3521C2.89793 43.3112 2.78771 43.2839 2.6086 42.9428C2.41571 42.6153 2.41571 42.5607 2.64993 42.3014C2.87038 42.0695 3.07704 42.0149 3.79349 42.0149H4.66149V42.6972ZM41.0073 42.1786C41.1037 42.2741 41.1726 42.5061 41.1726 42.6972C41.1726 43.243 40.9246 43.3794 39.9739 43.3794H39.1059V42.6972V42.0149H39.9739C40.4699 42.0149 40.9108 42.0831 41.0073 42.1786ZM16.5104 49.9156C16.5104 51.0481 16.0144 51.4984 15.3806 50.9253C15.2015 50.7616 15.1326 50.5023 15.1326 49.9019V49.1105H15.8215H16.5104V49.9156ZM22.5726 49.8883C22.5726 50.707 22.3246 51.1573 21.8699 51.1573C21.4015 51.1573 21.1948 50.7752 21.1948 49.9156V49.1105H21.8837H22.5726V49.8883ZM28.6073 49.8746C28.6624 50.7616 28.3317 51.2528 27.753 51.1027C27.5326 51.0481 27.3259 50.8707 27.257 50.6661C27.0917 50.2567 27.0779 49.3425 27.2157 49.1924C27.2708 49.1378 27.6015 49.1105 27.9459 49.1378L28.5659 49.1787L28.6073 49.8746Z" fill="white"/>
<path id="Vector_2" d="M8.0643 16.1977C7.84386 16.4296 7.83008 17.6577 7.83008 31.1257C7.83008 44.6074 7.84386 45.8218 8.0643 45.9856C8.24341 46.1493 10.5581 46.1766 21.5941 46.2175C28.9101 46.2312 35.0412 46.2175 35.2065 46.1766C35.9781 45.9856 35.9367 46.968 35.9367 31.0848C35.9367 16.6753 35.9367 16.4979 35.6612 16.225C35.3856 15.952 35.2065 15.952 21.8421 15.952C8.87719 15.952 8.27097 15.9657 8.0643 16.1977ZM34.1456 31.0984V44.4709H27.1879H20.2439L20.2025 43.5567C20.1612 42.7107 20.1336 42.6152 19.7892 42.4241C19.4447 42.2467 19.3621 42.2467 19.0314 42.4241C18.6732 42.6152 18.6456 42.7107 18.6043 43.5567L18.563 44.4709H17.819H17.075L17.0336 43.5567C16.9923 42.7107 16.9647 42.6152 16.6203 42.4241C16.2759 42.2467 16.1932 42.2467 15.8625 42.4241C15.5043 42.6152 15.4767 42.7107 15.4354 43.5567L15.3941 44.4709H14.6501H13.8923V43.6522C13.8923 42.4651 13.3136 41.9602 12.5421 42.506C12.2803 42.6834 12.239 42.8335 12.239 43.5976V44.4709H10.8612H9.48341V31.0984V17.7259H21.8145H34.1456V31.0984Z" fill="white"/>
<path id="Vector_3" d="M10.9849 18.9405C10.6818 19.1861 10.6542 19.3226 10.6129 20.728C10.5302 23.4025 10.42 23.3207 13.6716 23.3207C16.868 23.3207 16.6751 23.4844 16.62 20.9191C16.5649 18.5448 16.7578 18.6812 13.6027 18.6812C11.5498 18.6812 11.2742 18.7085 10.9849 18.9405ZM14.9942 21.0009V21.5468H13.6854H12.3765V21.0009V20.4551H13.6854H14.9942V21.0009Z" fill="white"/>
<path id="Vector_4" d="M17.9568 18.845C17.8053 18.9269 17.6399 19.0633 17.5848 19.1452C17.5297 19.2271 17.4746 20.1004 17.4746 21.0829C17.4746 22.6384 17.5022 22.8977 17.7226 23.0887C17.9431 23.2934 18.3426 23.3207 20.4782 23.3207C23.7022 23.3207 23.5368 23.4435 23.5368 21.0692C23.5368 19.4318 23.5231 19.3362 23.1924 19.0224C22.8617 18.6813 22.8204 18.6813 20.5471 18.6813C19.0866 18.6813 18.1359 18.7495 17.9568 18.845ZM21.7457 21.001V21.5468H20.5057H19.2657V21.001V20.4552H20.5057H21.7457V21.001Z" fill="white"/>
<path id="Vector_5" d="M24.5691 19.0086C24.2384 19.3361 24.2246 19.418 24.2246 20.9326C24.2246 22.4473 24.3348 22.9794 24.6931 23.2114C24.7757 23.266 25.9606 23.3206 27.3384 23.3206C29.5842 23.3206 29.8597 23.2933 30.0526 23.0749C30.3695 22.7338 30.3971 19.4316 30.0939 19.0086C29.9148 18.7766 29.6806 18.7493 27.4073 18.7084L24.9135 18.6675L24.5691 19.0086ZM28.6335 21.0008V21.5467H27.3246H26.0157V21.0008V20.455H27.3246H28.6335V21.0008Z" fill="white"/>
<path id="Vector_6" d="M10.9151 24.4669C10.6809 24.6443 10.6533 24.8353 10.6533 26.5001C10.6533 27.8509 10.7084 28.3831 10.8462 28.5469C11.1218 28.888 16.0955 28.888 16.4262 28.5605C16.6053 28.3968 16.6467 28.001 16.6467 26.541C16.6467 24.9581 16.6191 24.6989 16.3987 24.5078C16.1782 24.3031 15.7787 24.2758 13.6707 24.2758C11.7418 24.2758 11.1218 24.3168 10.9151 24.4669ZM14.9658 26.5546L15.0071 27.1414H13.6982H12.3755V26.5273V25.8997L13.6569 25.9406L14.9244 25.9815L14.9658 26.5546Z" fill="white"/>
<path id="Vector_7" d="M17.7088 24.5215C17.5159 24.7262 17.4746 25.0946 17.4746 26.5546C17.4746 28.0966 17.5022 28.3558 17.7226 28.5469C17.9431 28.7515 18.3564 28.7788 20.5471 28.7788C23.7159 28.7788 23.5368 28.9153 23.5368 26.5273C23.5368 24.1394 23.7159 24.2759 20.5195 24.2759C18.1911 24.2759 17.9017 24.3031 17.7088 24.5215ZM21.7457 26.5273V27.1414H20.5057H19.2657V26.5273V25.9133H20.5057H21.7457V26.5273Z" fill="white"/>
<path id="Vector_8" d="M27.4359 24.4942C26.6506 24.7808 25.6586 25.6677 25.2177 26.5137C24.9008 27.1005 24.8457 27.387 24.8457 28.3695C24.8457 29.311 24.9008 29.6522 25.1626 30.1571C26.1821 32.2312 28.7173 33.1318 30.7288 32.1493C31.6244 31.7126 32.3959 30.9212 32.8093 30.0206C33.2364 29.12 33.2088 27.5917 32.7679 26.6638C32.3408 25.7905 31.5417 25.0127 30.6599 24.6034C29.8195 24.2213 28.3728 24.1667 27.4359 24.4942ZM29.6128 26.0771C29.9159 26.159 30.1501 26.2681 30.1364 26.3091C30.1364 26.35 29.8057 26.6365 29.4199 26.9367C28.8688 27.3598 28.6897 27.5917 28.6621 27.9192C28.5657 28.8607 29.475 29.0518 30.467 28.3013C31.335 27.6463 31.4315 27.6736 31.3626 28.5605C31.1973 30.5801 28.8137 31.5352 27.3533 30.1707C26.7746 29.6385 26.5679 29.1473 26.5679 28.3695C26.5679 27.2642 27.1328 26.4864 28.1799 26.118C28.8275 25.8724 28.9515 25.8724 29.6128 26.0771Z" fill="white"/>
<path id="Vector_9" d="M10.8743 30.0887C10.6125 30.4162 10.585 30.6346 10.585 32.081C10.585 33.6229 10.5987 33.7184 10.9294 34.0323C11.2601 34.3734 11.3014 34.3734 13.6436 34.3734C16.8263 34.3734 16.6472 34.5098 16.6472 32.0537C16.6472 29.5839 16.8401 29.734 13.6023 29.734H11.1498L10.8743 30.0887ZM14.9939 32.0537V32.5995H13.685H12.3761V32.0537V31.5079H13.685H14.9939V32.0537Z" fill="white"/>
<path id="Vector_10" d="M17.7516 30.007C17.5036 30.2526 17.4761 30.4573 17.4761 32.0538C17.4761 34.4963 17.3108 34.3735 20.4796 34.3735C23.6623 34.3735 23.5383 34.469 23.5383 32.0128C23.5383 29.6112 23.7036 29.7341 20.5072 29.7341C18.2063 29.7341 18.0134 29.7477 17.7516 30.007ZM21.7472 32.0538V32.5996H20.5072H19.2672V32.0538V31.508H20.5072H21.7472V32.0538Z" fill="white"/>
<path id="Vector_11" d="M28.0002 33.6776C27.2149 34.0324 26.8015 34.6601 26.7326 35.588C26.6775 36.475 26.9944 37.0754 27.7935 37.6075C28.3446 37.976 29.4055 38.0305 30.0118 37.7167C31.61 36.898 31.61 34.5646 30.0118 33.7322C29.2953 33.3502 28.758 33.3365 28.0002 33.6776ZM29.2953 35.356C29.5571 35.6153 29.4882 35.9837 29.1575 36.1611C28.9095 36.2976 28.8269 36.2703 28.6064 36.011C28.1793 35.4925 28.8131 34.8784 29.2953 35.356Z" fill="white"/>
<path id="Vector_12" d="M10.9849 35.4379C10.6818 35.6972 10.6542 35.82 10.6129 37.2391C10.5302 39.9136 10.42 39.8318 13.6716 39.8318C15.9311 39.8318 16.2205 39.8045 16.4134 39.5861C16.7302 39.245 16.7578 35.9428 16.4547 35.5198C16.2756 35.2878 16.0414 35.2606 13.7956 35.2196C11.5085 35.1787 11.3018 35.1923 10.9849 35.4379ZM14.9942 37.512V38.0579H13.6854H12.3765V37.512V36.9662H13.6854H14.9942V37.512Z" fill="white"/>
<path id="Vector_13" d="M17.9568 35.356C17.8053 35.4379 17.6399 35.5743 17.5848 35.6562C17.5297 35.7381 17.4746 36.6114 17.4746 37.5938C17.4746 39.1494 17.5022 39.4087 17.7226 39.5997C17.9431 39.8044 18.3426 39.8317 20.4782 39.8317C23.7022 39.8317 23.5368 39.9545 23.5368 37.5802C23.5368 35.9427 23.5231 35.8472 23.1924 35.5334C22.8617 35.1922 22.8204 35.1922 20.5471 35.1922C19.0866 35.1922 18.1359 35.2605 17.9568 35.356ZM21.7457 37.512V38.0578H20.5057H19.2657V37.512V36.9662H20.5057H21.7457V37.512Z" fill="white"/>
<path id="Vector_14" d="M27.8361 39.245C26.5272 39.8727 26.3344 42.0696 27.5055 42.9702C28.4424 43.707 29.6548 43.6252 30.5228 42.7792C31.6526 41.6602 31.4046 39.9273 29.9992 39.2177C29.4895 38.9448 28.401 38.9584 27.8361 39.245ZM29.3792 40.9507C29.6961 41.4692 28.897 42.015 28.5388 41.5238C28.3046 41.2099 28.3184 41.1281 28.5801 40.8552C28.8557 40.5959 29.1726 40.6368 29.3792 40.9507Z" fill="white"/>
</g>
</svg>
