<svg width="50" height="60" viewBox="0 0 50 60" fill="none" xmlns="http://www.w3.org/2000/svg">
<g id="Group">
<path id="Vector" d="M18.149 0.718899C16.2309 1.42281 14.7923 2.33599 13.5839 3.59162C11.7425 5.5131 10.841 7.51069 10.5916 10.2502L10.4766 11.62L11.4356 12.6664C12.5673 13.903 12.9509 14.9683 12.7591 16.4903C12.6632 17.3845 12.6824 17.5557 13.0085 17.7269C13.7565 18.1074 15.9048 17.822 15.9048 17.3274C15.9048 17.2323 15.5596 16.6615 15.1568 16.0147C14.2553 14.6449 13.9292 13.4083 13.91 11.3537L13.8908 9.83169H13.0277C12.2796 9.83169 12.1645 9.77462 12.107 9.39412C12.0111 8.70924 12.9893 6.46433 13.9675 5.18968C15.6555 2.94478 18.2641 1.63208 21.3715 1.42281C24.0185 1.25159 26.3586 2.01257 28.2767 3.68674L29.1782 4.48577L28.2959 4.92334C27.8164 5.17066 27.4136 5.41798 27.4136 5.45603C27.4136 5.5131 27.778 6.00774 28.2192 6.55946C29.3125 7.94825 29.8304 9.18485 30.0989 11.1063C30.3483 12.8947 30.4058 12.9517 31.3841 12.5712C33.2638 11.8673 34.2996 9.1468 33.4556 7.11117C33.072 6.19799 29.3701 2.62136 27.9315 1.78428C25.6489 0.433529 24.9008 0.224258 22.0428 0.243282C19.7603 0.243282 19.2999 0.300356 18.149 0.718899Z" fill="white"/>
<path id="Vector_2" d="M38.7902 0.623634C38.0422 0.832905 36.9105 2.12658 36.7378 2.92561C36.546 3.87685 36.6036 7.77689 36.8529 10.212C37.1215 12.9135 36.9488 14.1311 36.0473 15.9194C35.3952 17.2511 33.6113 19.2868 32.8441 19.5912C32.4988 19.7243 29.1229 19.8765 23.5795 19.9907C13.9889 20.1809 14.0657 20.1619 11.7255 21.4556C10.9967 21.8361 10.402 22.0454 10.3061 21.9502C10.2102 21.8551 10.3829 20.8088 10.7281 19.42C11.668 15.577 11.457 13.9409 9.84579 13.0277C8.94427 12.514 7.52486 12.4569 6.60416 12.8945C5.43411 13.4272 5.06967 14.2643 3.93798 18.7731C1.42524 28.8942 1.4636 28.6849 2.0774 30.0167C2.74874 31.4816 4.39832 32.3186 5.952 31.9762C6.37399 31.8811 8.56065 30.8157 10.824 29.6171C13.1641 28.3615 15.0247 27.4674 15.1973 27.5244C15.4851 27.6386 15.7728 28.5137 16.0605 30.1879C16.329 31.7099 17.4799 36.7894 17.6717 37.3602C17.9403 38.0641 18.2088 38.1212 19.9926 37.8168C23.7713 37.1509 27.8569 37.246 31.6165 38.0831C33.3236 38.4636 33.7456 38.4255 33.7456 37.9119C33.7456 37.5124 32.5563 31.8621 31.9234 29.2557C31.6548 28.1713 31.5014 27.1439 31.5589 26.9727C31.7699 26.4591 32.3262 26.2688 33.4195 26.402C35.6445 26.6683 37.4092 25.66 39.1163 23.1678C39.615 22.4068 40.6892 20.9609 41.4948 19.9526C43.6239 17.2511 43.7198 17.0038 43.7006 14.5497C43.7006 13.4272 43.5855 10.3452 43.4513 7.71982C43.2211 3.28708 43.1827 2.90659 42.7416 2.10756C41.9935 0.737785 40.4398 0.148022 38.7902 0.623634Z" fill="white"/>
<path id="Vector_3" d="M20.8742 5.17047C18.8986 5.51291 16.9613 6.93976 15.9638 8.8232C15.4843 9.73638 15.4268 10.0217 15.4268 11.734C15.4268 13.294 15.5035 13.8076 15.8487 14.5306C16.4242 15.7862 17.8628 17.2511 19.1479 17.8599C20.0878 18.3355 20.4522 18.3926 22.0443 18.3926C23.6747 18.3926 23.9816 18.3355 24.9215 17.8599C27.9713 16.2999 29.429 13.0086 28.47 9.81248C27.5301 6.63536 24.1926 4.59973 20.8742 5.17047Z" fill="white"/>
<path id="Vector_4" d="M21.4885 38.9584C17.9975 39.453 14.1805 40.7467 13.1447 41.793C11.5526 43.3721 12.2815 45.1033 15.0628 46.378C19.4936 48.4136 27.6648 48.7941 32.9013 47.196C34.5893 46.6824 36.7184 45.5789 37.1979 44.9892C38.4639 43.3911 37.5048 41.5267 34.8962 40.5755C30.2735 38.8823 25.7659 38.3306 21.4885 38.9584ZM27.4922 41.3364C27.895 41.4506 28.4513 41.755 28.7006 42.0023C29.1418 42.4399 29.161 42.516 28.8924 42.8965C27.9717 44.3233 22.1023 44.3233 21.1432 42.9155C20.9131 42.573 20.9322 42.4589 21.22 42.0974C21.4118 41.8691 21.9105 41.5647 22.3325 41.4125C23.2532 41.0891 26.4181 41.0321 27.4922 41.3364Z" fill="white"/>
<path id="Vector_5" d="M7.44588 45.579C6.25664 45.9024 4.89478 46.7205 4.33852 47.4624C3.9549 47.9571 2.28613 51.4386 2.28613 51.7049C2.28613 51.743 12.5097 51.781 25.0159 51.781C37.522 51.781 47.7456 51.7239 47.7456 51.6669C47.7456 51.4195 46.307 48.2044 45.9042 47.5766C44.9835 46.0926 43.5257 45.5029 40.8595 45.5029C39.0181 45.5029 38.0015 45.8834 36.5054 47.0819C34.3955 48.7941 27.8355 49.9546 22.81 49.5171C17.8229 49.0795 14.9457 48.2044 12.4138 46.378C11.0328 45.3887 9.22973 45.1034 7.44588 45.579Z" fill="white"/>
<path id="Vector_6" d="M5.26031 53.3029C2.17213 53.417 1.53915 53.6453 0.810267 54.939C-0.129612 56.5561 0.388281 58.4395 1.9995 59.3337L2.76675 59.7712H25.0937H47.4206L48.2646 59.2956C49.3195 58.6678 49.6648 58.002 49.6648 56.499C49.6648 54.977 49.2428 54.2731 47.996 53.6643L47.0753 53.2077H27.5105C16.7499 53.1887 6.73726 53.2458 5.26031 53.3029ZM43.4117 55.6048C44.7352 56.6512 43.2391 58.5346 41.8389 57.5644C41.532 57.3551 41.4169 57.0888 41.4169 56.5371C41.4169 55.9853 41.532 55.719 41.8389 55.5097C42.4143 55.1102 42.7979 55.1292 43.4117 55.6048ZM47.248 55.6048C47.9193 56.1375 47.9193 56.9366 47.2288 57.4883C46.6917 57.9068 46.0204 57.8878 45.5025 57.4502C45.0805 57.1078 45.1956 55.8331 45.6751 55.5097C46.2506 55.1102 46.6342 55.1292 47.248 55.6048Z" fill="white"/>
</g>
</svg>
