<svg width="49" height="54" viewBox="0 0 49 54" fill="none" xmlns="http://www.w3.org/2000/svg">
<g id="Group">
<path id="Vector" d="M34.8575 0.388023C34.7672 0.39926 34.4851 0.438585 34.2425 0.472294C33.2211 0.607126 31.8669 1.05657 31.0149 1.53972L30.6143 1.77006L30.7497 2.41052C31.5904 6.39372 33.5597 9.9668 36.4713 12.7983C38.6719 14.9388 41.1716 16.4725 44.0888 17.4781C44.9973 17.7871 46.5998 18.2085 46.9778 18.2309L47.2148 18.2478L47.4518 17.8264C47.9371 16.9894 48.349 15.7478 48.5183 14.6242C48.6311 13.8433 48.6311 12.3713 48.5126 11.5623C48.0951 8.72521 46.7521 6.18023 44.5572 4.06223C42.5935 2.16333 40.2801 0.966682 37.707 0.517239C37.0863 0.404877 35.2976 0.326223 34.8575 0.388023Z" fill="white"/>
<path id="Vector_2" d="M27.6287 4.91043C27.1999 5.58459 26.709 6.96101 26.534 7.97226C25.8344 12.0229 27.5666 16.4274 31.0143 19.3825C33.9992 21.9387 37.8475 23.0286 41.3403 22.3151C42.2544 22.1241 43.4675 21.6691 44.0769 21.287L44.3252 21.1297L43.2023 20.7533C41.0299 20.023 39.2525 19.169 37.4525 17.978C36.0193 17.0342 34.9415 16.1353 33.6437 14.815C31.1046 12.2251 29.2989 9.23071 28.114 5.64077L27.7923 4.65761L27.6287 4.91043Z" fill="white"/>
<path id="Vector_3" d="M14.6504 27.3321C9.40839 33.6749 5.0128 38.9839 4.88866 39.1356C4.35261 39.7536 4.07048 40.7143 4.1664 41.5458C4.22283 41.9896 4.21719 41.9952 4.07612 42.0682C3.88427 42.1694 2.91374 43.1357 2.50183 43.6357C1.10246 45.338 0.442275 47.1245 0.634124 48.6751C0.769547 49.8099 1.2266 50.7144 2.12942 51.6189C2.9871 52.4785 3.41593 52.7257 4.5501 53.0178C5.36828 53.2313 6.07361 53.3324 6.95386 53.3718C8.77078 53.4448 10.4354 53.0796 12.2297 52.2144C14.0015 51.3605 15.3614 50.3886 18.1262 47.9953C21.2805 45.2649 22.2397 44.5514 23.8422 43.7256C24.6209 43.3211 25.6366 42.9503 26.3701 42.8042C28.4861 42.3772 31.2002 42.7649 33.7281 43.8548C37.1193 45.3099 40.6064 48.1133 43.5124 51.7144C44.0315 52.3549 44.1613 52.4841 44.4491 52.6302C44.7312 52.7763 44.844 52.7987 45.2052 52.7987C45.5606 52.7987 45.6904 52.7706 45.9556 52.6414C46.7907 52.2313 47.1406 51.1976 46.7174 50.383C46.3732 49.7144 45.0133 48.1245 43.4954 46.6189C41.8534 44.9896 40.5726 43.9334 38.8629 42.8042C36.555 41.2761 34.518 40.3379 32.2441 39.7648C28.7231 38.8716 25.6027 39.1075 22.7137 40.4952C20.8855 41.366 19.3845 42.4166 16.9413 44.5121C16.4278 44.9503 15.6096 45.6526 15.1187 46.0739C11.8968 48.838 9.94444 49.8492 7.65918 49.9448C6.92564 49.9785 6.25981 49.911 5.45856 49.7257C4.98458 49.6189 4.9338 49.5908 4.62345 49.2931C4.43725 49.1189 4.23976 48.8829 4.18333 48.7706C3.74885 47.9223 4.29054 46.6751 5.73505 45.2031L6.41781 44.5065L6.78458 44.5908C6.98771 44.6413 7.3432 44.6806 7.57454 44.6806C8.46608 44.6806 9.15448 44.3829 10.1194 43.5739C10.4748 43.2705 15.8128 38.8941 21.9745 33.8434L33.1751 24.6635L32.2666 24.2085C30.4159 23.2759 28.9093 22.1804 27.5438 20.759C26.3137 19.4837 25.0892 17.6915 24.446 16.2308C24.3444 15.9949 24.2428 15.8039 24.2259 15.8039C24.2033 15.8039 19.898 20.9893 14.6504 27.3321Z" fill="white"/>
</g>
</svg>
