<svg width="35" height="36" viewBox="0 0 35 36" fill="none" xmlns="http://www.w3.org/2000/svg">
<g clip-path="url(#clip0_5133_478)">
<path d="M24.4024 1.41766C24.4024 1.60617 24.2831 1.68661 24.0018 1.68661H23.7906V1.14118H24.0018C24.2756 1.14118 24.4024 1.22915 24.4024 1.41766ZM24.6595 1.41766C24.6595 1.08253 24.4325 0.904907 24.0018 0.904907H23.541V2.28733H23.7906V1.92455H24.0018C24.0243 1.92455 24.0469 1.92455 24.0694 1.92287L24.3373 2.27644L24.3465 2.28733H24.6771L24.3482 1.8726C24.5552 1.79971 24.6604 1.64639 24.6604 1.4185L24.6595 1.41766Z" fill="#FCE900"/>
<path d="M24.0719 2.6015C23.5351 2.6015 23.0986 2.16331 23.0986 1.62458C23.0986 1.08586 23.5351 0.647669 24.0719 0.647669C24.6086 0.647669 25.0452 1.08586 25.0452 1.62458C25.0452 2.16331 24.6086 2.6015 24.0719 2.6015ZM24.0719 0.480103C23.4433 0.480103 22.9316 0.993694 22.9316 1.62458C22.9316 2.25547 23.4433 2.76906 24.0719 2.76906C24.7004 2.76906 25.2121 2.25547 25.2121 1.62458C25.2121 0.993694 24.7004 0.480103 24.0719 0.480103Z" fill="#FCE900"/>
<path d="M13.9807 10.4386C13.7846 11.7925 13.0508 13.0208 12.0342 13.9123C11.0175 14.8046 9.71781 15.3508 8.37975 15.3609H8.36973H8.35888C5.68194 15.3508 3.82135 13.1465 4.22452 10.4386C4.42068 9.08467 5.14438 7.85641 6.16107 6.96411C7.17775 6.07182 8.47741 5.52639 9.81547 5.5155H9.82549H9.83634C9.94068 5.5155 10.0459 5.5155 10.1502 5.52639L9.77457 8.10859C9.66939 8.08765 9.56422 8.07676 9.44903 8.07676C8.16356 8.08765 6.96323 9.13661 6.7654 10.4386C6.57759 11.7297 7.46907 12.7896 8.75538 12.7896C9.64769 12.7896 10.4883 12.2751 10.9891 11.532H9.2704L9.58342 9.41477H14.0208L14.0316 9.75577C14.0392 9.97612 14.0149 10.2074 13.9807 10.4378V10.4386ZM19.4865 15.0014L21.646 0.475098H3.23287L0 22.2638H4.61684L3.95657 26.7588H8.59845L3.48913 29.9383L2.65858 35.592H21.0717L24.1025 15.0023H19.4857L19.4865 15.0014Z" fill="#FCE900"/>
<path d="M34.2267 30.219L34.9112 30.1302V29.485L31.3177 28.9413V31.9541L32.2376 31.6869L32.2459 30.1034L33.3486 30.2701L33.3778 30.3086C33.9003 30.9906 34.1132 31.6927 34.1132 32.7325C34.1132 34.2355 33.2008 35.1077 31.8436 34.9025C30.4646 34.6938 29.574 33.572 29.574 32.0455C29.574 30.9688 29.8469 30.3245 30.5122 29.8386L30.0698 28.9455C29.1274 29.5353 28.6875 30.4678 28.6875 31.8754C28.6875 33.9993 29.9847 35.6783 31.8436 35.9598C33.7309 36.2455 34.9997 34.9888 34.9997 32.8305C34.9997 31.841 34.7935 31.097 34.3085 30.3455L34.2267 30.219Z" fill="#FCE900"/>
<path d="M30.4513 6.23012C31.4079 6.37507 31.9262 5.80199 32.0815 4.42878L32.3043 2.28728C32.3494 1.82396 32.4838 1.21821 33.1366 1.31707C33.786 1.4151 34.1583 2.23115 34.1583 3.55492C34.1583 4.69521 33.9195 5.53975 33.3611 6.36418L34.1174 6.97244C34.735 6.11869 34.9997 5.18367 34.9997 3.86241C34.9997 1.77537 34.3118 0.474213 33.114 0.292404C32.1349 0.144107 31.5564 0.774157 31.3945 2.16412L31.1716 4.18665C31.114 4.71365 31.0055 5.26829 30.4396 5.18283C29.8344 5.09151 29.5406 4.42041 29.5406 3.13098C29.5406 2.06191 29.7309 1.32545 30.195 0.609104L29.4805 0C28.9254 0.786725 28.6875 1.68991 28.6875 3.00196C28.6875 4.43381 29.1508 6.03323 30.4513 6.23012Z" fill="#FCE900"/>
<path d="M28.7939 21.3622V27.0829L34.9108 28.0095V22.1095L33.9984 21.9713V26.8483L31.3365 26.4445V26.4453L29.6938 26.1965V21.4987L28.7939 21.3622Z" fill="#FCE900"/>
<path d="M31.3369 22.2135V26.2317L32.2251 25.9754V22.3476L31.3369 22.2135Z" fill="#FCE900"/>
<path d="M31.3369 15.2234V19.2416L32.2251 18.9853V15.3574L31.3369 15.2234Z" fill="#FCE900"/>
<path d="M34.9108 15.1187L33.9984 14.9805V19.8583L31.3365 19.4536V19.4545L29.6938 19.2057V14.5079L28.7939 14.3722V20.0929L34.9108 21.0187V15.1187Z" fill="#FCE900"/>
<path d="M34.9108 7.49279L31.7789 9.29246L28.7939 6.7312V7.88909L31.3282 10.018V12.2659L32.228 12.007V10.1177L34.9108 8.68335V7.49279Z" fill="#FCE900"/>
<path d="M34.9108 13.0174L28.7939 12.0916V13.102L34.9108 14.0278V13.0174Z" fill="#FCE900"/>
</g>
<defs>
<clipPath id="clip0_5133_478">
<rect width="35" height="36" fill="white"/>
</clipPath>
</defs>
</svg>
