<svg width="38" height="38" viewBox="0 0 38 38" fill="none" xmlns="http://www.w3.org/2000/svg">
<path d="M31.25 27.3438C31.8519 27.344 32.4306 27.5759 32.8662 27.9913C33.3018 28.4066 33.561 28.9737 33.5899 29.5749C33.6188 30.1761 33.4153 30.7654 33.0216 31.2206C32.6279 31.6759 32.0741 31.9622 31.475 32.0203L31.25 32.0312H6.25C5.6481 32.031 5.06938 31.7991 4.63377 31.3837C4.19816 30.9684 3.93904 30.4013 3.91012 29.8001C3.88119 29.1989 4.08467 28.6096 4.4784 28.1544C4.87212 27.6991 5.42591 27.4128 6.025 27.3547L6.25 27.3438H31.25ZM31.25 16.4062C31.8716 16.4062 32.4677 16.6532 32.9073 17.0927C33.3468 17.5323 33.5938 18.1284 33.5938 18.75C33.5938 19.3716 33.3468 19.9677 32.9073 20.4073C32.4677 20.8468 31.8716 21.0938 31.25 21.0938H6.25C5.6284 21.0938 5.03226 20.8468 4.59272 20.4073C4.15318 19.9677 3.90625 19.3716 3.90625 18.75C3.90625 18.1284 4.15318 17.5323 4.59272 17.0927C5.03226 16.6532 5.6284 16.4062 6.25 16.4062H31.25ZM31.25 5.46875C31.8716 5.46875 32.4677 5.71568 32.9073 6.15522C33.3468 6.59476 33.5938 7.1909 33.5938 7.8125C33.5938 8.4341 33.3468 9.03024 32.9073 9.46978C32.4677 9.90932 31.8716 10.1562 31.25 10.1562H6.25C5.6284 10.1562 5.03226 9.90932 4.59272 9.46978C4.15318 9.03024 3.90625 8.4341 3.90625 7.8125C3.90625 7.1909 4.15318 6.59476 4.59272 6.15522C5.03226 5.71568 5.6284 5.46875 6.25 5.46875H31.25Z" fill="#FCFCFC"/>
</svg>
