<svg width="15" height="20" viewBox="0 0 15 20" fill="none" xmlns="http://www.w3.org/2000/svg">
<path d="M12.5 1.00268e-07C13.0046 -0.000159579 13.4906 0.190406 13.8605 0.533497C14.2305 0.876588 14.4572 1.34684 14.495 1.85L14.5 2V18C14.5002 18.5046 14.3096 18.9906 13.9665 19.3605C13.6234 19.7305 13.1532 19.9572 12.65 19.995L12.5 20H2.5C1.99542 20.0002 1.50943 19.8096 1.13945 19.4665C0.769471 19.1234 0.542843 18.6532 0.505 18.15L0.5 18V2C0.49984 1.49542 0.690406 1.00943 1.0335 0.639452C1.37659 0.269471 1.84684 0.0428434 2.35 0.00500021L2.5 1.00268e-07H12.5ZM12.5 2H2.5V18H12.5V2ZM8 14C8.11703 14 8.23036 14.041 8.32026 14.1159C8.41016 14.1908 8.47093 14.2949 8.492 14.41L8.5 14.5V15.5C8.50004 15.617 8.45903 15.7304 8.38411 15.8203C8.30919 15.9102 8.20511 15.9709 8.09 15.992L8 16H7C6.88297 16 6.76964 15.959 6.67974 15.8841C6.58984 15.8092 6.52907 15.7051 6.508 15.59L6.5 15.5V14.5C6.49996 14.383 6.54097 14.2696 6.61589 14.1797C6.69081 14.0898 6.79489 14.0291 6.91 14.008L7 14H8Z" fill="#FCFCFC"/>
</svg>
