<svg width="104" height="60" viewBox="0 0 104 60" fill="none" xmlns="http://www.w3.org/2000/svg">
<path d="M22.9104 31.7096C21.9275 33.0601 20.3321 33.9389 18.5361 33.9389C16.74 33.9389 15.1574 33.067 14.1733 31.7274C14.0138 31.5094 13.8694 31.2794 13.743 31.0389C13.5934 30.7525 13.4681 30.4511 13.3707 30.1377C13.2988 29.9053 13.2419 29.6666 13.2019 29.4222C13.1816 29.3002 13.1654 29.1766 13.1538 29.0518H11.2905C11.3073 29.302 11.338 29.5487 11.3798 29.7914C11.566 30.8578 11.9858 31.8436 12.5855 32.6966C13.9001 34.567 16.0783 35.7921 18.5366 35.7921C21.26 35.7921 23.6388 34.2886 24.881 32.0702C25.0063 31.8476 25.2417 31.7096 25.4969 31.7096C25.9092 31.7096 26.205 32.0472 26.205 32.4165C26.205 32.5321 26.176 32.65 26.1134 32.7621C24.627 35.409 21.7877 37.2029 18.5366 37.2029C15.2856 37.2029 12.3993 35.3797 10.9228 32.6966C10.7193 32.3262 10.5418 31.9391 10.3933 31.5382C10.1869 30.9809 10.0361 30.3965 9.94797 29.7914C9.94217 29.7523 9.93695 29.7132 9.93231 29.6747C9.92883 29.6499 9.92535 29.6252 9.92303 29.6016C9.91491 29.5407 9.90795 29.4797 9.90273 29.4187C9.8691 29.0616 9.8633 28.7573 9.85808 28.5445C9.8517 28.2983 9.8546 28.0913 9.85808 27.9383V17.0523C9.85808 16.7331 10.0941 16.4535 10.4131 16.4236C10.7778 16.3891 11.0869 16.6767 11.0869 17.0344V27.0192H12.9444V13.8389C12.9444 13.4823 13.2524 13.1947 13.6177 13.2286C13.9361 13.258 14.1733 13.5375 14.1733 13.8567V25.3621C14.6604 24.6984 15.296 24.1503 16.0314 23.7661V10.4667C16.0314 10.1095 16.3393 9.82197 16.7041 9.85648C17.023 9.88581 17.2602 10.1653 17.2602 10.4845V23.3025C17.6691 23.203 18.0965 23.1507 18.5361 23.1507C18.7321 23.1507 18.9264 23.161 19.1177 23.1811C20.6742 23.3485 22.0353 24.1773 22.9104 25.3788C23.3106 25.927 23.6104 26.5539 23.7803 27.232H28.9892C28.9097 26.5953 28.7723 25.9758 28.5827 25.3788C27.2889 21.301 23.5657 18.2917 19.1171 18.049V10.5076C19.1171 9.15651 18.0454 8.02517 16.6919 8.00044C15.3076 7.97456 14.1727 9.09036 14.1727 10.4661V11.4491C13.968 11.3962 13.7528 11.3697 13.5307 11.3714C12.1697 11.387 11.0864 12.52 11.0864 13.878V14.6441C10.8811 14.5912 10.6659 14.5641 10.4438 14.567C9.08272 14.582 8 15.715 8 17.073V28.5439C8 28.9661 8.02494 29.3825 8.07423 29.7909C8.69359 35.0012 13.1486 39.0555 18.5355 39.0555C23.2392 39.0555 27.2332 35.9634 28.5827 31.709C28.7717 31.112 28.9097 30.4926 28.9892 29.8559H23.7803C23.6104 30.5334 23.3112 31.1603 22.9104 31.709V31.7096ZM19.1177 19.9056C22.1258 20.1052 24.7186 21.841 26.1163 24.3315C26.379 24.8002 26.0368 25.3794 25.4969 25.3794C25.2406 25.3794 25.0057 25.2402 24.8799 25.0165C23.7252 22.9591 21.5946 21.5172 19.1177 21.3217V19.9062V19.9056Z" fill="#0049FF"/>
<path d="M41.0073 19.9707C36.2659 19.9707 32.4082 23.8197 32.4082 28.5503C32.4082 33.281 36.2659 37.13 41.0073 37.13C45.7488 37.13 49.6064 33.281 49.6064 28.5503C49.6064 23.8197 45.7488 19.9707 41.0073 19.9707ZM41.0073 36.128C36.8191 36.128 33.4121 32.7289 33.4121 28.5503C33.4121 24.3718 36.8191 20.9726 41.0073 20.9726C45.1955 20.9726 48.6026 24.3718 48.6026 28.5503C48.6026 32.7289 45.1955 36.128 41.0073 36.128Z" fill="#0049FF"/>
<path d="M41.0068 18.0439C35.2 18.0439 30.4766 22.7568 30.4766 28.5498C30.4766 34.3428 35.2006 39.0556 41.0068 39.0556C46.813 39.0556 51.5371 34.3428 51.5371 28.5498C51.5371 22.7568 46.813 18.0439 41.0068 18.0439ZM41.0068 38.0548C35.7539 38.0548 31.4804 33.7912 31.4804 28.5504C31.4804 23.3095 35.7539 19.0459 41.0068 19.0459C46.2598 19.0459 50.5332 23.3095 50.5332 28.5504C50.5332 33.7912 46.2598 38.0548 41.0068 38.0548Z" fill="#0049FF"/>
<path d="M41.0065 21.9924C37.3825 21.9924 34.4336 24.9338 34.4336 28.5498C34.4336 32.1658 37.3819 35.1072 41.0065 35.1072C44.631 35.1072 47.5793 32.1658 47.5793 28.5498C47.5793 24.9338 44.631 21.9924 41.0065 21.9924ZM41.0065 34.1058C37.9358 34.1058 35.4374 31.6137 35.4374 28.5498C35.4374 25.4859 37.9358 22.9938 41.0065 22.9938C44.0772 22.9938 46.5755 25.4859 46.5755 28.5498C46.5755 31.6137 44.0772 34.1058 41.0065 34.1058Z" fill="#0049FF"/>
<path d="M41.0073 23.938C38.4586 23.938 36.3848 26.0068 36.3848 28.5496C36.3848 31.0924 38.4586 33.1612 41.0073 33.1612C43.5561 33.1612 45.6299 31.0924 45.6299 28.5496C45.6299 26.0068 43.5561 23.938 41.0073 23.938ZM41.0073 32.1599C39.0118 32.1599 37.3886 30.5402 37.3886 28.5496C37.3886 26.559 39.0118 24.9393 41.0073 24.9393C43.0029 24.9393 44.6261 26.559 44.6261 28.5496C44.6261 30.5402 43.0029 32.1599 41.0073 32.1599Z" fill="#0049FF"/>
<path d="M41.0072 25.7695C39.4704 25.7695 38.2207 27.0171 38.2207 28.5498C38.2207 30.0826 39.471 31.3302 41.0072 31.3302C42.5435 31.3302 43.7938 30.0826 43.7938 28.5498C43.7938 27.0171 42.5435 25.7695 41.0072 25.7695ZM41.0072 30.3288C40.0243 30.3288 39.2246 29.5311 39.2246 28.5498C39.2246 27.5686 40.0243 26.7709 41.0072 26.7709C41.9902 26.7709 42.7899 27.5686 42.7899 28.5498C42.7899 29.5311 41.9902 30.3288 41.0072 30.3288Z" fill="#0049FF"/>
<path d="M63.5542 19.9707C58.8127 19.9707 54.9551 23.8197 54.9551 28.5503C54.9551 33.281 58.8127 37.13 63.5542 37.13C68.2957 37.13 72.1533 33.281 72.1533 28.5503C72.1533 23.8197 68.2957 19.9707 63.5542 19.9707ZM63.5542 36.128C59.366 36.128 55.9589 32.7289 55.9589 28.5503C55.9589 24.3718 59.366 20.9726 63.5542 20.9726C67.7424 20.9726 71.1495 24.3718 71.1495 28.5503C71.1495 32.7289 67.7424 36.128 63.5542 36.128Z" fill="#0049FF"/>
<path d="M63.5537 18.0439C57.7469 18.0439 53.0234 22.7568 53.0234 28.5498C53.0234 34.3428 57.7475 39.0556 63.5537 39.0556C69.3599 39.0556 74.084 34.3428 74.084 28.5498C74.084 22.7568 69.3599 18.0439 63.5537 18.0439ZM63.5537 38.0548C58.3007 38.0548 54.0273 33.7912 54.0273 28.5504C54.0273 23.3095 58.3007 19.0459 63.5537 19.0459C68.8066 19.0459 73.0801 23.3095 73.0801 28.5504C73.0801 33.7912 68.8066 38.0548 63.5537 38.0548Z" fill="#0049FF"/>
<path d="M63.5533 21.9924C59.9294 21.9924 56.9805 24.9338 56.9805 28.5498C56.9805 32.1658 59.9288 35.1072 63.5533 35.1072C67.1779 35.1072 70.1262 32.1658 70.1262 28.5498C70.1262 24.9338 67.1779 21.9924 63.5533 21.9924ZM63.5533 34.1058C60.4826 34.1058 57.9843 31.6137 57.9843 28.5498C57.9843 25.4859 60.4826 22.9938 63.5533 22.9938C66.624 22.9938 69.1223 25.4859 69.1223 28.5498C69.1223 31.6137 66.624 34.1058 63.5533 34.1058Z" fill="#0049FF"/>
<path d="M63.5542 23.938C61.0054 23.938 58.9316 26.0068 58.9316 28.5496C58.9316 31.0924 61.0054 33.1612 63.5542 33.1612C66.103 33.1612 68.1768 31.0924 68.1768 28.5496C68.1768 26.0068 66.103 23.938 63.5542 23.938ZM63.5542 32.1599C61.5587 32.1599 59.9355 30.5402 59.9355 28.5496C59.9355 26.559 61.5587 24.9393 63.5542 24.9393C65.5497 24.9393 67.1729 26.559 67.1729 28.5496C67.1729 30.5402 65.5497 32.1599 63.5542 32.1599Z" fill="#0049FF"/>
<path d="M63.5541 25.7695C62.0173 25.7695 60.7676 27.0171 60.7676 28.5498C60.7676 30.0826 62.0179 31.3302 63.5541 31.3302C65.0903 31.3302 66.3407 30.0826 66.3407 28.5498C66.3407 27.0171 65.0903 25.7695 63.5541 25.7695ZM63.5541 30.3288C62.5711 30.3288 61.7714 29.5311 61.7714 28.5498C61.7714 27.5686 62.5711 26.7709 63.5541 26.7709C64.5371 26.7709 65.3368 27.5686 65.3368 28.5498C65.3368 29.5311 64.5371 30.3288 63.5541 30.3288Z" fill="#0049FF"/>
<path d="M95.2762 34.845C94.8285 34.3993 94.2109 34.1226 93.5277 34.1226H80.897V20.5098C80.897 19.1639 79.8166 18.0705 78.4741 18.0447C77.088 18.0176 75.9531 19.176 75.9531 20.5592V34.1232L76.0795 35.2378C76.0981 35.3172 76.1184 35.396 76.1404 35.4737C76.1631 35.5525 76.1874 35.6295 76.2123 35.7054C76.2123 35.7054 76.2123 35.7056 76.2123 35.706C76.239 35.7825 76.2669 35.8573 76.2959 35.9321L76.3417 36.0442C76.4977 36.4129 76.6977 36.7586 76.9355 37.0755C76.9355 37.0755 76.9355 37.0757 76.9355 37.076C76.9825 37.1387 77.0312 37.2009 77.0822 37.2618C77.0822 37.2618 77.0822 37.262 77.0822 37.2624C77.1826 37.3838 77.2893 37.5005 77.4018 37.6121C77.5131 37.7237 77.6303 37.8301 77.752 37.9307H77.7526C77.8135 37.9808 77.8762 38.0291 77.9388 38.0774H77.9394C78.0032 38.1245 78.0675 38.1706 78.1331 38.2149C78.1992 38.2591 78.2659 38.3023 78.3337 38.3437H78.3343C78.4021 38.3851 78.4706 38.4248 78.5407 38.4622H78.5413C78.6944 38.545 78.8522 38.6203 79.0151 38.6871C79.0801 38.7135 79.1456 38.7394 79.2117 38.7636C79.2448 38.7751 79.2784 38.7871 79.3115 38.7986C79.809 38.9666 80.3426 39.0575 80.897 39.0575H93.5277C94.8929 39.0575 95.9999 37.9532 95.9999 36.5906C95.9999 35.9096 95.7233 35.2931 95.2762 34.8467V34.845ZM94.1471 36.6498C94.1163 36.9714 93.8328 37.2101 93.5086 37.2101H80.897C80.204 37.2101 79.5632 36.9811 79.047 36.5946C78.9426 36.5164 78.8429 36.4324 78.7489 36.3421C78.7304 36.3237 78.7118 36.3059 78.6933 36.2875C78.6567 36.2507 78.6214 36.2127 78.5866 36.1736C78.5668 36.1512 78.5471 36.1288 78.528 36.1058C78.5088 36.0827 78.4903 36.0603 78.4717 36.0373C78.053 35.5105 77.8025 34.845 77.8025 34.1226V20.527C77.8025 20.2038 78.0426 19.9214 78.365 19.8915C78.7344 19.8564 79.0464 20.1469 79.0464 20.5086V34.1215C79.0464 35.1406 79.8746 35.9671 80.8964 35.9671H93.5271C93.8908 35.9671 94.1819 36.2794 94.1465 36.6487L94.1471 36.6498Z" fill="#0049FF"/>
<path d="M26.9201 46.6598C26.9201 46.4418 26.8471 46.2646 26.6934 46.1111C26.5356 45.9535 26.3454 45.877 26.1274 45.877C25.9093 45.877 25.7191 45.9535 25.5654 46.1111C25.4077 46.2687 25.3311 46.4498 25.3352 46.6557C25.3392 46.914 25.4083 47.1118 25.5213 47.2689C25.5979 47.3776 25.7034 47.4828 25.8368 47.5835C25.9499 47.672 26.1361 47.7974 26.3866 47.9504C26.6133 48.0919 26.8476 48.2288 27.0581 48.3985C27.7053 48.923 27.9518 49.6046 27.7738 50.4075C27.6891 50.7946 27.4948 51.1138 27.1875 51.36C26.8801 51.6021 26.524 51.7189 26.1279 51.7189C25.6791 51.7189 25.2789 51.5653 24.9553 51.2547C24.6277 50.9441 24.4578 50.5645 24.4578 50.117V49.5361H25.3352V50.117C25.3352 50.335 25.4083 50.5122 25.5654 50.6657C25.7191 50.8193 25.9012 50.8958 26.1274 50.8958C26.3176 50.8958 26.4834 50.8394 26.629 50.7181C26.7786 50.5933 26.8673 50.4397 26.9079 50.2459C27.017 49.7455 26.8795 49.3463 26.4753 49.015C26.3704 48.9305 26.1801 48.8051 25.9012 48.636L25.7516 48.5394L25.5938 48.4468C25.4645 48.3703 25.3595 48.2892 25.2702 48.2167C25.08 48.0672 24.9223 47.9061 24.797 47.7365C24.5627 47.4219 24.4531 47.0422 24.4531 46.4291H24.4734C24.5262 46.0702 24.6961 45.7637 24.971 45.5054C25.2946 45.2069 25.6866 45.0574 26.1274 45.0574C26.5681 45.0574 26.9764 45.2109 27.3 45.5175C27.6236 45.8281 27.7975 46.2077 27.7975 46.6511V47.232H26.9201V46.6592V46.6598Z" fill="#0049FF"/>
<path d="M37.3206 51.6389H36.431V45.9742H35.1406V45.1431H38.6103V45.9742H37.32V51.6389H37.3206Z" fill="#0049FF"/>
<path d="M47.7847 51.7193C47.3075 51.7193 46.8911 51.5536 46.5472 51.2229C46.2033 50.8922 46.0293 50.4844 46.0293 50.0122V45.1423H46.9067V50.0122C46.9067 50.2543 46.9914 50.4562 47.1654 50.6334C47.3393 50.8071 47.5377 50.8916 47.7841 50.8916C48.0306 50.8916 48.233 50.8071 48.407 50.6334C48.581 50.4556 48.6656 50.2543 48.6656 50.0122V45.1423H49.5431V50.0122C49.5431 50.4844 49.3691 50.8916 49.0252 51.2229C48.6813 51.5536 48.2608 51.7193 47.7836 51.7193H47.7847Z" fill="#0049FF"/>
<path d="M58.612 51.6388H56.9824V45.1389H58.612C59.1136 45.1389 59.5463 45.2804 59.8861 45.5709C60.2341 45.8694 60.4121 46.2524 60.4121 46.7125V50.0611C60.4121 50.5212 60.2341 50.9043 59.8861 51.2068C59.5422 51.5013 59.1136 51.6388 58.612 51.6388ZM59.2592 46.1558C59.0933 46.031 58.8828 45.966 58.612 45.966H57.8598V50.8117H58.612C58.8828 50.8117 59.0933 50.7473 59.2592 50.6179C59.4413 50.481 59.53 50.3033 59.53 50.0611V46.7125C59.53 46.4664 59.4413 46.2887 59.2592 46.1558Z" fill="#0049FF"/>
<path d="M67.7832 45.1384H68.6646V51.6383H67.7832V45.1384Z" fill="#0049FF"/>
<path d="M77.7886 51.7194C77.3114 51.7194 76.895 51.5538 76.5511 51.2231C76.2072 50.8924 76.0332 50.4846 76.0332 50.0083V46.7644C76.0332 46.2922 76.2072 45.885 76.5511 45.5537C76.895 45.223 77.3114 45.0574 77.7886 45.0574C78.2659 45.0574 78.6864 45.223 79.0303 45.5537C79.3741 45.8845 79.5481 46.2922 79.5481 46.7644V50.0083C79.5481 50.4846 79.3741 50.8918 79.0303 51.2231C78.6864 51.5538 78.2659 51.7194 77.7886 51.7194ZM78.4115 46.1433C78.2375 45.9696 78.0351 45.885 77.7886 45.885C77.5422 45.885 77.3438 45.9696 77.1699 46.1433C76.9959 46.321 76.9112 46.5223 76.9112 46.7644V50.0083C76.9112 50.2545 76.9959 50.4564 77.1699 50.6335C77.3438 50.8072 77.5422 50.8918 77.7886 50.8918C78.0351 50.8918 78.2375 50.8072 78.4115 50.6335C78.5854 50.4558 78.6701 50.2545 78.6701 50.0083V46.7644C78.6701 46.5223 78.5854 46.3204 78.4115 46.1433Z" fill="#0049FF"/>
</svg>
