<svg width="31" height="28" viewBox="0 0 31 28" fill="none" xmlns="http://www.w3.org/2000/svg">
<path d="M28.25 22.5938C28.8519 22.594 29.4306 22.8259 29.8662 23.2413C30.3018 23.6566 30.561 24.2237 30.5899 24.8249C30.6188 25.4261 30.4153 26.0154 30.0216 26.4706C29.6279 26.9259 29.0741 27.2122 28.475 27.2703L28.25 27.2812H3.25C2.6481 27.281 2.06938 27.0491 1.63377 26.6337C1.19816 26.2184 0.939044 25.6513 0.910118 25.0501C0.881193 24.4489 1.08467 23.8596 1.4784 23.4044C1.87212 22.9491 2.42591 22.6628 3.025 22.6047L3.25 22.5938H28.25ZM28.25 11.6562C28.8716 11.6562 29.4677 11.9032 29.9073 12.3427C30.3468 12.7823 30.5938 13.3784 30.5938 14C30.5938 14.6216 30.3468 15.2177 29.9073 15.6573C29.4677 16.0968 28.8716 16.3438 28.25 16.3438H3.25C2.6284 16.3438 2.03226 16.0968 1.59272 15.6573C1.15318 15.2177 0.90625 14.6216 0.90625 14C0.90625 13.3784 1.15318 12.7823 1.59272 12.3427C2.03226 11.9032 2.6284 11.6562 3.25 11.6562H28.25ZM28.25 0.71875C28.8716 0.71875 29.4677 0.96568 29.9073 1.40522C30.3468 1.84476 30.5938 2.4409 30.5938 3.0625C30.5938 3.6841 30.3468 4.28024 29.9073 4.71978C29.4677 5.15932 28.8716 5.40625 28.25 5.40625H3.25C2.6284 5.40625 2.03226 5.15932 1.59272 4.71978C1.15318 4.28024 0.90625 3.6841 0.90625 3.0625C0.90625 2.4409 1.15318 1.84476 1.59272 1.40522C2.03226 0.96568 2.6284 0.71875 3.25 0.71875H28.25Z" fill="#151515"/>
</svg>
